M48
;Layer_Color=9474304
;FILE_FORMAT=4:4
METRIC,LZ
;TYPE=PLATED
T2F00S00C0.6500
T3F00S00C0.7112
T4F00S00C0.8890
T5F00S00C0.9906
T6F00S00C1.0000
T7F00S00C1.5000
T8F00S00C1.7000
T9F00S00C3.5000
T10F00S00C4.0000
%
T02
X00255Y005656
Y006144
T03
X0049Y0004
X0049Y00135
X005678Y001375
X00575Y000975
X005678Y000425
X00575Y001925
X005678Y00235
X00575Y002925
X0057Y0033
X005755Y00385
X0057Y004225
X005755Y0048
X005653Y00515
X0049016Y005125
X00455Y00505
X0042Y005
X00419999Y00517499
X004Y0051
X003875Y004375
X003675
X003Y004725
X002875Y005325
X002475Y004125
X0049Y004225
X004922Y003275
X004925Y002375
X000375Y0043
X000475Y004525
Y005075
X0019Y0059
X002875Y0066
X003Y00715
X003725Y007075
Y006625
X0042Y0066
X00455Y006175
X0046484Y00586867
X005225Y006
X004955Y00688
X003575Y00755
Y007825
X00235
X002325Y007525
X003375Y0061
X005703Y00605
X005725Y0057
Y0066
X005675Y0068
X005656Y006975
X0057Y007525
T04
X001625Y004775
X001975
X002325
X002675
X0044Y0046
X001275Y004775
X000925
X001175Y0023
T05
X0008325Y0055313
X0013325
Y0069063
X0010825
X0008325
T06
X001165Y000659
X001419
X001673
X001927
X00335Y000663
X003604
X003858
X004112
X004114Y002917
X00386
X003606
X003352
X001931
X001677
X001423
X001169
T07
X0018Y001675
X00335Y001425
X003985Y001679
X003987Y003933
X003352Y003679
X001804Y003933
X001169Y003679
X001165Y001421
T08
X001038Y001167
X002054
X003223Y001171
X004239
X004241Y003425
X003225
X002058
X001042
T09
X000375Y000425
X0045Y0023
X000375Y0076
X0041Y007625
T10
X001546Y001167
X003731Y001171
X003733Y003425
X00155
M30
