G04*
G04 #@! TF.GenerationSoftware,Altium Limited,Altium Designer,20.2.7 (254)*
G04*
G04 Layer_Physical_Order=2*
G04 Layer_Color=16711680*
%FSLAX44Y44*%
%MOMM*%
G71*
G04*
G04 #@! TF.SameCoordinates,3DC96C9F-A8A8-42D8-A5AB-E266E3FEE33C*
G04*
G04*
G04 #@! TF.FilePolarity,Positive*
G04*
G01*
G75*
%ADD12C,0.2540*%
%ADD48C,1.4986*%
%ADD50C,1.3970*%
%ADD52C,1.0500*%
%ADD53C,1.5000*%
%ADD54C,2.2000*%
%ADD55O,0.8000X1.5000*%
%ADD56C,4.0000*%
%ADD57C,1.2700*%
%ADD58R,0.9000X1.0000*%
%ADD59R,0.8700X0.9800*%
%ADD60R,1.2000X1.0000*%
G36*
X592106Y9530D02*
X7106D01*
Y792106D01*
X231641D01*
X231894Y790836D01*
X230517Y790265D01*
X228660Y788840D01*
X227235Y786983D01*
X226339Y784821D01*
X226201Y783770D01*
X243799D01*
X243661Y784821D01*
X242765Y786983D01*
X241340Y788840D01*
X239483Y790265D01*
X238106Y790836D01*
X238359Y792106D01*
X354141Y792106D01*
X354394Y790836D01*
X353017Y790265D01*
X351160Y788840D01*
X349735Y786983D01*
X348839Y784821D01*
X348700Y783770D01*
X366300D01*
X366161Y784821D01*
X365265Y786983D01*
X363840Y788840D01*
X361983Y790265D01*
X360606Y790836D01*
X360859Y792106D01*
X592106D01*
Y9530D01*
D02*
G37*
%LPC*%
G36*
X366300Y781230D02*
X358770D01*
Y773700D01*
X359821Y773839D01*
X361983Y774735D01*
X363840Y776160D01*
X365265Y778017D01*
X366161Y780179D01*
X366300Y781230D01*
D02*
G37*
G36*
X356230D02*
X348700D01*
X348839Y780179D01*
X349735Y778017D01*
X351160Y776160D01*
X353017Y774735D01*
X355179Y773839D01*
X356230Y773700D01*
Y781230D01*
D02*
G37*
G36*
X243799D02*
X236270D01*
Y773700D01*
X237321Y773839D01*
X239483Y774735D01*
X241340Y776160D01*
X242765Y778017D01*
X243661Y780179D01*
X243799Y781230D01*
D02*
G37*
G36*
X233730D02*
X226201D01*
X226339Y780179D01*
X227235Y778017D01*
X228660Y776160D01*
X230517Y774735D01*
X232679Y773839D01*
X233730Y773700D01*
Y781230D01*
D02*
G37*
G36*
X331270Y780929D02*
Y772270D01*
X336596D01*
Y774500D01*
X336372Y776207D01*
X335713Y777798D01*
X334664Y779164D01*
X333298Y780213D01*
X331707Y780872D01*
X331270Y780929D01*
D02*
G37*
G36*
X265270D02*
Y772270D01*
X270597D01*
Y774500D01*
X270372Y776207D01*
X269713Y777798D01*
X268664Y779164D01*
X267298Y780213D01*
X265707Y780872D01*
X265270Y780929D01*
D02*
G37*
G36*
X328730Y780929D02*
X328293Y780872D01*
X326702Y780213D01*
X325336Y779164D01*
X324287Y777798D01*
X323628Y776207D01*
X323404Y774500D01*
Y772270D01*
X328730D01*
Y780929D01*
D02*
G37*
G36*
X262730D02*
X262293Y780872D01*
X260702Y780213D01*
X259336Y779164D01*
X258287Y777798D01*
X257628Y776207D01*
X257404Y774500D01*
Y772270D01*
X262730D01*
Y780929D01*
D02*
G37*
G36*
X336596Y769730D02*
X331270D01*
Y761071D01*
X331707Y761128D01*
X333298Y761787D01*
X334664Y762836D01*
X335713Y764202D01*
X336372Y765793D01*
X336596Y767500D01*
Y769730D01*
D02*
G37*
G36*
X270597D02*
X265270D01*
Y761071D01*
X265707Y761128D01*
X267298Y761787D01*
X268664Y762836D01*
X269713Y764202D01*
X270372Y765793D01*
X270597Y767500D01*
Y769730D01*
D02*
G37*
G36*
X328730D02*
X323404D01*
Y767500D01*
X323628Y765793D01*
X324287Y764202D01*
X325336Y762836D01*
X326702Y761787D01*
X328293Y761128D01*
X328730Y761071D01*
Y769730D01*
D02*
G37*
G36*
X262730D02*
X257404D01*
Y767500D01*
X257628Y765793D01*
X258287Y764202D01*
X259336Y762836D01*
X260702Y761787D01*
X262293Y761128D01*
X262730Y761071D01*
Y769730D01*
D02*
G37*
G36*
X358770Y763800D02*
Y756270D01*
X366300D01*
X366161Y757321D01*
X365265Y759483D01*
X363840Y761340D01*
X361983Y762765D01*
X359821Y763661D01*
X358770Y763800D01*
D02*
G37*
G36*
X356230D02*
X355179Y763661D01*
X353017Y762765D01*
X351160Y761340D01*
X349735Y759483D01*
X348839Y757321D01*
X348700Y756270D01*
X356230D01*
Y763800D01*
D02*
G37*
G36*
X571270Y761300D02*
Y753770D01*
X578800D01*
X578661Y754821D01*
X577765Y756983D01*
X576340Y758840D01*
X574483Y760265D01*
X572321Y761161D01*
X571270Y761300D01*
D02*
G37*
G36*
X568730D02*
X567679Y761161D01*
X565517Y760265D01*
X563660Y758840D01*
X562235Y756983D01*
X561339Y754821D01*
X561200Y753770D01*
X568730D01*
Y761300D01*
D02*
G37*
G36*
X233770D02*
Y753770D01*
X241299D01*
X241161Y754821D01*
X240265Y756983D01*
X238840Y758840D01*
X236983Y760265D01*
X234821Y761161D01*
X233770Y761300D01*
D02*
G37*
G36*
X231230D02*
X230179Y761161D01*
X228017Y760265D01*
X226160Y758840D01*
X224735Y756983D01*
X223839Y754821D01*
X223701Y753770D01*
X231230D01*
Y761300D01*
D02*
G37*
G36*
X366300Y753730D02*
X358770D01*
Y746200D01*
X359821Y746339D01*
X361983Y747235D01*
X363840Y748660D01*
X365265Y750517D01*
X366161Y752679D01*
X366300Y753730D01*
D02*
G37*
G36*
X356230D02*
X348700D01*
X348839Y752679D01*
X349735Y750517D01*
X351160Y748660D01*
X353017Y747235D01*
X355179Y746339D01*
X356230Y746200D01*
Y753730D01*
D02*
G37*
G36*
X509730Y750040D02*
X502460D01*
Y743770D01*
X509730D01*
Y750040D01*
D02*
G37*
G36*
X578800Y751230D02*
X571270D01*
Y743700D01*
X572321Y743839D01*
X574483Y744735D01*
X576340Y746160D01*
X577765Y748017D01*
X578661Y750179D01*
X578800Y751230D01*
D02*
G37*
G36*
X568730D02*
X561200D01*
X561339Y750179D01*
X562235Y748017D01*
X563660Y746160D01*
X565517Y744735D01*
X567679Y743839D01*
X568730Y743700D01*
Y751230D01*
D02*
G37*
G36*
X241299D02*
X233770D01*
Y743700D01*
X234821Y743839D01*
X236983Y744735D01*
X238840Y746160D01*
X240265Y748017D01*
X241161Y750179D01*
X241299Y751230D01*
D02*
G37*
G36*
X231230D02*
X223701D01*
X223839Y750179D01*
X224735Y748017D01*
X226160Y746160D01*
X228017Y744735D01*
X230179Y743839D01*
X231230Y743700D01*
Y751230D01*
D02*
G37*
G36*
X410000Y785149D02*
X405581Y784714D01*
X401333Y783425D01*
X397417Y781332D01*
X393985Y778515D01*
X391168Y775083D01*
X389075Y771167D01*
X387786Y766919D01*
X387351Y762500D01*
X387786Y758081D01*
X389075Y753833D01*
X391168Y749917D01*
X393985Y746485D01*
X397417Y743668D01*
X401333Y741575D01*
X405581Y740286D01*
X410000Y739851D01*
X414419Y740286D01*
X418667Y741575D01*
X422583Y743668D01*
X426015Y746485D01*
X428832Y749917D01*
X430925Y753833D01*
X432214Y758081D01*
X432649Y762500D01*
X432214Y766919D01*
X430925Y771167D01*
X428832Y775083D01*
X426015Y778515D01*
X422583Y781332D01*
X418667Y783425D01*
X414419Y784714D01*
X410000Y785149D01*
D02*
G37*
G36*
X37500Y782649D02*
X33081Y782214D01*
X28833Y780925D01*
X24917Y778832D01*
X21485Y776015D01*
X18668Y772583D01*
X16575Y768667D01*
X15286Y764419D01*
X14851Y760000D01*
X15286Y755581D01*
X16575Y751333D01*
X18668Y747417D01*
X21485Y743985D01*
X24917Y741168D01*
X28833Y739075D01*
X33081Y737786D01*
X37500Y737351D01*
X41919Y737786D01*
X46167Y739075D01*
X50083Y741168D01*
X53515Y743985D01*
X56332Y747417D01*
X58425Y751333D01*
X59714Y755581D01*
X60149Y760000D01*
X59714Y764419D01*
X58425Y768667D01*
X56332Y772583D01*
X53515Y776015D01*
X50083Y778832D01*
X46167Y780925D01*
X41919Y782214D01*
X37500Y782649D01*
D02*
G37*
G36*
X509730Y741230D02*
X502460D01*
Y734960D01*
X509730D01*
Y741230D01*
D02*
G37*
G36*
X301270Y723800D02*
Y716270D01*
X308799D01*
X308661Y717321D01*
X307765Y719483D01*
X306340Y721340D01*
X304483Y722765D01*
X302321Y723661D01*
X301270Y723800D01*
D02*
G37*
G36*
X298730D02*
X297679Y723661D01*
X295517Y722765D01*
X293660Y721340D01*
X292235Y719483D01*
X291339Y717321D01*
X291201Y716270D01*
X298730D01*
Y723800D01*
D02*
G37*
G36*
X373770Y716300D02*
Y708770D01*
X381300D01*
X381161Y709821D01*
X380265Y711983D01*
X378840Y713840D01*
X376983Y715265D01*
X374821Y716161D01*
X373770Y716300D01*
D02*
G37*
G36*
X371230D02*
X370179Y716161D01*
X368017Y715265D01*
X366160Y713840D01*
X364735Y711983D01*
X363839Y709821D01*
X363700Y708770D01*
X371230D01*
Y716300D01*
D02*
G37*
G36*
X308799Y713730D02*
X301270D01*
Y706200D01*
X302321Y706339D01*
X304483Y707235D01*
X306340Y708660D01*
X307765Y710517D01*
X308661Y712679D01*
X308799Y713730D01*
D02*
G37*
G36*
X298730D02*
X291201D01*
X291339Y712679D01*
X292235Y710517D01*
X293660Y708660D01*
X295517Y707235D01*
X297679Y706339D01*
X298730Y706200D01*
Y713730D01*
D02*
G37*
G36*
X381300Y706230D02*
X373770D01*
Y698700D01*
X374821Y698839D01*
X376983Y699735D01*
X378840Y701160D01*
X380265Y703017D01*
X381161Y705179D01*
X381300Y706230D01*
D02*
G37*
G36*
X371230D02*
X363700D01*
X363839Y705179D01*
X364735Y703017D01*
X366160Y701160D01*
X368017Y699735D01*
X370179Y698839D01*
X371230Y698700D01*
Y706230D01*
D02*
G37*
G36*
X536040Y750040D02*
X512270D01*
Y742500D01*
Y734960D01*
X523615D01*
Y724940D01*
X520610D01*
Y710060D01*
X523615D01*
Y709084D01*
X523911Y707598D01*
X524753Y706337D01*
X536337Y694753D01*
X537598Y693911D01*
X539084Y693615D01*
X557587D01*
X557835Y693017D01*
X559260Y691160D01*
X561117Y689735D01*
X562784Y689044D01*
X562925Y688271D01*
X562887Y687666D01*
X561160Y686340D01*
X559735Y684483D01*
X559487Y683885D01*
X529109D01*
X515785Y697209D01*
Y710060D01*
X518790D01*
Y724940D01*
X505010D01*
Y710060D01*
X508015D01*
Y695600D01*
X508311Y694113D01*
X509153Y692853D01*
X516948Y685058D01*
X516462Y683885D01*
X505109D01*
X503913Y685080D01*
X504161Y685679D01*
X504467Y688000D01*
X504161Y690321D01*
X503265Y692483D01*
X501840Y694340D01*
X499983Y695765D01*
X497821Y696661D01*
X495500Y696967D01*
X493179Y696661D01*
X491017Y695765D01*
X489160Y694340D01*
X487734Y692483D01*
X486839Y690321D01*
X486533Y688000D01*
X486839Y685679D01*
X487734Y683517D01*
X489160Y681659D01*
X491017Y680235D01*
X493179Y679339D01*
X495500Y679033D01*
X497821Y679339D01*
X498419Y679587D01*
X500753Y677253D01*
X502013Y676411D01*
X503500Y676115D01*
X559487D01*
X559735Y675517D01*
X561160Y673660D01*
X563017Y672235D01*
X565179Y671339D01*
X567500Y671033D01*
X569821Y671339D01*
X571983Y672235D01*
X573840Y673660D01*
X575265Y675517D01*
X576161Y677679D01*
X576467Y680000D01*
X576161Y682321D01*
X575265Y684483D01*
X573840Y686340D01*
X571983Y687765D01*
X570316Y688456D01*
X570175Y689230D01*
X570214Y689835D01*
X571940Y691160D01*
X573365Y693017D01*
X574261Y695179D01*
X574567Y697500D01*
X574261Y699821D01*
X573365Y701983D01*
X571940Y703840D01*
X570083Y705265D01*
X567921Y706161D01*
X565600Y706467D01*
X563279Y706161D01*
X561117Y705265D01*
X559260Y703840D01*
X557835Y701983D01*
X557587Y701385D01*
X540693D01*
X533191Y708887D01*
X533677Y710060D01*
X534390D01*
Y724940D01*
X531385D01*
Y734960D01*
X536040D01*
Y750040D01*
D02*
G37*
G36*
X108250Y700750D02*
X105631Y700405D01*
X103190Y699394D01*
X101094Y697786D01*
X99486Y695690D01*
X98475Y693249D01*
X98130Y690630D01*
X98475Y688011D01*
X99486Y685570D01*
X101094Y683474D01*
X103190Y681866D01*
X105631Y680855D01*
X108250Y680510D01*
X110869Y680855D01*
X113310Y681866D01*
X115406Y683474D01*
X117014Y685570D01*
X118025Y688011D01*
X118370Y690630D01*
X118025Y693249D01*
X117014Y695690D01*
X115406Y697786D01*
X113310Y699394D01*
X110869Y700405D01*
X108250Y700750D01*
D02*
G37*
G36*
X373770Y671300D02*
Y663770D01*
X381300D01*
X381161Y664821D01*
X380265Y666983D01*
X378840Y668840D01*
X376983Y670265D01*
X374821Y671161D01*
X373770Y671300D01*
D02*
G37*
G36*
X371230D02*
X370179Y671161D01*
X368017Y670265D01*
X366160Y668840D01*
X364735Y666983D01*
X363839Y664821D01*
X363700Y663770D01*
X371230D01*
Y671300D01*
D02*
G37*
G36*
X573770Y668800D02*
Y661270D01*
X581300D01*
X581161Y662321D01*
X580265Y664483D01*
X578840Y666340D01*
X576983Y667765D01*
X574821Y668661D01*
X573770Y668800D01*
D02*
G37*
G36*
X571230D02*
X570179Y668661D01*
X568017Y667765D01*
X566160Y666340D01*
X564735Y664483D01*
X563839Y662321D01*
X563700Y661270D01*
X571230D01*
Y668800D01*
D02*
G37*
G36*
X381300Y661230D02*
X373770D01*
Y653700D01*
X374821Y653839D01*
X376983Y654735D01*
X378840Y656160D01*
X380265Y658017D01*
X381161Y660179D01*
X381300Y661230D01*
D02*
G37*
G36*
X371230D02*
X363700D01*
X363839Y660179D01*
X364735Y658017D01*
X366160Y656160D01*
X368017Y654735D01*
X370179Y653839D01*
X371230Y653700D01*
Y661230D01*
D02*
G37*
G36*
X512230Y657540D02*
X504960D01*
Y651270D01*
X512230D01*
Y657540D01*
D02*
G37*
G36*
X581300Y658730D02*
X573770D01*
Y651200D01*
X574821Y651339D01*
X576983Y652235D01*
X578840Y653660D01*
X580265Y655517D01*
X581161Y657679D01*
X581300Y658730D01*
D02*
G37*
G36*
X571230D02*
X563700D01*
X563839Y657679D01*
X564735Y655517D01*
X566160Y653660D01*
X568017Y652235D01*
X570179Y651339D01*
X571230Y651200D01*
Y658730D01*
D02*
G37*
G36*
X512230Y648730D02*
X504960D01*
Y642460D01*
X512230D01*
Y648730D01*
D02*
G37*
G36*
X350480Y637540D02*
X343210D01*
Y631270D01*
X350480D01*
Y637540D01*
D02*
G37*
G36*
Y628730D02*
X343210D01*
Y622460D01*
X350480D01*
Y628730D01*
D02*
G37*
G36*
X338770Y618800D02*
Y611270D01*
X346300D01*
X346161Y612321D01*
X345265Y614483D01*
X343840Y616340D01*
X341983Y617765D01*
X339821Y618661D01*
X338770Y618800D01*
D02*
G37*
G36*
X336230D02*
X335179Y618661D01*
X333017Y617765D01*
X331160Y616340D01*
X329735Y614483D01*
X328839Y612321D01*
X328700Y611270D01*
X336230D01*
Y618800D01*
D02*
G37*
G36*
X255000Y622257D02*
X252966Y621990D01*
X251071Y621204D01*
X249444Y619956D01*
X248195Y618329D01*
X247411Y616434D01*
X247143Y614400D01*
X247411Y612366D01*
X248195Y610471D01*
X249444Y608844D01*
X251071Y607595D01*
X252966Y606810D01*
X255000Y606543D01*
X257034Y606810D01*
X258929Y607595D01*
X260556Y608844D01*
X261805Y610471D01*
X262589Y612366D01*
X262857Y614400D01*
X262589Y616434D01*
X261805Y618329D01*
X260556Y619956D01*
X258929Y621204D01*
X257034Y621990D01*
X255000Y622257D01*
D02*
G37*
G36*
X346380Y608730D02*
X338770D01*
Y601200D01*
X339821Y601339D01*
X341983Y602235D01*
X342071Y602302D01*
X343210Y601740D01*
Y601270D01*
X350480D01*
Y607540D01*
X347424D01*
X346380Y608730D01*
D02*
G37*
G36*
X336230D02*
X328700D01*
X328839Y607679D01*
X329735Y605517D01*
X331160Y603660D01*
X333017Y602235D01*
X335179Y601339D01*
X336230Y601200D01*
Y608730D01*
D02*
G37*
G36*
X538540Y657540D02*
X514770D01*
Y650000D01*
Y642460D01*
X526115D01*
Y634940D01*
X523110D01*
Y620060D01*
X526115D01*
Y617800D01*
X526411Y616314D01*
X527253Y615053D01*
X540053Y602253D01*
X541313Y601411D01*
X542800Y601115D01*
X562287D01*
X562535Y600517D01*
X563960Y598660D01*
X565817Y597235D01*
X567979Y596339D01*
X570300Y596033D01*
X572621Y596339D01*
X574783Y597235D01*
X576640Y598660D01*
X578065Y600517D01*
X578961Y602679D01*
X579267Y605000D01*
X578961Y607321D01*
X578065Y609483D01*
X576640Y611340D01*
X574783Y612765D01*
X572621Y613661D01*
X570300Y613967D01*
X567979Y613661D01*
X565817Y612765D01*
X563960Y611340D01*
X562535Y609483D01*
X562287Y608885D01*
X544409D01*
X534504Y618790D01*
X535030Y620060D01*
X536890D01*
Y634940D01*
X533885D01*
Y642460D01*
X538540D01*
Y657540D01*
D02*
G37*
G36*
X350480Y598730D02*
X343210D01*
Y592460D01*
X350480D01*
Y598730D01*
D02*
G37*
G36*
X191270Y598800D02*
Y591270D01*
X198799D01*
X198661Y592321D01*
X197765Y594483D01*
X196341Y596340D01*
X194483Y597765D01*
X192321Y598661D01*
X191270Y598800D01*
D02*
G37*
G36*
X188730D02*
X187679Y598661D01*
X185517Y597765D01*
X183660Y596340D01*
X182235Y594483D01*
X181339Y592321D01*
X181201Y591270D01*
X188730D01*
Y598800D01*
D02*
G37*
G36*
X521290Y634940D02*
X507510D01*
Y620060D01*
X510515D01*
Y608100D01*
X510811Y606614D01*
X511653Y605353D01*
X514087Y602919D01*
X513839Y602321D01*
X513533Y600000D01*
X513839Y597679D01*
X514735Y595517D01*
X516160Y593660D01*
X518017Y592235D01*
X520179Y591339D01*
X522500Y591033D01*
X524821Y591339D01*
X526983Y592235D01*
X528840Y593660D01*
X530265Y595517D01*
X531161Y597679D01*
X531467Y600000D01*
X531161Y602321D01*
X530265Y604483D01*
X528840Y606340D01*
X526983Y607765D01*
X524821Y608661D01*
X522500Y608967D01*
X520179Y608661D01*
X519580Y608413D01*
X518285Y609709D01*
Y620060D01*
X521290D01*
Y634940D01*
D02*
G37*
G36*
X198799Y588730D02*
X191270D01*
Y581200D01*
X192321Y581339D01*
X194483Y582235D01*
X196341Y583660D01*
X197765Y585517D01*
X198661Y587679D01*
X198799Y588730D01*
D02*
G37*
G36*
X188730D02*
X181201D01*
X181339Y587679D01*
X182235Y585517D01*
X183660Y583660D01*
X185517Y582235D01*
X187679Y581339D01*
X188730Y581200D01*
Y588730D01*
D02*
G37*
G36*
X133250Y700750D02*
X130631Y700405D01*
X128190Y699394D01*
X126094Y697786D01*
X124486Y695690D01*
X123475Y693249D01*
X123130Y690630D01*
X123475Y688011D01*
X124486Y685570D01*
X126094Y683474D01*
X128190Y681866D01*
X129365Y681379D01*
Y580288D01*
X128192Y579802D01*
X87135Y620859D01*
Y681379D01*
X88310Y681866D01*
X90406Y683474D01*
X92014Y685570D01*
X93025Y688011D01*
X93370Y690630D01*
X93025Y693249D01*
X92014Y695690D01*
X90406Y697786D01*
X88310Y699394D01*
X85869Y700405D01*
X83250Y700750D01*
X80631Y700405D01*
X78190Y699394D01*
X76094Y697786D01*
X74486Y695690D01*
X73475Y693249D01*
X73130Y690630D01*
X73475Y688011D01*
X74486Y685570D01*
X76094Y683474D01*
X78190Y681866D01*
X79365Y681379D01*
Y619250D01*
X79661Y617763D01*
X80503Y616503D01*
X132566Y564440D01*
X132111Y563100D01*
X130631Y562905D01*
X128190Y561894D01*
X126094Y560286D01*
X124486Y558190D01*
X123475Y555749D01*
X123130Y553130D01*
X123475Y550511D01*
X123962Y549336D01*
X113511Y538885D01*
X75000D01*
X73513Y538589D01*
X72253Y537747D01*
X50420Y515913D01*
X49821Y516161D01*
X47500Y516467D01*
X45179Y516161D01*
X43017Y515265D01*
X41160Y513840D01*
X39735Y511983D01*
X38839Y509821D01*
X38533Y507500D01*
X38839Y505179D01*
X39735Y503017D01*
X41160Y501160D01*
X43017Y499735D01*
X45179Y498839D01*
X47500Y498533D01*
X49821Y498839D01*
X51983Y499735D01*
X53840Y501160D01*
X55265Y503017D01*
X56161Y505179D01*
X56467Y507500D01*
X56161Y509821D01*
X55913Y510420D01*
X76609Y531115D01*
X115120D01*
X116607Y531411D01*
X117867Y532253D01*
X129456Y543842D01*
X130631Y543355D01*
X133250Y543010D01*
X135869Y543355D01*
X137044Y543842D01*
X183793Y497093D01*
X185053Y496251D01*
X186540Y495955D01*
X412053D01*
X412235Y495517D01*
X413660Y493660D01*
X415517Y492235D01*
X417679Y491339D01*
X420000Y491033D01*
X422321Y491339D01*
X424483Y492235D01*
X426340Y493660D01*
X427765Y495517D01*
X428661Y497679D01*
X428967Y500000D01*
X428661Y502321D01*
X427765Y504483D01*
X426340Y506340D01*
X424483Y507765D01*
X423767Y508062D01*
Y509437D01*
X424482Y509734D01*
X426340Y511158D01*
X427765Y513016D01*
X428660Y515178D01*
X428966Y517499D01*
X428660Y519820D01*
X427765Y521982D01*
X426340Y523839D01*
X424482Y525264D01*
X422320Y526160D01*
X419999Y526466D01*
X417678Y526160D01*
X415516Y525264D01*
X413926Y524045D01*
X297144D01*
X296340Y523885D01*
X292962D01*
X292531Y525155D01*
X293840Y526160D01*
X295265Y528017D01*
X295513Y528615D01*
X360000D01*
X361487Y528911D01*
X362747Y529753D01*
X370997Y538003D01*
X371839Y539263D01*
X372135Y540750D01*
Y542460D01*
X376790D01*
Y557540D01*
X372135D01*
Y567460D01*
X372790D01*
Y582540D01*
X368885D01*
Y592460D01*
X376790D01*
Y607540D01*
X372135D01*
Y622460D01*
X376790D01*
Y637540D01*
X376193D01*
X375707Y638713D01*
X393109Y656115D01*
X411987D01*
X412235Y655517D01*
X413660Y653660D01*
X415517Y652235D01*
X417679Y651339D01*
X420000Y651033D01*
X422321Y651339D01*
X424483Y652235D01*
X426340Y653660D01*
X427765Y655517D01*
X428661Y657679D01*
X428967Y660000D01*
X428661Y662321D01*
X427765Y664483D01*
X426340Y666340D01*
X424483Y667765D01*
X422321Y668661D01*
X420000Y668967D01*
X417679Y668661D01*
X415517Y667765D01*
X413660Y666340D01*
X412235Y664483D01*
X411987Y663885D01*
X391500D01*
X390013Y663589D01*
X388753Y662747D01*
X368250Y642244D01*
X347747Y662747D01*
X346487Y663589D01*
X345000Y663885D01*
X295513D01*
X295265Y664483D01*
X293840Y666340D01*
X291983Y667765D01*
X289821Y668661D01*
X287500Y668967D01*
X285179Y668661D01*
X283017Y667765D01*
X281160Y666340D01*
X279735Y664483D01*
X278839Y662321D01*
X278533Y660000D01*
X278839Y657679D01*
X279735Y655517D01*
X281160Y653660D01*
X283017Y652235D01*
X285179Y651339D01*
X287500Y651033D01*
X289821Y651339D01*
X291983Y652235D01*
X293840Y653660D01*
X295265Y655517D01*
X295513Y656115D01*
X343391D01*
X360793Y638713D01*
X360307Y637540D01*
X353020D01*
Y630000D01*
Y622460D01*
X364365D01*
Y607540D01*
X353020D01*
Y600000D01*
Y592460D01*
X361115D01*
Y582540D01*
X353520D01*
Y575000D01*
Y567460D01*
X364365D01*
Y557540D01*
X353020D01*
Y550000D01*
Y542460D01*
X362670D01*
X363196Y541190D01*
X358391Y536385D01*
X295513D01*
X295265Y536983D01*
X293840Y538840D01*
X291983Y540265D01*
X289821Y541161D01*
X287500Y541467D01*
X285179Y541161D01*
X283017Y540265D01*
X281160Y538840D01*
X279735Y536983D01*
X278839Y534821D01*
X278533Y532500D01*
X278839Y530179D01*
X279735Y528017D01*
X281160Y526160D01*
X282469Y525155D01*
X282038Y523885D01*
X191689D01*
X137135Y578439D01*
Y681379D01*
X138310Y681866D01*
X140406Y683474D01*
X142014Y685570D01*
X143025Y688011D01*
X143370Y690630D01*
X143025Y693249D01*
X142014Y695690D01*
X140406Y697786D01*
X138310Y699394D01*
X135869Y700405D01*
X133250Y700750D01*
D02*
G37*
G36*
X455000Y626467D02*
X452679Y626161D01*
X450517Y625265D01*
X448660Y623840D01*
X447235Y621983D01*
X446339Y619821D01*
X446033Y617500D01*
X446339Y615179D01*
X447235Y613017D01*
X448660Y611160D01*
X450517Y609735D01*
X452679Y608839D01*
X455000Y608533D01*
X457321Y608839D01*
X457920Y609087D01*
X460955Y606051D01*
Y594880D01*
X460357Y594632D01*
X458500Y593207D01*
X457075Y591350D01*
X456179Y589188D01*
X455873Y586867D01*
X456179Y584546D01*
X457075Y582384D01*
X458500Y580527D01*
X460357Y579102D01*
X462519Y578206D01*
X464840Y577900D01*
X467161Y578206D01*
X469323Y579102D01*
X471180Y580527D01*
X472605Y582384D01*
X473501Y584546D01*
X473807Y586867D01*
X473501Y589188D01*
X472605Y591350D01*
X471180Y593207D01*
X469323Y594632D01*
X468725Y594880D01*
Y607660D01*
X468429Y609147D01*
X467587Y610407D01*
X463413Y614581D01*
X463661Y615179D01*
X463967Y617500D01*
X463661Y619821D01*
X462765Y621983D01*
X461340Y623840D01*
X459483Y625265D01*
X457321Y626161D01*
X455000Y626467D01*
D02*
G37*
G36*
X350980Y582540D02*
X345210D01*
Y576270D01*
X350980D01*
Y582540D01*
D02*
G37*
G36*
X573770Y578800D02*
Y571270D01*
X581300D01*
X581161Y572321D01*
X580265Y574483D01*
X578840Y576340D01*
X576983Y577765D01*
X574821Y578661D01*
X573770Y578800D01*
D02*
G37*
G36*
X571230D02*
X570179Y578661D01*
X568017Y577765D01*
X566160Y576340D01*
X564735Y574483D01*
X563839Y572321D01*
X563700Y571270D01*
X571230D01*
Y578800D01*
D02*
G37*
G36*
X350980Y573730D02*
X345210D01*
Y567460D01*
X350980D01*
Y573730D01*
D02*
G37*
G36*
X512980Y567540D02*
X505710D01*
Y561270D01*
X512980D01*
Y567540D01*
D02*
G37*
G36*
X581300Y568730D02*
X573770D01*
Y561200D01*
X574821Y561339D01*
X576983Y562235D01*
X578840Y563660D01*
X580265Y565517D01*
X581161Y567679D01*
X581300Y568730D01*
D02*
G37*
G36*
X571230D02*
X563700D01*
X563839Y567679D01*
X564735Y565517D01*
X566160Y563660D01*
X568017Y562235D01*
X570179Y561339D01*
X571230Y561200D01*
Y568730D01*
D02*
G37*
G36*
X255000Y573457D02*
X252966Y573190D01*
X251071Y572405D01*
X249444Y571156D01*
X248195Y569529D01*
X247411Y567634D01*
X247143Y565600D01*
X247411Y563566D01*
X248195Y561671D01*
X249444Y560044D01*
X251071Y558796D01*
X252966Y558010D01*
X255000Y557743D01*
X257034Y558010D01*
X258929Y558796D01*
X260556Y560044D01*
X261805Y561671D01*
X262589Y563566D01*
X262857Y565600D01*
X262589Y567634D01*
X261805Y569529D01*
X260556Y571156D01*
X258929Y572405D01*
X257034Y573190D01*
X255000Y573457D01*
D02*
G37*
G36*
X512980Y558730D02*
X505710D01*
Y552460D01*
X512980D01*
Y558730D01*
D02*
G37*
G36*
X350480Y557540D02*
X343210D01*
Y551270D01*
X350480D01*
Y557540D01*
D02*
G37*
G36*
X83250Y563250D02*
X80631Y562905D01*
X78190Y561894D01*
X76094Y560286D01*
X74486Y558190D01*
X73475Y555749D01*
X73130Y553130D01*
X73475Y550511D01*
X74486Y548070D01*
X76094Y545974D01*
X78190Y544366D01*
X80631Y543355D01*
X83250Y543010D01*
X85869Y543355D01*
X88310Y544366D01*
X90406Y545974D01*
X92014Y548070D01*
X93025Y550511D01*
X93370Y553130D01*
X93025Y555749D01*
X92014Y558190D01*
X90406Y560286D01*
X88310Y561894D01*
X85869Y562905D01*
X83250Y563250D01*
D02*
G37*
G36*
X350480Y548730D02*
X343210D01*
Y542460D01*
X350480D01*
Y548730D01*
D02*
G37*
G36*
X521590Y542440D02*
X507810D01*
Y527560D01*
X510815D01*
Y525563D01*
X501637Y516385D01*
X498173D01*
X497925Y516983D01*
X496500Y518840D01*
X494643Y520265D01*
X492481Y521161D01*
X490160Y521467D01*
X487839Y521161D01*
X485677Y520265D01*
X483820Y518840D01*
X482395Y516983D01*
X481499Y514821D01*
X481193Y512500D01*
X481288Y511782D01*
X478391Y508885D01*
X463013D01*
X462765Y509483D01*
X461340Y511340D01*
X459483Y512765D01*
X457321Y513661D01*
X455000Y513967D01*
X452679Y513661D01*
X450517Y512765D01*
X448660Y511340D01*
X447235Y509483D01*
X446339Y507321D01*
X446033Y505000D01*
X446339Y502679D01*
X447235Y500517D01*
X448660Y498660D01*
X450517Y497235D01*
X452679Y496339D01*
X455000Y496033D01*
X457321Y496339D01*
X459483Y497235D01*
X461340Y498660D01*
X462765Y500517D01*
X463013Y501115D01*
X480000D01*
X481487Y501411D01*
X482747Y502253D01*
X485423Y504929D01*
X485677Y504735D01*
X487839Y503839D01*
X490160Y503533D01*
X492481Y503839D01*
X494643Y504735D01*
X496500Y506160D01*
X497925Y508017D01*
X498173Y508615D01*
X503246D01*
X504733Y508911D01*
X505993Y509753D01*
X517447Y521207D01*
X518289Y522467D01*
X518585Y523954D01*
Y527560D01*
X521590D01*
Y542440D01*
D02*
G37*
G36*
X539290Y567540D02*
X515520D01*
Y560000D01*
Y552460D01*
X526865D01*
Y542440D01*
X523410D01*
Y527560D01*
X526415D01*
Y522500D01*
X526711Y521013D01*
X527553Y519753D01*
X535053Y512253D01*
X536313Y511411D01*
X537800Y511115D01*
X557287D01*
X557535Y510517D01*
X558960Y508660D01*
X560817Y507235D01*
X562979Y506339D01*
X565300Y506033D01*
X567621Y506339D01*
X569783Y507235D01*
X571640Y508660D01*
X573065Y510517D01*
X573961Y512679D01*
X574267Y515000D01*
X573961Y517321D01*
X573065Y519483D01*
X571640Y521340D01*
X569783Y522765D01*
X567621Y523661D01*
X565300Y523967D01*
X562979Y523661D01*
X560817Y522765D01*
X558960Y521340D01*
X557535Y519483D01*
X557287Y518885D01*
X539409D01*
X534185Y524109D01*
Y527560D01*
X537190D01*
Y542440D01*
X534635D01*
Y552460D01*
X539290D01*
Y567540D01*
D02*
G37*
G36*
X576770Y488800D02*
Y481270D01*
X584300D01*
X584161Y482321D01*
X583265Y484483D01*
X581840Y486340D01*
X579983Y487765D01*
X577821Y488661D01*
X576770Y488800D01*
D02*
G37*
G36*
X574230D02*
X573179Y488661D01*
X571017Y487765D01*
X569160Y486340D01*
X567735Y484483D01*
X566839Y482321D01*
X566701Y481270D01*
X574230D01*
Y488800D01*
D02*
G37*
G36*
X301270Y481300D02*
Y473770D01*
X308799D01*
X308661Y474821D01*
X307765Y476983D01*
X306340Y478840D01*
X304483Y480265D01*
X302321Y481161D01*
X301270Y481300D01*
D02*
G37*
G36*
X298730D02*
X297679Y481161D01*
X295517Y480265D01*
X293660Y478840D01*
X292235Y476983D01*
X291339Y474821D01*
X291201Y473770D01*
X298730D01*
Y481300D01*
D02*
G37*
G36*
X513730Y477540D02*
X506460D01*
Y471270D01*
X513730D01*
Y477540D01*
D02*
G37*
G36*
X584300Y478730D02*
X576770D01*
Y471200D01*
X577821Y471339D01*
X579983Y472235D01*
X581840Y473660D01*
X583265Y475517D01*
X584161Y477679D01*
X584300Y478730D01*
D02*
G37*
G36*
X574230D02*
X566701D01*
X566839Y477679D01*
X567735Y475517D01*
X569160Y473660D01*
X571017Y472235D01*
X573179Y471339D01*
X574230Y471200D01*
Y478730D01*
D02*
G37*
G36*
X232500Y487107D02*
X230014Y486780D01*
X227696Y485820D01*
X225707Y484293D01*
X224180Y482304D01*
X223220Y479986D01*
X222893Y477500D01*
X223220Y475014D01*
X224180Y472696D01*
X225707Y470707D01*
X227696Y469180D01*
X230014Y468220D01*
X232500Y467893D01*
X234986Y468220D01*
X237304Y469180D01*
X239293Y470707D01*
X240820Y472696D01*
X241780Y475014D01*
X242107Y477500D01*
X241780Y479986D01*
X240820Y482304D01*
X239293Y484293D01*
X237304Y485820D01*
X234986Y486780D01*
X232500Y487107D01*
D02*
G37*
G36*
X197500D02*
X195014Y486780D01*
X192696Y485820D01*
X190707Y484293D01*
X189180Y482304D01*
X188220Y479986D01*
X187893Y477500D01*
X188220Y475014D01*
X189180Y472696D01*
X190707Y470707D01*
X192696Y469180D01*
X195014Y468220D01*
X197500Y467893D01*
X199986Y468220D01*
X202304Y469180D01*
X204293Y470707D01*
X205820Y472696D01*
X206780Y475014D01*
X207107Y477500D01*
X206780Y479986D01*
X205820Y482304D01*
X204293Y484293D01*
X202304Y485820D01*
X199986Y486780D01*
X197500Y487107D01*
D02*
G37*
G36*
X162500D02*
X160014Y486780D01*
X157696Y485820D01*
X155707Y484293D01*
X154180Y482304D01*
X153220Y479986D01*
X152893Y477500D01*
X153220Y475014D01*
X154180Y472696D01*
X155707Y470707D01*
X157696Y469180D01*
X160014Y468220D01*
X162500Y467893D01*
X164986Y468220D01*
X167304Y469180D01*
X169293Y470707D01*
X170820Y472696D01*
X171780Y475014D01*
X172107Y477500D01*
X171780Y479986D01*
X170820Y482304D01*
X169293Y484293D01*
X167304Y485820D01*
X164986Y486780D01*
X162500Y487107D01*
D02*
G37*
G36*
X127500D02*
X125014Y486780D01*
X122696Y485820D01*
X120707Y484293D01*
X119180Y482304D01*
X118220Y479986D01*
X117893Y477500D01*
X118220Y475014D01*
X119180Y472696D01*
X120707Y470707D01*
X122696Y469180D01*
X125014Y468220D01*
X127500Y467893D01*
X129986Y468220D01*
X132304Y469180D01*
X134293Y470707D01*
X135820Y472696D01*
X136780Y475014D01*
X137107Y477500D01*
X136780Y479986D01*
X135820Y482304D01*
X134293Y484293D01*
X132304Y485820D01*
X129986Y486780D01*
X127500Y487107D01*
D02*
G37*
G36*
X92500D02*
X90014Y486780D01*
X87696Y485820D01*
X85707Y484293D01*
X84180Y482304D01*
X83220Y479986D01*
X82893Y477500D01*
X83220Y475014D01*
X84180Y472696D01*
X85707Y470707D01*
X87696Y469180D01*
X90014Y468220D01*
X92500Y467893D01*
X94986Y468220D01*
X97304Y469180D01*
X99293Y470707D01*
X100820Y472696D01*
X101780Y475014D01*
X102107Y477500D01*
X101780Y479986D01*
X100820Y482304D01*
X99293Y484293D01*
X97304Y485820D01*
X94986Y486780D01*
X92500Y487107D01*
D02*
G37*
G36*
X308799Y471230D02*
X301270D01*
Y463700D01*
X302321Y463839D01*
X304483Y464735D01*
X306340Y466160D01*
X307765Y468017D01*
X308661Y470179D01*
X308799Y471230D01*
D02*
G37*
G36*
X298730D02*
X291201D01*
X291339Y470179D01*
X292235Y468017D01*
X293660Y466160D01*
X295517Y464735D01*
X297679Y463839D01*
X298730Y463700D01*
Y471230D01*
D02*
G37*
G36*
X513730Y468730D02*
X506460D01*
Y462460D01*
X513730D01*
Y468730D01*
D02*
G37*
G36*
X48770Y461300D02*
Y453770D01*
X56300D01*
X56161Y454821D01*
X55265Y456983D01*
X53840Y458840D01*
X51983Y460265D01*
X49821Y461161D01*
X48770Y461300D01*
D02*
G37*
G36*
X46230D02*
X45179Y461161D01*
X43017Y460265D01*
X41160Y458840D01*
X39735Y456983D01*
X38839Y454821D01*
X38700Y453770D01*
X46230D01*
Y461300D01*
D02*
G37*
G36*
X440000Y469607D02*
X437514Y469280D01*
X435196Y468320D01*
X433207Y466793D01*
X431680Y464804D01*
X430720Y462486D01*
X430393Y460000D01*
X430720Y457514D01*
X431680Y455196D01*
X433207Y453207D01*
X435196Y451680D01*
X437514Y450720D01*
X440000Y450393D01*
X442486Y450720D01*
X444804Y451680D01*
X446793Y453207D01*
X448320Y455196D01*
X449280Y457514D01*
X449607Y460000D01*
X449280Y462486D01*
X448320Y464804D01*
X446793Y466793D01*
X444804Y468320D01*
X442486Y469280D01*
X440000Y469607D01*
D02*
G37*
G36*
X56300Y451230D02*
X48770D01*
Y443700D01*
X49821Y443839D01*
X51983Y444735D01*
X53840Y446160D01*
X55265Y448017D01*
X56161Y450179D01*
X56300Y451230D01*
D02*
G37*
G36*
X46230D02*
X38700D01*
X38839Y450179D01*
X39735Y448017D01*
X41160Y446160D01*
X43017Y444735D01*
X45179Y443839D01*
X46230Y443700D01*
Y451230D01*
D02*
G37*
G36*
X267500Y487107D02*
X265014Y486780D01*
X262696Y485820D01*
X260707Y484293D01*
X259180Y482304D01*
X258220Y479986D01*
X257893Y477500D01*
X258220Y475014D01*
X259180Y472696D01*
X260707Y470707D01*
X262696Y469180D01*
X263615Y468799D01*
Y452500D01*
X263911Y451013D01*
X264753Y449753D01*
X279448Y435058D01*
X278962Y433885D01*
X45513D01*
X45265Y434483D01*
X43840Y436340D01*
X41983Y437765D01*
X39821Y438661D01*
X37500Y438967D01*
X35179Y438661D01*
X33017Y437765D01*
X31160Y436340D01*
X29735Y434483D01*
X28839Y432321D01*
X28533Y430000D01*
X28839Y427679D01*
X29735Y425517D01*
X31160Y423660D01*
X33017Y422235D01*
X35179Y421339D01*
X37500Y421033D01*
X39821Y421339D01*
X41983Y422235D01*
X43840Y423660D01*
X45265Y425517D01*
X45513Y426115D01*
X345000D01*
X346487Y426411D01*
X347747Y427253D01*
X354109Y433615D01*
X359487D01*
X359735Y433017D01*
X361160Y431160D01*
X363017Y429735D01*
X365179Y428839D01*
X367500Y428533D01*
X369821Y428839D01*
X371983Y429735D01*
X373840Y431160D01*
X375265Y433017D01*
X376161Y435179D01*
X376467Y437500D01*
X376161Y439821D01*
X375265Y441983D01*
X373840Y443840D01*
X371983Y445265D01*
X369821Y446161D01*
X367500Y446467D01*
X365179Y446161D01*
X363017Y445265D01*
X361160Y443840D01*
X359735Y441983D01*
X359487Y441385D01*
X352500D01*
X351013Y441089D01*
X349753Y440247D01*
X343391Y433885D01*
X291609D01*
X271385Y454109D01*
Y468799D01*
X272304Y469180D01*
X274293Y470707D01*
X275820Y472696D01*
X276780Y475014D01*
X277107Y477500D01*
X276780Y479986D01*
X275820Y482304D01*
X274293Y484293D01*
X272304Y485820D01*
X269986Y486780D01*
X267500Y487107D01*
D02*
G37*
G36*
X387500Y446467D02*
X385179Y446161D01*
X383017Y445265D01*
X381160Y443840D01*
X379735Y441983D01*
X378839Y439821D01*
X378533Y437500D01*
X378839Y435179D01*
X379087Y434581D01*
X360891Y416385D01*
X255513D01*
X255265Y416983D01*
X253840Y418840D01*
X251983Y420265D01*
X249821Y421161D01*
X247500Y421467D01*
X245179Y421161D01*
X243017Y420265D01*
X241160Y418840D01*
X239735Y416983D01*
X238839Y414821D01*
X238533Y412500D01*
X238839Y410179D01*
X239735Y408017D01*
X241160Y406160D01*
X243017Y404735D01*
X245179Y403839D01*
X247500Y403533D01*
X249821Y403839D01*
X251983Y404735D01*
X253840Y406160D01*
X255265Y408017D01*
X255513Y408615D01*
X362500D01*
X363987Y408911D01*
X365247Y409753D01*
X384580Y429087D01*
X385179Y428839D01*
X387500Y428533D01*
X389821Y428839D01*
X391983Y429735D01*
X393840Y431160D01*
X395265Y433017D01*
X396161Y435179D01*
X396467Y437500D01*
X396161Y439821D01*
X395265Y441983D01*
X393840Y443840D01*
X391983Y445265D01*
X389821Y446161D01*
X387500Y446467D01*
D02*
G37*
G36*
X524090Y452440D02*
X510310D01*
Y437560D01*
X513315D01*
Y435563D01*
X504137Y426385D01*
X498013D01*
X497765Y426983D01*
X496340Y428840D01*
X494483Y430265D01*
X492321Y431161D01*
X490000Y431467D01*
X487679Y431161D01*
X485517Y430265D01*
X483660Y428840D01*
X482235Y426983D01*
X481339Y424821D01*
X481033Y422500D01*
X481339Y420179D01*
X482235Y418017D01*
X483660Y416160D01*
X485517Y414735D01*
X487679Y413839D01*
X490000Y413533D01*
X492321Y413839D01*
X494483Y414735D01*
X496340Y416160D01*
X497765Y418017D01*
X498013Y418615D01*
X505746D01*
X507233Y418911D01*
X508493Y419753D01*
X519947Y431207D01*
X520789Y432467D01*
X521085Y433954D01*
Y437560D01*
X524090D01*
Y452440D01*
D02*
G37*
G36*
X540040Y477540D02*
X516270D01*
Y470000D01*
Y462460D01*
X528915D01*
Y452440D01*
X525910D01*
Y437560D01*
X528915D01*
Y432200D01*
X529211Y430713D01*
X530053Y429453D01*
X539753Y419753D01*
X541013Y418911D01*
X542500Y418615D01*
X561987D01*
X562235Y418017D01*
X563660Y416160D01*
X565517Y414735D01*
X567679Y413839D01*
X570000Y413533D01*
X572321Y413839D01*
X574483Y414735D01*
X576340Y416160D01*
X577765Y418017D01*
X578661Y420179D01*
X578967Y422500D01*
X578661Y424821D01*
X577765Y426983D01*
X576340Y428840D01*
X574483Y430265D01*
X572321Y431161D01*
X570000Y431467D01*
X567679Y431161D01*
X565517Y430265D01*
X563660Y428840D01*
X562235Y426983D01*
X561987Y426385D01*
X544109D01*
X536685Y433809D01*
Y437560D01*
X539690D01*
Y452440D01*
X536685D01*
Y462460D01*
X540040D01*
Y477540D01*
D02*
G37*
G36*
X576770Y393800D02*
Y386270D01*
X584300D01*
X584161Y387321D01*
X583265Y389483D01*
X581840Y391340D01*
X579983Y392765D01*
X577821Y393661D01*
X576770Y393800D01*
D02*
G37*
G36*
X574230D02*
X573179Y393661D01*
X571017Y392765D01*
X569160Y391340D01*
X567735Y389483D01*
X566839Y387321D01*
X566701Y386270D01*
X574230D01*
Y393800D01*
D02*
G37*
G36*
X398700Y406957D02*
X395165Y406492D01*
X391872Y405127D01*
X389043Y402957D01*
X386873Y400128D01*
X385508Y396835D01*
X385043Y393300D01*
X385508Y389765D01*
X386873Y386472D01*
X389043Y383643D01*
X391872Y381473D01*
X395165Y380108D01*
X398700Y379643D01*
X402235Y380108D01*
X405528Y381473D01*
X408357Y383643D01*
X410527Y386472D01*
X411892Y389765D01*
X412357Y393300D01*
X411892Y396835D01*
X410527Y400128D01*
X408357Y402957D01*
X405528Y405127D01*
X402235Y406492D01*
X398700Y406957D01*
D02*
G37*
G36*
X180400D02*
X176865Y406492D01*
X173572Y405127D01*
X170743Y402957D01*
X168573Y400128D01*
X167208Y396835D01*
X166743Y393300D01*
X167208Y389765D01*
X168573Y386472D01*
X170743Y383643D01*
X173572Y381473D01*
X176865Y380108D01*
X180400Y379643D01*
X183935Y380108D01*
X187228Y381473D01*
X190057Y383643D01*
X192227Y386472D01*
X193591Y389765D01*
X194057Y393300D01*
X193591Y396835D01*
X192227Y400128D01*
X190057Y402957D01*
X187228Y405127D01*
X183935Y406492D01*
X180400Y406957D01*
D02*
G37*
G36*
X517230Y382540D02*
X509960D01*
Y376270D01*
X517230D01*
Y382540D01*
D02*
G37*
G36*
X584300Y383730D02*
X576770D01*
Y376200D01*
X577821Y376339D01*
X579983Y377235D01*
X581840Y378660D01*
X583265Y380517D01*
X584161Y382679D01*
X584300Y383730D01*
D02*
G37*
G36*
X574230D02*
X566701D01*
X566839Y382679D01*
X567735Y380517D01*
X569160Y378660D01*
X571017Y377235D01*
X573179Y376339D01*
X574230Y376200D01*
Y383730D01*
D02*
G37*
G36*
X335200Y381557D02*
X331665Y381091D01*
X328372Y379727D01*
X325543Y377557D01*
X323373Y374728D01*
X322154Y371785D01*
X129946D01*
X128727Y374728D01*
X126557Y377557D01*
X123728Y379727D01*
X120435Y381091D01*
X116900Y381557D01*
X113365Y381091D01*
X110072Y379727D01*
X107243Y377557D01*
X105073Y374728D01*
X103708Y371435D01*
X103243Y367900D01*
X103708Y364365D01*
X105073Y361072D01*
X107243Y358243D01*
X110072Y356073D01*
X113365Y354709D01*
X116900Y354243D01*
X120435Y354709D01*
X123728Y356073D01*
X126557Y358243D01*
X128727Y361072D01*
X129946Y364015D01*
X144743D01*
X145061Y362745D01*
X142417Y361332D01*
X138985Y358515D01*
X136168Y355083D01*
X134075Y351167D01*
X132786Y346919D01*
X132351Y342500D01*
X132786Y338081D01*
X134075Y333833D01*
X136168Y329917D01*
X138985Y326485D01*
X142417Y323668D01*
X146333Y321575D01*
X150581Y320286D01*
X155000Y319851D01*
X159419Y320286D01*
X163667Y321575D01*
X167583Y323668D01*
X171015Y326485D01*
X173832Y329917D01*
X175925Y333833D01*
X177214Y338081D01*
X177649Y342500D01*
X177214Y346919D01*
X175925Y351167D01*
X173832Y355083D01*
X171015Y358515D01*
X167583Y361332D01*
X164939Y362745D01*
X165257Y364015D01*
X322154D01*
X323373Y361072D01*
X325543Y358243D01*
X328372Y356073D01*
X331665Y354709D01*
X335200Y354243D01*
X338735Y354709D01*
X342028Y356073D01*
X344857Y358243D01*
X347027Y361072D01*
X348391Y364365D01*
X348857Y367900D01*
X348391Y371435D01*
X347027Y374728D01*
X344857Y377557D01*
X342028Y379727D01*
X338735Y381091D01*
X335200Y381557D01*
D02*
G37*
G36*
X517230Y373730D02*
X509960D01*
Y367460D01*
X517230D01*
Y373730D01*
D02*
G37*
G36*
X526290Y357440D02*
X512510D01*
Y342560D01*
X515515D01*
Y340563D01*
X506337Y331385D01*
X500213D01*
X499965Y331983D01*
X498540Y333840D01*
X496683Y335265D01*
X494521Y336161D01*
X492200Y336467D01*
X489879Y336161D01*
X487717Y335265D01*
X485860Y333840D01*
X484435Y331983D01*
X483539Y329821D01*
X483233Y327500D01*
X483539Y325179D01*
X484435Y323017D01*
X485860Y321160D01*
X487717Y319735D01*
X489879Y318839D01*
X492200Y318533D01*
X494521Y318839D01*
X496683Y319735D01*
X498540Y321160D01*
X499965Y323017D01*
X500213Y323615D01*
X507946D01*
X509432Y323911D01*
X510693Y324753D01*
X522147Y336207D01*
X522989Y337467D01*
X523285Y338954D01*
Y342560D01*
X526290D01*
Y357440D01*
D02*
G37*
G36*
X424100Y353635D02*
X421218Y353256D01*
X418532Y352143D01*
X416226Y350374D01*
X414457Y348068D01*
X413344Y345382D01*
X412965Y342500D01*
X413344Y339618D01*
X414457Y336932D01*
X416226Y334626D01*
X418532Y332857D01*
X421218Y331744D01*
X424100Y331365D01*
X426982Y331744D01*
X429668Y332857D01*
X431974Y334626D01*
X433743Y336932D01*
X434856Y339618D01*
X435235Y342500D01*
X434856Y345382D01*
X433743Y348068D01*
X431974Y350374D01*
X429668Y352143D01*
X426982Y353256D01*
X424100Y353635D01*
D02*
G37*
G36*
X322500D02*
X319618Y353256D01*
X316932Y352143D01*
X314626Y350374D01*
X312857Y348068D01*
X311744Y345382D01*
X311365Y342500D01*
X311744Y339618D01*
X312857Y336932D01*
X314626Y334626D01*
X316932Y332857D01*
X319618Y331744D01*
X322500Y331365D01*
X325382Y331744D01*
X328068Y332857D01*
X330374Y334626D01*
X332143Y336932D01*
X333256Y339618D01*
X333635Y342500D01*
X333256Y345382D01*
X332143Y348068D01*
X330374Y350374D01*
X328068Y352143D01*
X325382Y353256D01*
X322500Y353635D01*
D02*
G37*
G36*
X205800D02*
X202918Y353256D01*
X200232Y352143D01*
X197926Y350374D01*
X196157Y348068D01*
X195044Y345382D01*
X194665Y342500D01*
X195044Y339618D01*
X196157Y336932D01*
X197926Y334626D01*
X200232Y332857D01*
X202918Y331744D01*
X205800Y331365D01*
X208682Y331744D01*
X211368Y332857D01*
X213674Y334626D01*
X215443Y336932D01*
X216556Y339618D01*
X216935Y342500D01*
X216556Y345382D01*
X215443Y348068D01*
X213674Y350374D01*
X211368Y352143D01*
X208682Y353256D01*
X205800Y353635D01*
D02*
G37*
G36*
X104200D02*
X101318Y353256D01*
X98632Y352143D01*
X96326Y350374D01*
X94557Y348068D01*
X93444Y345382D01*
X93065Y342500D01*
X93444Y339618D01*
X94557Y336932D01*
X96326Y334626D01*
X98632Y332857D01*
X101318Y331744D01*
X104200Y331365D01*
X107082Y331744D01*
X109768Y332857D01*
X112074Y334626D01*
X113843Y336932D01*
X114956Y339618D01*
X115335Y342500D01*
X114956Y345382D01*
X113843Y348068D01*
X112074Y350374D01*
X109768Y352143D01*
X107082Y353256D01*
X104200Y353635D01*
D02*
G37*
G36*
X543540Y382540D02*
X519770D01*
Y375000D01*
Y367460D01*
X531115D01*
Y357440D01*
X528110D01*
Y342560D01*
X531115D01*
Y337500D01*
X531411Y336013D01*
X532253Y334753D01*
X539753Y327253D01*
X541013Y326411D01*
X542500Y326115D01*
X561987D01*
X562235Y325517D01*
X563660Y323660D01*
X565517Y322235D01*
X567679Y321339D01*
X570000Y321033D01*
X572321Y321339D01*
X574483Y322235D01*
X576340Y323660D01*
X577765Y325517D01*
X578661Y327679D01*
X578967Y330000D01*
X578661Y332321D01*
X577765Y334483D01*
X576340Y336340D01*
X574483Y337765D01*
X572321Y338661D01*
X570000Y338967D01*
X567679Y338661D01*
X565517Y337765D01*
X563660Y336340D01*
X562235Y334483D01*
X561987Y333885D01*
X544109D01*
X538885Y339109D01*
Y342560D01*
X541890D01*
Y357440D01*
X538885D01*
Y367460D01*
X543540D01*
Y382540D01*
D02*
G37*
G36*
X373300Y365149D02*
X368881Y364714D01*
X364633Y363425D01*
X360717Y361332D01*
X357285Y358515D01*
X354468Y355083D01*
X352375Y351167D01*
X351086Y346919D01*
X350651Y342500D01*
X351086Y338081D01*
X352375Y333833D01*
X354468Y329917D01*
X357285Y326485D01*
X360717Y323668D01*
X364633Y321575D01*
X368881Y320286D01*
X373300Y319851D01*
X377719Y320286D01*
X381967Y321575D01*
X385883Y323668D01*
X389315Y326485D01*
X392132Y329917D01*
X394225Y333833D01*
X395514Y338081D01*
X395949Y342500D01*
X395514Y346919D01*
X394225Y351167D01*
X392132Y355083D01*
X389315Y358515D01*
X385883Y361332D01*
X381967Y363425D01*
X377719Y364714D01*
X373300Y365149D01*
D02*
G37*
G36*
X576270Y301299D02*
Y293770D01*
X583800D01*
X583661Y294821D01*
X582765Y296983D01*
X581340Y298840D01*
X579483Y300265D01*
X577321Y301161D01*
X576270Y301299D01*
D02*
G37*
G36*
X573730D02*
X572679Y301161D01*
X570517Y300265D01*
X568660Y298840D01*
X567235Y296983D01*
X566339Y294821D01*
X566200Y293770D01*
X573730D01*
Y301299D01*
D02*
G37*
G36*
X517230Y290040D02*
X509960D01*
Y283770D01*
X517230D01*
Y290040D01*
D02*
G37*
G36*
X583800Y291230D02*
X576270D01*
Y283701D01*
X577321Y283839D01*
X579483Y284735D01*
X581340Y286160D01*
X582765Y288017D01*
X583661Y290179D01*
X583800Y291230D01*
D02*
G37*
G36*
X573730D02*
X566200D01*
X566339Y290179D01*
X567235Y288017D01*
X568660Y286160D01*
X570517Y284735D01*
X572679Y283839D01*
X573730Y283701D01*
Y291230D01*
D02*
G37*
G36*
X411400Y301827D02*
X408779Y301482D01*
X406337Y300470D01*
X404239Y298861D01*
X402630Y296763D01*
X401618Y294321D01*
X401273Y291700D01*
X401618Y289079D01*
X402630Y286637D01*
X404239Y284539D01*
X406337Y282930D01*
X408779Y281918D01*
X411400Y281573D01*
X414021Y281918D01*
X416463Y282930D01*
X418561Y284539D01*
X420170Y286637D01*
X421182Y289079D01*
X421527Y291700D01*
X421182Y294321D01*
X420170Y296763D01*
X418561Y298861D01*
X416463Y300470D01*
X414021Y301482D01*
X411400Y301827D01*
D02*
G37*
G36*
X386000D02*
X383379Y301482D01*
X380937Y300470D01*
X378839Y298861D01*
X377230Y296763D01*
X376218Y294321D01*
X375873Y291700D01*
X376218Y289079D01*
X377230Y286637D01*
X378839Y284539D01*
X380937Y282930D01*
X383379Y281918D01*
X386000Y281573D01*
X388621Y281918D01*
X391063Y282930D01*
X393161Y284539D01*
X394770Y286637D01*
X395782Y289079D01*
X396127Y291700D01*
X395782Y294321D01*
X394770Y296763D01*
X393161Y298861D01*
X391063Y300470D01*
X388621Y301482D01*
X386000Y301827D01*
D02*
G37*
G36*
X360600D02*
X357979Y301482D01*
X355537Y300470D01*
X353439Y298861D01*
X351830Y296763D01*
X350818Y294321D01*
X350473Y291700D01*
X350818Y289079D01*
X351830Y286637D01*
X353439Y284539D01*
X355537Y282930D01*
X357979Y281918D01*
X360600Y281573D01*
X363221Y281918D01*
X365663Y282930D01*
X367761Y284539D01*
X369370Y286637D01*
X370382Y289079D01*
X370727Y291700D01*
X370382Y294321D01*
X369370Y296763D01*
X367761Y298861D01*
X365663Y300470D01*
X363221Y301482D01*
X360600Y301827D01*
D02*
G37*
G36*
X335200D02*
X332579Y301482D01*
X330137Y300470D01*
X328039Y298861D01*
X326430Y296763D01*
X325418Y294321D01*
X325073Y291700D01*
X325418Y289079D01*
X326430Y286637D01*
X328039Y284539D01*
X330137Y282930D01*
X332579Y281918D01*
X335200Y281573D01*
X337821Y281918D01*
X340263Y282930D01*
X342361Y284539D01*
X343970Y286637D01*
X344982Y289079D01*
X345327Y291700D01*
X344982Y294321D01*
X343970Y296763D01*
X342361Y298861D01*
X340263Y300470D01*
X337821Y301482D01*
X335200Y301827D01*
D02*
G37*
G36*
X193100D02*
X190479Y301482D01*
X188037Y300470D01*
X185939Y298861D01*
X184330Y296763D01*
X183318Y294321D01*
X182973Y291700D01*
X183318Y289079D01*
X184330Y286637D01*
X185939Y284539D01*
X188037Y282930D01*
X190479Y281918D01*
X193100Y281573D01*
X195721Y281918D01*
X198163Y282930D01*
X200261Y284539D01*
X201870Y286637D01*
X202882Y289079D01*
X203227Y291700D01*
X202882Y294321D01*
X201870Y296763D01*
X200261Y298861D01*
X198163Y300470D01*
X195721Y301482D01*
X193100Y301827D01*
D02*
G37*
G36*
X167700D02*
X165079Y301482D01*
X162637Y300470D01*
X160539Y298861D01*
X158930Y296763D01*
X157918Y294321D01*
X157573Y291700D01*
X157918Y289079D01*
X158930Y286637D01*
X160539Y284539D01*
X162637Y282930D01*
X165079Y281918D01*
X167700Y281573D01*
X170321Y281918D01*
X172763Y282930D01*
X174861Y284539D01*
X176470Y286637D01*
X177481Y289079D01*
X177827Y291700D01*
X177481Y294321D01*
X176470Y296763D01*
X174861Y298861D01*
X172763Y300470D01*
X170321Y301482D01*
X167700Y301827D01*
D02*
G37*
G36*
X142300D02*
X139679Y301482D01*
X137237Y300470D01*
X135139Y298861D01*
X133530Y296763D01*
X132518Y294321D01*
X132173Y291700D01*
X132518Y289079D01*
X133530Y286637D01*
X135139Y284539D01*
X137237Y282930D01*
X139679Y281918D01*
X142300Y281573D01*
X144921Y281918D01*
X147363Y282930D01*
X149461Y284539D01*
X151070Y286637D01*
X152081Y289079D01*
X152427Y291700D01*
X152081Y294321D01*
X151070Y296763D01*
X149461Y298861D01*
X147363Y300470D01*
X144921Y301482D01*
X142300Y301827D01*
D02*
G37*
G36*
X116900D02*
X114279Y301482D01*
X111837Y300470D01*
X109739Y298861D01*
X108130Y296763D01*
X107118Y294321D01*
X106773Y291700D01*
X107118Y289079D01*
X108130Y286637D01*
X109739Y284539D01*
X111837Y282930D01*
X114279Y281918D01*
X116900Y281573D01*
X119521Y281918D01*
X121963Y282930D01*
X124061Y284539D01*
X125670Y286637D01*
X126681Y289079D01*
X127027Y291700D01*
X126681Y294321D01*
X125670Y296763D01*
X124061Y298861D01*
X121963Y300470D01*
X119521Y301482D01*
X116900Y301827D01*
D02*
G37*
G36*
X517230Y281230D02*
X509960D01*
Y274960D01*
X517230D01*
Y281230D01*
D02*
G37*
G36*
X526590Y267440D02*
X512810D01*
Y252560D01*
X515815D01*
Y250563D01*
X506637Y241385D01*
X500513D01*
X500265Y241983D01*
X498840Y243840D01*
X496983Y245265D01*
X494821Y246161D01*
X492500Y246467D01*
X490179Y246161D01*
X488017Y245265D01*
X486160Y243840D01*
X484735Y241983D01*
X483839Y239821D01*
X483533Y237500D01*
X483839Y235179D01*
X484735Y233017D01*
X486160Y231159D01*
X488017Y229735D01*
X490179Y228839D01*
X492500Y228533D01*
X494821Y228839D01*
X496983Y229735D01*
X498840Y231159D01*
X500265Y233017D01*
X500513Y233615D01*
X508246D01*
X509733Y233911D01*
X510993Y234753D01*
X522447Y246207D01*
X523289Y247467D01*
X523585Y248954D01*
Y252560D01*
X526590D01*
Y267440D01*
D02*
G37*
G36*
X543540Y290040D02*
X519770D01*
Y282500D01*
Y274960D01*
X531415D01*
Y267440D01*
X528410D01*
Y252560D01*
X531415D01*
Y240000D01*
X531711Y238513D01*
X532553Y237253D01*
X537553Y232253D01*
X538813Y231411D01*
X540300Y231115D01*
X559787D01*
X560035Y230517D01*
X561460Y228660D01*
X563317Y227235D01*
X565479Y226339D01*
X567800Y226033D01*
X570121Y226339D01*
X572283Y227235D01*
X574140Y228660D01*
X575565Y230517D01*
X576461Y232679D01*
X576767Y235000D01*
X576461Y237321D01*
X575565Y239483D01*
X574140Y241340D01*
X572283Y242765D01*
X570121Y243661D01*
X567800Y243967D01*
X565479Y243661D01*
X563317Y242765D01*
X561460Y241340D01*
X560035Y239483D01*
X559787Y238885D01*
X541909D01*
X539185Y241609D01*
Y252560D01*
X542190D01*
Y267440D01*
X539185D01*
Y274960D01*
X543540D01*
Y290040D01*
D02*
G37*
G36*
X450000Y252649D02*
X445581Y252214D01*
X441333Y250925D01*
X437417Y248832D01*
X433985Y246015D01*
X431168Y242583D01*
X429075Y238667D01*
X427786Y234419D01*
X427351Y230000D01*
X427786Y225581D01*
X429075Y221333D01*
X431168Y217417D01*
X433985Y213985D01*
X437417Y211168D01*
X441333Y209075D01*
X445581Y207786D01*
X450000Y207351D01*
X454419Y207786D01*
X458667Y209075D01*
X462583Y211168D01*
X466015Y213985D01*
X468832Y217417D01*
X470925Y221333D01*
X472214Y225581D01*
X472649Y230000D01*
X472214Y234419D01*
X470925Y238667D01*
X468832Y242583D01*
X466015Y246015D01*
X462583Y248832D01*
X458667Y250925D01*
X454419Y252214D01*
X450000Y252649D01*
D02*
G37*
G36*
X576270Y201299D02*
Y193770D01*
X583800D01*
X583661Y194821D01*
X582765Y196983D01*
X581340Y198840D01*
X579483Y200265D01*
X577321Y201161D01*
X576270Y201299D01*
D02*
G37*
G36*
X573730D02*
X572679Y201161D01*
X570517Y200265D01*
X568660Y198840D01*
X567235Y196983D01*
X566339Y194821D01*
X566200Y193770D01*
X573730D01*
Y201299D01*
D02*
G37*
G36*
X514730Y190040D02*
X507460D01*
Y183770D01*
X514730D01*
Y190040D01*
D02*
G37*
G36*
X583800Y191230D02*
X576270D01*
Y183701D01*
X577321Y183839D01*
X579483Y184735D01*
X581340Y186160D01*
X582765Y188017D01*
X583661Y190179D01*
X583800Y191230D01*
D02*
G37*
G36*
X573730D02*
X566200D01*
X566339Y190179D01*
X567235Y188017D01*
X568660Y186160D01*
X570517Y184735D01*
X572679Y183839D01*
X573730Y183701D01*
Y191230D01*
D02*
G37*
G36*
X514730Y181230D02*
X507460D01*
Y174960D01*
X514730D01*
Y181230D01*
D02*
G37*
G36*
X398500Y181557D02*
X394965Y181091D01*
X391672Y179727D01*
X388843Y177557D01*
X386673Y174728D01*
X385308Y171435D01*
X384843Y167900D01*
X385308Y164365D01*
X386673Y161072D01*
X388843Y158243D01*
X391672Y156073D01*
X394965Y154708D01*
X398500Y154243D01*
X402035Y154708D01*
X405328Y156073D01*
X408157Y158243D01*
X410327Y161072D01*
X411692Y164365D01*
X412157Y167900D01*
X411692Y171435D01*
X410327Y174728D01*
X408157Y177557D01*
X405328Y179727D01*
X402035Y181091D01*
X398500Y181557D01*
D02*
G37*
G36*
X180000Y181157D02*
X176465Y180692D01*
X173172Y179327D01*
X170343Y177157D01*
X168173Y174328D01*
X166808Y171035D01*
X166343Y167500D01*
X166808Y163965D01*
X168173Y160672D01*
X170343Y157843D01*
X173172Y155673D01*
X176465Y154309D01*
X180000Y153843D01*
X183535Y154309D01*
X186828Y155673D01*
X189657Y157843D01*
X191827Y160672D01*
X193192Y163965D01*
X193657Y167500D01*
X193192Y171035D01*
X191827Y174328D01*
X189657Y177157D01*
X186828Y179327D01*
X183535Y180692D01*
X180000Y181157D01*
D02*
G37*
G36*
X524090Y164940D02*
X510310D01*
Y150060D01*
X513315D01*
Y148063D01*
X504137Y138885D01*
X498013D01*
X497765Y139483D01*
X496340Y141340D01*
X494483Y142765D01*
X492321Y143661D01*
X490000Y143967D01*
X487679Y143661D01*
X485517Y142765D01*
X483660Y141340D01*
X482235Y139483D01*
X481339Y137321D01*
X481033Y135000D01*
X481339Y132679D01*
X482235Y130517D01*
X483660Y128660D01*
X485517Y127235D01*
X487679Y126339D01*
X490000Y126033D01*
X492321Y126339D01*
X494483Y127235D01*
X496340Y128660D01*
X497765Y130517D01*
X498013Y131115D01*
X505746D01*
X507233Y131411D01*
X508493Y132253D01*
X519947Y143707D01*
X520789Y144967D01*
X521085Y146454D01*
Y150060D01*
X524090D01*
Y164940D01*
D02*
G37*
G36*
X117500Y239607D02*
X115014Y239280D01*
X112696Y238320D01*
X110707Y236793D01*
X109180Y234804D01*
X108220Y232486D01*
X107893Y230000D01*
X108220Y227514D01*
X109180Y225196D01*
X110707Y223207D01*
X112696Y221680D01*
X113115Y221506D01*
Y155311D01*
X112965Y155292D01*
X109672Y153927D01*
X106843Y151757D01*
X104673Y148928D01*
X103308Y145635D01*
X102843Y142100D01*
X103308Y138565D01*
X104673Y135272D01*
X106843Y132443D01*
X109672Y130273D01*
X112965Y128909D01*
X116500Y128443D01*
X120035Y128909D01*
X123328Y130273D01*
X126157Y132443D01*
X128327Y135272D01*
X129629Y138415D01*
X144717D01*
X145035Y137145D01*
X142017Y135532D01*
X138585Y132715D01*
X135768Y129283D01*
X133675Y125367D01*
X132386Y121119D01*
X131951Y116700D01*
X132386Y112281D01*
X133675Y108033D01*
X135768Y104117D01*
X138585Y100685D01*
X142017Y97868D01*
X145933Y95775D01*
X150181Y94486D01*
X154600Y94051D01*
X159019Y94486D01*
X163267Y95775D01*
X167183Y97868D01*
X170615Y100685D01*
X173432Y104117D01*
X175525Y108033D01*
X176814Y112281D01*
X177249Y116700D01*
X176814Y121119D01*
X175525Y125367D01*
X173432Y129283D01*
X170615Y132715D01*
X167183Y135532D01*
X164165Y137145D01*
X164483Y138415D01*
X322036D01*
X323173Y135672D01*
X325343Y132843D01*
X328172Y130673D01*
X331465Y129309D01*
X335000Y128843D01*
X338535Y129309D01*
X341828Y130673D01*
X344657Y132843D01*
X346827Y135672D01*
X348191Y138965D01*
X348657Y142500D01*
X348191Y146035D01*
X346827Y149328D01*
X344657Y152157D01*
X341828Y154327D01*
X338535Y155691D01*
X335000Y156157D01*
X331465Y155691D01*
X328172Y154327D01*
X325343Y152157D01*
X323173Y149328D01*
X321871Y146185D01*
X129464D01*
X128327Y148928D01*
X126157Y151757D01*
X123328Y153927D01*
X120885Y154939D01*
Y221092D01*
X122304Y221680D01*
X124293Y223207D01*
X125820Y225196D01*
X126780Y227514D01*
X127107Y230000D01*
X126780Y232486D01*
X125820Y234804D01*
X124293Y236793D01*
X122304Y238320D01*
X119986Y239280D01*
X117500Y239607D01*
D02*
G37*
G36*
X541040Y190040D02*
X517270D01*
Y182500D01*
Y174960D01*
X528615D01*
Y164940D01*
X525910D01*
Y150060D01*
X528915D01*
Y145000D01*
X529211Y143513D01*
X530053Y142253D01*
X537553Y134753D01*
X538813Y133911D01*
X540300Y133615D01*
X559787D01*
X560035Y133017D01*
X561460Y131160D01*
X563317Y129735D01*
X565479Y128839D01*
X567800Y128533D01*
X570121Y128839D01*
X572283Y129735D01*
X574140Y131160D01*
X575565Y133017D01*
X576461Y135179D01*
X576767Y137500D01*
X576461Y139821D01*
X575565Y141983D01*
X574140Y143841D01*
X572283Y145265D01*
X570121Y146161D01*
X567800Y146467D01*
X565479Y146161D01*
X563317Y145265D01*
X561460Y143841D01*
X560035Y141983D01*
X559787Y141385D01*
X541909D01*
X536685Y146609D01*
Y150060D01*
X539690D01*
Y164940D01*
X536385D01*
Y174960D01*
X541040D01*
Y190040D01*
D02*
G37*
G36*
X423900Y128235D02*
X421018Y127856D01*
X418332Y126743D01*
X416026Y124974D01*
X414257Y122668D01*
X413144Y119982D01*
X412765Y117100D01*
X413144Y114218D01*
X414257Y111532D01*
X416026Y109226D01*
X418332Y107457D01*
X421018Y106344D01*
X423900Y105965D01*
X426782Y106344D01*
X429468Y107457D01*
X431774Y109226D01*
X433543Y111532D01*
X434656Y114218D01*
X435035Y117100D01*
X434656Y119982D01*
X433543Y122668D01*
X431774Y124974D01*
X429468Y126743D01*
X426782Y127856D01*
X423900Y128235D01*
D02*
G37*
G36*
X322300D02*
X319418Y127856D01*
X316732Y126743D01*
X314426Y124974D01*
X312657Y122668D01*
X311544Y119982D01*
X311165Y117100D01*
X311544Y114218D01*
X312657Y111532D01*
X314426Y109226D01*
X316732Y107457D01*
X319418Y106344D01*
X322300Y105965D01*
X325182Y106344D01*
X327868Y107457D01*
X330174Y109226D01*
X331943Y111532D01*
X333056Y114218D01*
X333435Y117100D01*
X333056Y119982D01*
X331943Y122668D01*
X330174Y124974D01*
X327868Y126743D01*
X325182Y127856D01*
X322300Y128235D01*
D02*
G37*
G36*
X205400Y127835D02*
X202518Y127456D01*
X199832Y126343D01*
X197526Y124574D01*
X195757Y122268D01*
X194644Y119582D01*
X194265Y116700D01*
X194644Y113818D01*
X195757Y111132D01*
X197526Y108826D01*
X199832Y107057D01*
X202518Y105944D01*
X205400Y105565D01*
X208282Y105944D01*
X210968Y107057D01*
X213274Y108826D01*
X215043Y111132D01*
X216156Y113818D01*
X216535Y116700D01*
X216156Y119582D01*
X215043Y122268D01*
X213274Y124574D01*
X210968Y126343D01*
X208282Y127456D01*
X205400Y127835D01*
D02*
G37*
G36*
X103800D02*
X100918Y127456D01*
X98232Y126343D01*
X95926Y124574D01*
X94157Y122268D01*
X93044Y119582D01*
X92665Y116700D01*
X93044Y113818D01*
X94157Y111132D01*
X95926Y108826D01*
X98232Y107057D01*
X100918Y105944D01*
X103800Y105565D01*
X106682Y105944D01*
X109368Y107057D01*
X111674Y108826D01*
X113443Y111132D01*
X114556Y113818D01*
X114935Y116700D01*
X114556Y119582D01*
X113443Y122268D01*
X111674Y124574D01*
X109368Y126343D01*
X106682Y127456D01*
X103800Y127835D01*
D02*
G37*
G36*
X576270Y106299D02*
Y98770D01*
X583800D01*
X583661Y99821D01*
X582765Y101983D01*
X581340Y103840D01*
X579483Y105265D01*
X577321Y106161D01*
X576270Y106299D01*
D02*
G37*
G36*
X573730D02*
X572679Y106161D01*
X570517Y105265D01*
X568660Y103840D01*
X567235Y101983D01*
X566339Y99821D01*
X566200Y98770D01*
X573730D01*
Y106299D01*
D02*
G37*
G36*
X373100Y139749D02*
X368681Y139314D01*
X364433Y138025D01*
X360517Y135932D01*
X357085Y133115D01*
X354268Y129683D01*
X352175Y125767D01*
X350886Y121519D01*
X350451Y117100D01*
X350886Y112681D01*
X352175Y108433D01*
X354268Y104517D01*
X357085Y101085D01*
X360517Y98268D01*
X364433Y96175D01*
X368681Y94886D01*
X373100Y94451D01*
X377519Y94886D01*
X381767Y96175D01*
X385683Y98268D01*
X389115Y101085D01*
X391932Y104517D01*
X394025Y108433D01*
X395314Y112681D01*
X395749Y117100D01*
X395314Y121519D01*
X394025Y125767D01*
X391932Y129683D01*
X389115Y133115D01*
X385683Y135932D01*
X381767Y138025D01*
X377519Y139314D01*
X373100Y139749D01*
D02*
G37*
G36*
X514730Y95040D02*
X507460D01*
Y88770D01*
X514730D01*
Y95040D01*
D02*
G37*
G36*
X583800Y96230D02*
X576270D01*
Y88701D01*
X577321Y88839D01*
X579483Y89735D01*
X581340Y91160D01*
X582765Y93017D01*
X583661Y95179D01*
X583800Y96230D01*
D02*
G37*
G36*
X573730D02*
X566200D01*
X566339Y95179D01*
X567235Y93017D01*
X568660Y91160D01*
X570517Y89735D01*
X572679Y88839D01*
X573730Y88701D01*
Y96230D01*
D02*
G37*
G36*
X514730Y86230D02*
X507460D01*
Y79960D01*
X514730D01*
Y86230D01*
D02*
G37*
G36*
X411200Y76427D02*
X408579Y76082D01*
X406137Y75070D01*
X404039Y73461D01*
X402430Y71363D01*
X401418Y68921D01*
X401073Y66300D01*
X401418Y63679D01*
X402430Y61237D01*
X404039Y59139D01*
X406137Y57530D01*
X408579Y56519D01*
X411200Y56173D01*
X413821Y56519D01*
X416263Y57530D01*
X418361Y59139D01*
X419970Y61237D01*
X420982Y63679D01*
X421327Y66300D01*
X420982Y68921D01*
X419970Y71363D01*
X418361Y73461D01*
X416263Y75070D01*
X413821Y76082D01*
X411200Y76427D01*
D02*
G37*
G36*
X385800D02*
X383179Y76082D01*
X380737Y75070D01*
X378639Y73461D01*
X377030Y71363D01*
X376018Y68921D01*
X375673Y66300D01*
X376018Y63679D01*
X377030Y61237D01*
X378639Y59139D01*
X380737Y57530D01*
X383179Y56519D01*
X385800Y56173D01*
X388421Y56519D01*
X390863Y57530D01*
X392961Y59139D01*
X394570Y61237D01*
X395582Y63679D01*
X395927Y66300D01*
X395582Y68921D01*
X394570Y71363D01*
X392961Y73461D01*
X390863Y75070D01*
X388421Y76082D01*
X385800Y76427D01*
D02*
G37*
G36*
X360400D02*
X357779Y76082D01*
X355337Y75070D01*
X353239Y73461D01*
X351630Y71363D01*
X350618Y68921D01*
X350273Y66300D01*
X350618Y63679D01*
X351630Y61237D01*
X353239Y59139D01*
X355337Y57530D01*
X357779Y56519D01*
X360400Y56173D01*
X363021Y56519D01*
X365463Y57530D01*
X367561Y59139D01*
X369170Y61237D01*
X370182Y63679D01*
X370527Y66300D01*
X370182Y68921D01*
X369170Y71363D01*
X367561Y73461D01*
X365463Y75070D01*
X363021Y76082D01*
X360400Y76427D01*
D02*
G37*
G36*
X335000D02*
X332379Y76082D01*
X329937Y75070D01*
X327839Y73461D01*
X326230Y71363D01*
X325218Y68921D01*
X324873Y66300D01*
X325218Y63679D01*
X326230Y61237D01*
X327839Y59139D01*
X329937Y57530D01*
X332379Y56519D01*
X335000Y56173D01*
X337621Y56519D01*
X340063Y57530D01*
X342161Y59139D01*
X343770Y61237D01*
X344782Y63679D01*
X345127Y66300D01*
X344782Y68921D01*
X343770Y71363D01*
X342161Y73461D01*
X340063Y75070D01*
X337621Y76082D01*
X335000Y76427D01*
D02*
G37*
G36*
X192700Y76027D02*
X190079Y75682D01*
X187637Y74670D01*
X185539Y73061D01*
X183930Y70963D01*
X182918Y68521D01*
X182573Y65900D01*
X182918Y63279D01*
X183930Y60837D01*
X185539Y58739D01*
X187637Y57130D01*
X190079Y56118D01*
X192700Y55773D01*
X195321Y56118D01*
X197763Y57130D01*
X199861Y58739D01*
X201470Y60837D01*
X202481Y63279D01*
X202827Y65900D01*
X202481Y68521D01*
X201470Y70963D01*
X199861Y73061D01*
X197763Y74670D01*
X195321Y75682D01*
X192700Y76027D01*
D02*
G37*
G36*
X167300D02*
X164679Y75682D01*
X162237Y74670D01*
X160139Y73061D01*
X158530Y70963D01*
X157518Y68521D01*
X157173Y65900D01*
X157518Y63279D01*
X158530Y60837D01*
X160139Y58739D01*
X162237Y57130D01*
X164679Y56118D01*
X167300Y55773D01*
X169921Y56118D01*
X172363Y57130D01*
X174461Y58739D01*
X176070Y60837D01*
X177082Y63279D01*
X177427Y65900D01*
X177082Y68521D01*
X176070Y70963D01*
X174461Y73061D01*
X172363Y74670D01*
X169921Y75682D01*
X167300Y76027D01*
D02*
G37*
G36*
X141900D02*
X139279Y75682D01*
X136837Y74670D01*
X134739Y73061D01*
X133130Y70963D01*
X132118Y68521D01*
X131773Y65900D01*
X132118Y63279D01*
X133130Y60837D01*
X134739Y58739D01*
X136837Y57130D01*
X139279Y56118D01*
X141900Y55773D01*
X144521Y56118D01*
X146963Y57130D01*
X149061Y58739D01*
X150670Y60837D01*
X151681Y63279D01*
X152027Y65900D01*
X151681Y68521D01*
X150670Y70963D01*
X149061Y73061D01*
X146963Y74670D01*
X144521Y75682D01*
X141900Y76027D01*
D02*
G37*
G36*
X116500D02*
X113879Y75682D01*
X111437Y74670D01*
X109339Y73061D01*
X107730Y70963D01*
X106718Y68521D01*
X106373Y65900D01*
X106718Y63279D01*
X107730Y60837D01*
X109339Y58739D01*
X111437Y57130D01*
X113879Y56118D01*
X116500Y55773D01*
X119121Y56118D01*
X121563Y57130D01*
X123661Y58739D01*
X125270Y60837D01*
X126281Y63279D01*
X126627Y65900D01*
X126281Y68521D01*
X125270Y70963D01*
X123661Y73061D01*
X121563Y74670D01*
X119121Y75682D01*
X116500Y76027D01*
D02*
G37*
G36*
X524090Y69940D02*
X510310D01*
Y55060D01*
X513315D01*
Y53063D01*
X504137Y43885D01*
X498013D01*
X497765Y44483D01*
X496340Y46340D01*
X494483Y47765D01*
X492321Y48661D01*
X490000Y48967D01*
X487679Y48661D01*
X485517Y47765D01*
X483660Y46340D01*
X482235Y44483D01*
X481339Y42321D01*
X481033Y40000D01*
X481339Y37679D01*
X482235Y35517D01*
X483660Y33660D01*
X485517Y32235D01*
X487679Y31339D01*
X490000Y31033D01*
X492321Y31339D01*
X494483Y32235D01*
X496340Y33660D01*
X497765Y35517D01*
X498013Y36115D01*
X505746D01*
X507233Y36411D01*
X508493Y37253D01*
X519947Y48707D01*
X520789Y49967D01*
X521085Y51454D01*
Y55060D01*
X524090D01*
Y69940D01*
D02*
G37*
G36*
X541040Y95040D02*
X517270D01*
Y87500D01*
Y79960D01*
X528615D01*
Y69940D01*
X525910D01*
Y55060D01*
X528915D01*
Y50000D01*
X529211Y48513D01*
X530053Y47253D01*
X537553Y39753D01*
X538813Y38911D01*
X540300Y38615D01*
X559787D01*
X560035Y38017D01*
X561460Y36160D01*
X563317Y34735D01*
X565479Y33839D01*
X567800Y33533D01*
X570121Y33839D01*
X572283Y34735D01*
X574140Y36160D01*
X575565Y38017D01*
X576461Y40179D01*
X576767Y42500D01*
X576461Y44821D01*
X575565Y46983D01*
X574140Y48840D01*
X572283Y50265D01*
X570121Y51161D01*
X567800Y51467D01*
X565479Y51161D01*
X563317Y50265D01*
X561460Y48840D01*
X560035Y46983D01*
X559787Y46385D01*
X541909D01*
X536685Y51609D01*
Y55060D01*
X539690D01*
Y69940D01*
X536385D01*
Y79960D01*
X541040D01*
Y95040D01*
D02*
G37*
G36*
X37500Y65149D02*
X33081Y64714D01*
X28833Y63425D01*
X24917Y61332D01*
X21485Y58515D01*
X18668Y55083D01*
X16575Y51167D01*
X15286Y46919D01*
X14851Y42500D01*
X15286Y38081D01*
X16575Y33833D01*
X18668Y29917D01*
X21485Y26485D01*
X24917Y23668D01*
X28833Y21575D01*
X33081Y20286D01*
X37500Y19851D01*
X41919Y20286D01*
X46167Y21575D01*
X50083Y23668D01*
X53515Y26485D01*
X56332Y29917D01*
X58425Y33833D01*
X59714Y38081D01*
X60149Y42500D01*
X59714Y46919D01*
X58425Y51167D01*
X56332Y55083D01*
X53515Y58515D01*
X50083Y61332D01*
X46167Y63425D01*
X41919Y64714D01*
X37500Y65149D01*
D02*
G37*
%LPD*%
G36*
X392736Y515136D02*
X392235Y514483D01*
X391987Y513885D01*
X194109D01*
X193052Y514942D01*
X193538Y516115D01*
X296984D01*
X297789Y516275D01*
X392174D01*
X392736Y515136D01*
D02*
G37*
G36*
X189753Y507253D02*
X191013Y506411D01*
X192500Y506115D01*
X391987D01*
X392235Y505517D01*
X392736Y504864D01*
X392174Y503725D01*
X188149D01*
X142538Y549336D01*
X143025Y550511D01*
X143220Y551991D01*
X144560Y552446D01*
X189753Y507253D01*
D02*
G37*
D12*
X511900Y695600D02*
Y717500D01*
Y695600D02*
X527500Y680000D01*
X503500D02*
X527500D01*
X567500D01*
X495500Y688000D02*
X503500Y680000D01*
X539084Y697500D02*
X565600D01*
X527500Y709084D02*
X539084Y697500D01*
X527500Y709084D02*
Y742500D01*
X490160Y512500D02*
X503246D01*
X487500D02*
X490160D01*
X368250Y636750D02*
X391500Y660000D01*
X420000D01*
X368250Y630000D02*
Y636750D01*
Y550000D02*
Y571500D01*
X287500Y532500D02*
X360000D01*
X368250Y540750D02*
Y550000D01*
X360000Y532500D02*
X368250Y540750D01*
X287500Y660000D02*
X345000D01*
X368250Y600000D02*
Y630000D01*
X345000Y660000D02*
X368250Y636750D01*
X365000Y575000D02*
Y596750D01*
X455000Y505000D02*
X480000D01*
X487500Y512500D01*
X365000Y574750D02*
X368250Y571500D01*
X365000Y574750D02*
Y575000D01*
Y596750D02*
X368250Y600000D01*
X455000Y617500D02*
X464840Y607660D01*
Y586867D02*
Y607660D01*
X503246Y512500D02*
X514700Y523954D01*
Y535000D01*
X490000Y422500D02*
X505746D01*
X517200Y433954D01*
Y445000D01*
X492200Y327500D02*
X507946D01*
X519400Y338954D01*
Y350000D01*
X492500Y237500D02*
X508246D01*
X519700Y248954D01*
Y260000D01*
X490000Y40000D02*
X505746D01*
X517200Y51454D01*
Y62500D01*
X517200Y146454D02*
Y157500D01*
X505746Y135000D02*
X517200Y146454D01*
X490000Y135000D02*
X505746D01*
X514400Y608100D02*
Y627500D01*
Y608100D02*
X522500Y600000D01*
X133250Y576830D02*
X190080Y520000D01*
X296984D02*
X297144Y520160D01*
X190080Y520000D02*
X296984D01*
X115120Y535000D02*
X133250Y553130D01*
X75000Y535000D02*
X115120D01*
X47500Y507500D02*
X75000Y535000D01*
X267500Y452500D02*
Y477500D01*
X116700Y142300D02*
X117000Y142600D01*
X116500Y142100D02*
X116700Y142300D01*
X117000Y229500D02*
X117500Y230000D01*
X117000Y142600D02*
Y229500D01*
X290000Y430000D02*
X345000D01*
X37500D02*
X290000D01*
X267500Y452500D02*
X290000Y430000D01*
X352500Y437500D02*
X367500D01*
X387500D02*
X387500D01*
X362500Y412500D02*
X387500Y437500D01*
X133250Y553130D02*
X186540Y499840D01*
X419840D02*
X420000Y500000D01*
X186540Y499840D02*
X419840D01*
X345000Y430000D02*
X352500Y437500D01*
X247500Y412500D02*
X362500D01*
X192500Y510000D02*
X400000D01*
X297144Y520160D02*
X417338D01*
X419999Y517499D01*
X83250Y619250D02*
X192500Y510000D01*
X530750Y535450D02*
Y560000D01*
X530300Y535000D02*
X530750Y535450D01*
X535300Y240000D02*
Y260000D01*
Y282200D01*
X535000Y282500D02*
X535300Y282200D01*
Y240000D02*
X540300Y235000D01*
X532500Y157800D02*
Y182500D01*
Y157800D02*
X532800Y157500D01*
X532500Y62800D02*
Y87500D01*
Y62800D02*
X532800Y62500D01*
X133250Y576830D02*
Y690630D01*
X83250Y619250D02*
Y690630D01*
X535000Y350000D02*
Y375000D01*
Y337500D02*
Y350000D01*
Y337500D02*
X542500Y330000D01*
X570000D01*
X540300Y235000D02*
X567800D01*
X530000Y617800D02*
Y627500D01*
Y650000D01*
Y617800D02*
X542800Y605000D01*
X570300D01*
X530300Y522500D02*
X537800Y515000D01*
X530300Y522500D02*
Y535000D01*
X537800Y515000D02*
X565300D01*
X532800Y50000D02*
X540300Y42500D01*
X532800Y50000D02*
Y62500D01*
X540300Y42500D02*
X567800D01*
X532800Y145000D02*
X540300Y137500D01*
X532800Y145000D02*
Y157500D01*
X540300Y137500D02*
X567800D01*
X542500Y422500D02*
X570000D01*
X532800Y432200D02*
Y445000D01*
Y432200D02*
X542500Y422500D01*
X532800Y445000D02*
Y468700D01*
X531500Y470000D02*
X532800Y468700D01*
X116700Y142300D02*
X334800D01*
X335000Y142500D01*
X116900Y367900D02*
X335200D01*
D48*
X83250Y690630D02*
D03*
X108250D02*
D03*
X133250D02*
D03*
X83250Y553130D02*
D03*
X133250D02*
D03*
D50*
X92500Y477500D02*
D03*
X232500D02*
D03*
X197500D02*
D03*
X267500D02*
D03*
X162500D02*
D03*
X117500Y230000D02*
D03*
X440000Y460000D02*
D03*
X127500Y477500D02*
D03*
D52*
X255000Y614400D02*
D03*
Y565600D02*
D03*
D53*
X411200Y66300D02*
D03*
X335000D02*
D03*
X360400D02*
D03*
X385800D02*
D03*
X411400Y291700D02*
D03*
X335200D02*
D03*
X360600D02*
D03*
X386000D02*
D03*
X192700Y65900D02*
D03*
X116500D02*
D03*
X141900D02*
D03*
X167300D02*
D03*
X193100Y291700D02*
D03*
X116900D02*
D03*
X142300D02*
D03*
X167700D02*
D03*
D54*
X398500Y167900D02*
D03*
X335000Y142500D02*
D03*
X398700Y393300D02*
D03*
X335200Y367900D02*
D03*
X180000Y167500D02*
D03*
X116500Y142100D02*
D03*
X180400Y393300D02*
D03*
X116900Y367900D02*
D03*
D55*
X264000Y771000D02*
D03*
X330000D02*
D03*
D56*
X450000Y230000D02*
D03*
X37500Y42500D02*
D03*
X410000Y762500D02*
D03*
X37500Y760000D02*
D03*
D57*
X495500Y688000D02*
D03*
X567500Y680000D02*
D03*
X565600Y697500D02*
D03*
X420000Y660000D02*
D03*
X490160Y512500D02*
D03*
X287500Y532500D02*
D03*
Y660000D02*
D03*
X337500Y610000D02*
D03*
X190000Y590000D02*
D03*
X455000Y505000D02*
D03*
X464840Y586867D02*
D03*
X490000Y422500D02*
D03*
X492200Y327500D02*
D03*
X492500Y237500D02*
D03*
X490000Y40000D02*
D03*
X490000Y135000D02*
D03*
X575000Y97500D02*
D03*
X575000Y192500D02*
D03*
X575000Y292500D02*
D03*
X575500Y385000D02*
D03*
Y480000D02*
D03*
X572500Y570000D02*
D03*
X570000Y752500D02*
D03*
X522500Y600000D02*
D03*
X572500Y660000D02*
D03*
X47500Y452500D02*
D03*
Y507500D02*
D03*
X300000Y472500D02*
D03*
X367500Y437500D02*
D03*
X387500D02*
D03*
X37500Y430000D02*
D03*
X247500Y412500D02*
D03*
X232500Y752500D02*
D03*
X235000Y782500D02*
D03*
X357500Y755000D02*
D03*
Y782500D02*
D03*
X372500Y707500D02*
D03*
X455000Y617500D02*
D03*
X372500Y662500D02*
D03*
X419999Y517499D02*
D03*
X420000Y500000D02*
D03*
X400000Y510000D02*
D03*
X570000Y330000D02*
D03*
X567800Y235000D02*
D03*
X570300Y605000D02*
D03*
X565300Y515000D02*
D03*
X567800Y42500D02*
D03*
X567800Y137500D02*
D03*
X570000Y422500D02*
D03*
X300000Y715000D02*
D03*
D58*
X352250Y575000D02*
D03*
X365750D02*
D03*
D59*
X517200Y62500D02*
D03*
X532800D02*
D03*
X517200Y157500D02*
D03*
X532800D02*
D03*
X519700Y260000D02*
D03*
X535300D02*
D03*
X519400Y350000D02*
D03*
X535000D02*
D03*
X517200Y445000D02*
D03*
X532800D02*
D03*
X514700Y535000D02*
D03*
X530300D02*
D03*
X514400Y627500D02*
D03*
X530000D02*
D03*
X511900Y717500D02*
D03*
X527500D02*
D03*
D60*
X532500Y87500D02*
D03*
X516000D02*
D03*
X532500Y182500D02*
D03*
X516000D02*
D03*
X535000Y282500D02*
D03*
X518500D02*
D03*
X535000Y375000D02*
D03*
X518500D02*
D03*
X531500Y470000D02*
D03*
X515000D02*
D03*
X530750Y560000D02*
D03*
X514250D02*
D03*
X530000Y650000D02*
D03*
X513500D02*
D03*
X527500Y742500D02*
D03*
X511000D02*
D03*
X368250Y550000D02*
D03*
X351750D02*
D03*
X368250Y600000D02*
D03*
X351750D02*
D03*
X368250Y630000D02*
D03*
X351750D02*
D03*
M02*
