G04*
G04 #@! TF.GenerationSoftware,Altium Limited,Altium Designer,20.2.7 (254)*
G04*
G04 Layer_Color=8421504*
%FSLAX44Y44*%
%MOMM*%
G71*
G04*
G04 #@! TF.SameCoordinates,3DC96C9F-A8A8-42D8-A5AB-E266E3FEE33C*
G04*
G04*
G04 #@! TF.FilePolarity,Positive*
G04*
G01*
G75*
%ADD15R,0.8500X0.8000*%
%ADD16R,2.0066X2.1082*%
%ADD17R,0.3500X1.2000*%
%ADD18R,1.2000X0.3500*%
%ADD19R,1.6000X1.4000*%
%ADD20O,1.6000X1.4000*%
%ADD21R,1.5000X1.0000*%
%ADD22R,0.9800X0.8600*%
%ADD23R,0.9800X0.8700*%
%ADD24R,0.9300X0.8700*%
%ADD25O,0.2400X1.3500*%
%ADD26R,1.8000X1.7000*%
G04:AMPARAMS|DCode=27|XSize=1.5mm|YSize=1.3mm|CornerRadius=0.325mm|HoleSize=0mm|Usage=FLASHONLY|Rotation=180.000|XOffset=0mm|YOffset=0mm|HoleType=Round|Shape=RoundedRectangle|*
%AMROUNDEDRECTD27*
21,1,1.5000,0.6500,0,0,180.0*
21,1,0.8500,1.3000,0,0,180.0*
1,1,0.6500,-0.4250,0.3250*
1,1,0.6500,0.4250,0.3250*
1,1,0.6500,0.4250,-0.3250*
1,1,0.6500,-0.4250,-0.3250*
%
%ADD27ROUNDEDRECTD27*%
%ADD28R,2.8000X2.1500*%
%ADD29R,1.2438X1.1382*%
%ADD30R,1.0000X1.2000*%
D15*
X210000Y621000D02*
D03*
Y609000D02*
D03*
Y559000D02*
D03*
Y571000D02*
D03*
D16*
X52243Y615700D02*
D03*
X164257D02*
D03*
D17*
X332000Y632418D02*
D03*
X340000D02*
D03*
X348000D02*
D03*
X356000D02*
D03*
X364000D02*
D03*
X372000D02*
D03*
X380000D02*
D03*
X388000D02*
D03*
Y547582D02*
D03*
X380000D02*
D03*
X372000D02*
D03*
X364000D02*
D03*
X356000D02*
D03*
X348000D02*
D03*
X340000D02*
D03*
X332000D02*
D03*
D18*
X402418Y618000D02*
D03*
Y610000D02*
D03*
Y602000D02*
D03*
Y594000D02*
D03*
Y586000D02*
D03*
Y578000D02*
D03*
Y570000D02*
D03*
Y562000D02*
D03*
X317582D02*
D03*
Y570000D02*
D03*
Y578000D02*
D03*
Y586000D02*
D03*
Y594000D02*
D03*
Y602000D02*
D03*
Y610000D02*
D03*
Y618000D02*
D03*
D19*
X328000Y487500D02*
D03*
D20*
X400000Y457500D02*
D03*
Y487500D02*
D03*
X328000Y457500D02*
D03*
D21*
X500500Y88500D02*
D03*
Y72500D02*
D03*
Y56500D02*
D03*
X549500D02*
D03*
Y72500D02*
D03*
Y88500D02*
D03*
X500500Y183500D02*
D03*
Y167500D02*
D03*
Y151500D02*
D03*
X549500D02*
D03*
Y167500D02*
D03*
Y183500D02*
D03*
X500500Y283500D02*
D03*
Y267500D02*
D03*
Y251500D02*
D03*
X549500D02*
D03*
Y267500D02*
D03*
Y283500D02*
D03*
X501000Y376000D02*
D03*
Y360000D02*
D03*
Y344000D02*
D03*
X550000D02*
D03*
Y360000D02*
D03*
Y376000D02*
D03*
X501000Y471000D02*
D03*
Y455000D02*
D03*
Y439000D02*
D03*
X550000D02*
D03*
Y455000D02*
D03*
Y471000D02*
D03*
X498000Y561000D02*
D03*
Y545000D02*
D03*
Y529000D02*
D03*
X547000D02*
D03*
Y545000D02*
D03*
Y561000D02*
D03*
X498000Y651000D02*
D03*
Y635000D02*
D03*
Y619000D02*
D03*
X547000D02*
D03*
Y635000D02*
D03*
Y651000D02*
D03*
X495500Y743500D02*
D03*
Y727500D02*
D03*
Y711500D02*
D03*
X544500D02*
D03*
Y727500D02*
D03*
Y743500D02*
D03*
D22*
X57500Y485150D02*
D03*
Y469850D02*
D03*
X435000Y632650D02*
D03*
Y617350D02*
D03*
D23*
X280000Y379700D02*
D03*
Y395300D02*
D03*
X60000Y379700D02*
D03*
Y395300D02*
D03*
D24*
X340000Y695600D02*
D03*
Y680000D02*
D03*
X315000Y692800D02*
D03*
Y677200D02*
D03*
D25*
X284000Y744250D02*
D03*
X297000D02*
D03*
X303500D02*
D03*
X310000D02*
D03*
X290500D02*
D03*
D26*
X285000Y771000D02*
D03*
X309000D02*
D03*
D27*
X265000Y746500D02*
D03*
X329000D02*
D03*
D28*
X450000Y719550D02*
D03*
Y670450D02*
D03*
D29*
X275000Y112500D02*
D03*
Y78766D02*
D03*
X280000Y334367D02*
D03*
Y300633D02*
D03*
X57500Y141867D02*
D03*
Y108133D02*
D03*
X60000Y332500D02*
D03*
Y298766D02*
D03*
X450000Y528133D02*
D03*
Y561867D02*
D03*
D30*
X400000Y681750D02*
D03*
Y698250D02*
D03*
M02*
