G04*
G04 #@! TF.GenerationSoftware,Altium Limited,Altium Designer,20.2.7 (254)*
G04*
G04 Layer_Color=16711935*
%FSLAX44Y44*%
%MOMM*%
G71*
G04*
G04 #@! TF.SameCoordinates,3DC96C9F-A8A8-42D8-A5AB-E266E3FEE33C*
G04*
G04*
G04 #@! TF.FilePolarity,Negative*
G04*
G01*
G75*
%ADD44C,1.2532*%
%ADD45C,1.7032*%
%ADD46C,2.4032*%
%ADD47C,0.2032*%
%ADD48C,1.4986*%
%ADD49O,1.0032X1.7032*%
%ADD50C,1.3970*%
%ADD51C,4.2032*%
%ADD60R,1.2000X1.0000*%
%ADD61R,1.1032X1.2032*%
%ADD62R,1.0732X1.1832*%
D44*
X255000Y614400D02*
D03*
Y565600D02*
D03*
D45*
X411200Y66300D02*
D03*
X335000D02*
D03*
X360400D02*
D03*
X385800D02*
D03*
X411400Y291700D02*
D03*
X335200D02*
D03*
X360600D02*
D03*
X386000D02*
D03*
X192700Y65900D02*
D03*
X116500D02*
D03*
X141900D02*
D03*
X167300D02*
D03*
X193100Y291700D02*
D03*
X116900D02*
D03*
X142300D02*
D03*
X167700D02*
D03*
D46*
X398500Y167900D02*
D03*
X335000Y142500D02*
D03*
X398700Y393300D02*
D03*
X335200Y367900D02*
D03*
X180000Y167500D02*
D03*
X116500Y142100D02*
D03*
X180400Y393300D02*
D03*
X116900Y367900D02*
D03*
D47*
X423900Y117100D02*
D03*
X373100D02*
D03*
X322300D02*
D03*
X424100Y342500D02*
D03*
X373300D02*
D03*
X322500D02*
D03*
X205400Y116700D02*
D03*
X154600D02*
D03*
X103800D02*
D03*
X205800Y342500D02*
D03*
X155000D02*
D03*
X104200D02*
D03*
D48*
X83250Y690630D02*
D03*
X108250D02*
D03*
X133250D02*
D03*
X83250Y553130D02*
D03*
X133250D02*
D03*
D49*
X264000Y771000D02*
D03*
X330000D02*
D03*
D50*
X92500Y477500D02*
D03*
X232500D02*
D03*
X197500D02*
D03*
X267500D02*
D03*
X162500D02*
D03*
X117500Y230000D02*
D03*
X440000Y460000D02*
D03*
X127500Y477500D02*
D03*
D51*
X450000Y230000D02*
D03*
X37500Y42500D02*
D03*
X410000Y762500D02*
D03*
X37500Y760000D02*
D03*
D60*
X532500Y87500D02*
D03*
X516000D02*
D03*
X532500Y182500D02*
D03*
X516000D02*
D03*
X535000Y282500D02*
D03*
X518500D02*
D03*
X535000Y375000D02*
D03*
X518500D02*
D03*
X531500Y470000D02*
D03*
X515000D02*
D03*
X530750Y560000D02*
D03*
X514250D02*
D03*
X530000Y650000D02*
D03*
X513500D02*
D03*
X527500Y742500D02*
D03*
X511000D02*
D03*
X368250Y550000D02*
D03*
X351750D02*
D03*
X368250Y600000D02*
D03*
X351750D02*
D03*
X368250Y630000D02*
D03*
X351750D02*
D03*
D61*
X352250Y575000D02*
D03*
X365750D02*
D03*
D62*
X517200Y62500D02*
D03*
X532800D02*
D03*
X517200Y157500D02*
D03*
X532800D02*
D03*
X519700Y260000D02*
D03*
X535300D02*
D03*
X519400Y350000D02*
D03*
X535000D02*
D03*
X517200Y445000D02*
D03*
X532800D02*
D03*
X514700Y535000D02*
D03*
X530300D02*
D03*
X514400Y627500D02*
D03*
X530000D02*
D03*
X511900Y717500D02*
D03*
X527500D02*
D03*
M02*
