G04*
G04 #@! TF.GenerationSoftware,Altium Limited,Altium Designer,20.2.7 (254)*
G04*
G04 Layer_Physical_Order=1*
G04 Layer_Color=255*
%FSLAX44Y44*%
%MOMM*%
G71*
G04*
G04 #@! TF.SameCoordinates,3DC96C9F-A8A8-42D8-A5AB-E266E3FEE33C*
G04*
G04*
G04 #@! TF.FilePolarity,Positive*
G04*
G01*
G75*
%ADD12C,0.2540*%
%ADD15R,0.8500X0.8000*%
%ADD16R,2.0066X2.1082*%
%ADD17R,0.3500X1.2000*%
%ADD18R,1.2000X0.3500*%
%ADD19R,1.6000X1.4000*%
%ADD20O,1.6000X1.4000*%
%ADD21R,1.5000X1.0000*%
%ADD22R,0.9800X0.8600*%
%ADD23R,0.9800X0.8700*%
%ADD24R,0.9300X0.8700*%
%ADD25O,0.2400X1.3500*%
%ADD26R,1.8000X1.7000*%
G04:AMPARAMS|DCode=27|XSize=1.5mm|YSize=1.3mm|CornerRadius=0.325mm|HoleSize=0mm|Usage=FLASHONLY|Rotation=180.000|XOffset=0mm|YOffset=0mm|HoleType=Round|Shape=RoundedRectangle|*
%AMROUNDEDRECTD27*
21,1,1.5000,0.6500,0,0,180.0*
21,1,0.8500,1.3000,0,0,180.0*
1,1,0.6500,-0.4250,0.3250*
1,1,0.6500,0.4250,0.3250*
1,1,0.6500,0.4250,-0.3250*
1,1,0.6500,-0.4250,-0.3250*
%
%ADD27ROUNDEDRECTD27*%
%ADD28R,2.8000X2.1500*%
%ADD29R,1.2438X1.1382*%
%ADD30R,1.0000X1.2000*%
%ADD48C,1.4986*%
%ADD50C,1.3970*%
%ADD52C,1.0500*%
%ADD53C,1.5000*%
%ADD54C,2.2000*%
%ADD55O,0.8000X1.5000*%
%ADD56C,4.0000*%
%ADD57C,1.2700*%
G36*
X354394Y790836D02*
X353017Y790265D01*
X351160Y788840D01*
X349735Y786983D01*
X349487Y786385D01*
X321000D01*
X319513Y786089D01*
X318253Y785247D01*
X315046Y782040D01*
X297810D01*
X297460Y782040D01*
X296540D01*
X296190Y782040D01*
X278954D01*
X275747Y785247D01*
X274487Y786089D01*
X273000Y786385D01*
X243013D01*
X242765Y786983D01*
X241340Y788840D01*
X239483Y790265D01*
X238106Y790836D01*
X238359Y792106D01*
X354141Y792106D01*
X354394Y790836D01*
D02*
G37*
G36*
X592106Y10000D02*
X7106D01*
Y792106D01*
X231641D01*
X231894Y790836D01*
X230517Y790265D01*
X228660Y788840D01*
X227235Y786983D01*
X226339Y784821D01*
X226033Y782500D01*
X226339Y780179D01*
X227235Y778017D01*
X228660Y776160D01*
X230517Y774735D01*
X232679Y773839D01*
X235000Y773533D01*
X237321Y773839D01*
X239483Y774735D01*
X241340Y776160D01*
X242765Y778017D01*
X243013Y778615D01*
X257445D01*
X258100Y777345D01*
X257628Y776207D01*
X257404Y774500D01*
Y767500D01*
X257628Y765793D01*
X258287Y764202D01*
X259336Y762836D01*
X260702Y761787D01*
X262293Y761128D01*
X264000Y760904D01*
X265707Y761128D01*
X267298Y761787D01*
X268664Y762836D01*
X269713Y764202D01*
X270372Y765793D01*
X270597Y767500D01*
Y774500D01*
X270372Y776207D01*
X270041Y777006D01*
X270713Y778192D01*
X271706Y778300D01*
X273460Y776546D01*
Y759960D01*
X281582D01*
X281593Y758695D01*
X280107Y758399D01*
X278847Y757557D01*
X275443Y754153D01*
X275121Y753671D01*
X273594D01*
X273424Y753924D01*
X271509Y755204D01*
X269250Y755653D01*
X260750D01*
X258491Y755204D01*
X256576Y753924D01*
X255296Y752009D01*
X254973Y750385D01*
X242151D01*
X241314Y751339D01*
X241467Y752500D01*
X241161Y754821D01*
X240265Y756983D01*
X238840Y758840D01*
X236983Y760265D01*
X234821Y761161D01*
X232500Y761467D01*
X230179Y761161D01*
X228017Y760265D01*
X226160Y758840D01*
X224735Y756983D01*
X223839Y754821D01*
X223533Y752500D01*
X223839Y750179D01*
X224735Y748017D01*
X226160Y746160D01*
X228017Y744735D01*
X230179Y743839D01*
X232500Y743533D01*
X234821Y743839D01*
X235419Y744087D01*
X235753Y743753D01*
X237013Y742911D01*
X238500Y742615D01*
X254973D01*
X255296Y740991D01*
X256576Y739076D01*
X258491Y737796D01*
X260750Y737347D01*
X269250D01*
X271509Y737796D01*
X273035Y738816D01*
X274305Y738282D01*
Y721810D01*
X274601Y720323D01*
X275443Y719063D01*
X304453Y690053D01*
X305713Y689211D01*
X307200Y688915D01*
X307810D01*
Y685910D01*
X322190D01*
Y699690D01*
X307810D01*
Y699343D01*
X306637Y698857D01*
X300655Y704839D01*
X301110Y706180D01*
X302321Y706339D01*
X304483Y707235D01*
X306340Y708660D01*
X307765Y710517D01*
X308661Y712679D01*
X308967Y715000D01*
X308661Y717321D01*
X307765Y719483D01*
X306958Y720536D01*
X307915Y721375D01*
X332810Y696480D01*
Y688710D01*
X347190D01*
Y702490D01*
X337787D01*
X306275Y734002D01*
X306452Y735506D01*
X307074Y735882D01*
X307594Y735809D01*
X308541Y735177D01*
X308901Y735105D01*
X327203Y716803D01*
X328464Y715961D01*
X329950Y715665D01*
X366452D01*
X366883Y714395D01*
X366160Y713840D01*
X364735Y711983D01*
X363839Y709821D01*
X363533Y707500D01*
X363839Y705179D01*
X364735Y703017D01*
X366160Y701160D01*
X368017Y699735D01*
X370179Y698839D01*
X372500Y698533D01*
X374821Y698839D01*
X376983Y699735D01*
X378840Y701160D01*
X380265Y703017D01*
X380513Y703615D01*
X389141D01*
X392460Y700296D01*
Y689710D01*
Y673210D01*
X394839D01*
X395365Y671940D01*
X381780Y658355D01*
X380703Y659074D01*
X381161Y660179D01*
X381467Y662500D01*
X381161Y664821D01*
X380265Y666983D01*
X378840Y668840D01*
X376983Y670265D01*
X374821Y671161D01*
X372500Y671467D01*
X370179Y671161D01*
X368017Y670265D01*
X366160Y668840D01*
X364735Y666983D01*
X363839Y664821D01*
X363533Y662500D01*
X363839Y660179D01*
X364087Y659581D01*
X361253Y656747D01*
X360411Y655487D01*
X360115Y654000D01*
Y652016D01*
X358845Y651630D01*
X358747Y651778D01*
X343885Y666640D01*
Y673110D01*
X347190D01*
Y686890D01*
X332810D01*
Y673110D01*
X336115D01*
Y665031D01*
X336411Y663544D01*
X336745Y663045D01*
X335758Y662235D01*
X322190Y675804D01*
Y684090D01*
X307810D01*
Y670310D01*
X316696D01*
X344115Y642891D01*
Y640958D01*
X341270D01*
Y632418D01*
Y623878D01*
X392290D01*
Y640958D01*
X377064D01*
X376641Y642228D01*
X402747Y668334D01*
X403589Y669594D01*
X403885Y671081D01*
Y673210D01*
X407540D01*
Y689710D01*
Y706790D01*
X396954D01*
X393497Y710247D01*
X392237Y711089D01*
X390750Y711385D01*
X380513D01*
X380265Y711983D01*
X378840Y713840D01*
X378117Y714395D01*
X378548Y715665D01*
X433460D01*
Y706260D01*
X466540D01*
Y732840D01*
X433460D01*
Y723435D01*
X331559D01*
X313885Y741109D01*
Y744250D01*
X313813Y744609D01*
Y749800D01*
X313523Y751259D01*
X312696Y752496D01*
X311459Y753323D01*
X310000Y753613D01*
X308541Y753323D01*
X307718Y752773D01*
X307252Y752815D01*
X306426Y753035D01*
X306220Y753161D01*
X305557Y754153D01*
X302153Y757557D01*
X300893Y758399D01*
X299407Y758695D01*
X299418Y759960D01*
X320540D01*
Y776546D01*
X322294Y778300D01*
X323287Y778192D01*
X323959Y777006D01*
X323628Y776207D01*
X323404Y774500D01*
Y767500D01*
X323628Y765793D01*
X324287Y764202D01*
X325336Y762836D01*
X326702Y761787D01*
X328293Y761128D01*
X330000Y760904D01*
X331707Y761128D01*
X333298Y761787D01*
X334664Y762836D01*
X335713Y764202D01*
X336372Y765793D01*
X336596Y767500D01*
Y774500D01*
X336372Y776207D01*
X335900Y777345D01*
X336555Y778615D01*
X349487D01*
X349735Y778017D01*
X351160Y776160D01*
X353017Y774735D01*
X355179Y773839D01*
X357500Y773533D01*
X359821Y773839D01*
X361983Y774735D01*
X363840Y776160D01*
X365265Y778017D01*
X366161Y780179D01*
X366467Y782500D01*
X366161Y784821D01*
X365265Y786983D01*
X363840Y788840D01*
X361983Y790265D01*
X360606Y790836D01*
X360859Y792106D01*
X592106D01*
Y10000D01*
D02*
G37*
%LPC*%
G36*
X357500Y763967D02*
X355179Y763661D01*
X353017Y762765D01*
X351160Y761340D01*
X349735Y759483D01*
X348839Y757321D01*
X348533Y755000D01*
X348839Y752679D01*
X349087Y752081D01*
X347391Y750385D01*
X339027D01*
X338704Y752009D01*
X337424Y753924D01*
X335509Y755204D01*
X333250Y755653D01*
X324750D01*
X322491Y755204D01*
X320576Y753924D01*
X319296Y752009D01*
X318847Y749750D01*
Y743250D01*
X319296Y740991D01*
X320576Y739076D01*
X322491Y737796D01*
X324750Y737347D01*
X333250D01*
X335509Y737796D01*
X337424Y739076D01*
X338704Y740991D01*
X339027Y742615D01*
X349000D01*
X350487Y742911D01*
X351747Y743753D01*
X354580Y746587D01*
X355179Y746339D01*
X357500Y746033D01*
X359821Y746339D01*
X361983Y747235D01*
X363840Y748660D01*
X365265Y750517D01*
X366161Y752679D01*
X366467Y755000D01*
X366161Y757321D01*
X365265Y759483D01*
X363840Y761340D01*
X361983Y762765D01*
X359821Y763661D01*
X357500Y763967D01*
D02*
G37*
G36*
X570000Y761467D02*
X567679Y761161D01*
X565517Y760265D01*
X563660Y758840D01*
X562235Y756983D01*
X561339Y754821D01*
X561033Y752500D01*
X561339Y750179D01*
X561587Y749581D01*
X559391Y747385D01*
X554540D01*
Y751040D01*
X534460D01*
Y736310D01*
X534460Y735960D01*
Y735040D01*
X534460Y734690D01*
Y720310D01*
X534460Y719960D01*
Y719040D01*
X534460Y718690D01*
Y703960D01*
X554540D01*
Y718690D01*
X554540Y719040D01*
Y719960D01*
X554540Y720310D01*
Y720807D01*
X555713Y721293D01*
X561715Y715291D01*
Y705513D01*
X561117Y705265D01*
X559260Y703840D01*
X557835Y701983D01*
X556939Y699821D01*
X556633Y697500D01*
X556939Y695179D01*
X557835Y693017D01*
X559260Y691160D01*
X561117Y689735D01*
X562784Y689044D01*
X562925Y688271D01*
X562887Y687666D01*
X561160Y686340D01*
X559735Y684483D01*
X558839Y682321D01*
X558700Y681270D01*
X576300D01*
X576161Y682321D01*
X575265Y684483D01*
X573840Y686340D01*
X571983Y687765D01*
X570316Y688456D01*
X570175Y689230D01*
X570214Y689835D01*
X571940Y691160D01*
X573365Y693017D01*
X574261Y695179D01*
X574567Y697500D01*
X574261Y699821D01*
X573365Y701983D01*
X571940Y703840D01*
X570083Y705265D01*
X569485Y705513D01*
Y716900D01*
X569189Y718387D01*
X568347Y719647D01*
X557747Y730247D01*
X556487Y731089D01*
X555000Y731385D01*
X554540D01*
Y734690D01*
X554540Y735040D01*
Y735960D01*
X554540Y736310D01*
Y739615D01*
X561000D01*
X562487Y739911D01*
X563747Y740753D01*
X567081Y744087D01*
X567679Y743839D01*
X570000Y743533D01*
X572321Y743839D01*
X574483Y744735D01*
X576340Y746160D01*
X577765Y748017D01*
X578661Y750179D01*
X578967Y752500D01*
X578661Y754821D01*
X577765Y756983D01*
X576340Y758840D01*
X574483Y760265D01*
X572321Y761161D01*
X570000Y761467D01*
D02*
G37*
G36*
X410000Y785149D02*
X405581Y784714D01*
X401333Y783425D01*
X397417Y781332D01*
X393985Y778515D01*
X391168Y775083D01*
X389075Y771167D01*
X387786Y766919D01*
X387351Y762500D01*
X387786Y758081D01*
X389075Y753833D01*
X391168Y749917D01*
X393985Y746485D01*
X397417Y743668D01*
X401333Y741575D01*
X405581Y740286D01*
X410000Y739851D01*
X414419Y740286D01*
X418667Y741575D01*
X422583Y743668D01*
X426015Y746485D01*
X428832Y749917D01*
X430925Y753833D01*
X432214Y758081D01*
X432649Y762500D01*
X432214Y766919D01*
X430925Y771167D01*
X428832Y775083D01*
X426015Y778515D01*
X422583Y781332D01*
X418667Y783425D01*
X414419Y784714D01*
X410000Y785149D01*
D02*
G37*
G36*
X37500Y782649D02*
X33081Y782214D01*
X28833Y780925D01*
X24917Y778832D01*
X21485Y776015D01*
X18668Y772583D01*
X16575Y768667D01*
X15286Y764419D01*
X14851Y760000D01*
X15286Y755581D01*
X16575Y751333D01*
X18668Y747417D01*
X21485Y743985D01*
X24917Y741168D01*
X28833Y739075D01*
X33081Y737786D01*
X37500Y737351D01*
X41919Y737786D01*
X46167Y739075D01*
X50083Y741168D01*
X53515Y743985D01*
X56332Y747417D01*
X58425Y751333D01*
X59714Y755581D01*
X60149Y760000D01*
X59714Y764419D01*
X58425Y768667D01*
X56332Y772583D01*
X53515Y776015D01*
X50083Y778832D01*
X46167Y780925D01*
X41919Y782214D01*
X37500Y782649D01*
D02*
G37*
G36*
X109520Y700582D02*
Y691900D01*
X118202D01*
X118025Y693249D01*
X117014Y695690D01*
X115406Y697786D01*
X113310Y699394D01*
X110869Y700405D01*
X109520Y700582D01*
D02*
G37*
G36*
X106980D02*
X105631Y700405D01*
X103190Y699394D01*
X101094Y697786D01*
X99486Y695690D01*
X98475Y693249D01*
X98298Y691900D01*
X106980D01*
Y700582D01*
D02*
G37*
G36*
X118202Y689360D02*
X109520D01*
Y680678D01*
X110869Y680855D01*
X113310Y681866D01*
X115406Y683474D01*
X117014Y685570D01*
X118025Y688011D01*
X118202Y689360D01*
D02*
G37*
G36*
X106980D02*
X98298D01*
X98475Y688011D01*
X99486Y685570D01*
X101094Y683474D01*
X103190Y681866D01*
X105631Y680855D01*
X106980Y680678D01*
Y689360D01*
D02*
G37*
G36*
X466540Y683740D02*
X451270D01*
Y671720D01*
X466540D01*
Y683740D01*
D02*
G37*
G36*
X448730D02*
X433460D01*
Y671720D01*
X448730D01*
Y683740D01*
D02*
G37*
G36*
X576300Y678730D02*
X568770D01*
Y671200D01*
X569821Y671339D01*
X571983Y672235D01*
X573840Y673660D01*
X575265Y675517D01*
X576161Y677679D01*
X576300Y678730D01*
D02*
G37*
G36*
X566230D02*
X558700D01*
X558839Y677679D01*
X559735Y675517D01*
X561160Y673660D01*
X563017Y672235D01*
X565179Y671339D01*
X566230Y671200D01*
Y678730D01*
D02*
G37*
G36*
X421270Y668800D02*
Y661270D01*
X428800D01*
X428661Y662321D01*
X427765Y664483D01*
X426340Y666340D01*
X424483Y667765D01*
X422321Y668661D01*
X421270Y668800D01*
D02*
G37*
G36*
X418730D02*
X417679Y668661D01*
X415517Y667765D01*
X413660Y666340D01*
X412235Y664483D01*
X411339Y662321D01*
X411200Y661270D01*
X418730D01*
Y668800D01*
D02*
G37*
G36*
X288770D02*
Y661270D01*
X296299D01*
X296161Y662321D01*
X295265Y664483D01*
X293840Y666340D01*
X291983Y667765D01*
X289821Y668661D01*
X288770Y668800D01*
D02*
G37*
G36*
X286230D02*
X285179Y668661D01*
X283017Y667765D01*
X281160Y666340D01*
X279735Y664483D01*
X278839Y662321D01*
X278701Y661270D01*
X286230D01*
Y668800D01*
D02*
G37*
G36*
X466540Y669180D02*
X451270D01*
Y657160D01*
X466540D01*
Y669180D01*
D02*
G37*
G36*
X448730D02*
X433460D01*
Y657160D01*
X448730D01*
Y669180D01*
D02*
G37*
G36*
X572500Y668967D02*
X570179Y668661D01*
X568017Y667765D01*
X566160Y666340D01*
X564735Y664483D01*
X563839Y662321D01*
X563533Y660000D01*
X563839Y657679D01*
X564087Y657081D01*
X561891Y654885D01*
X557040D01*
Y658540D01*
X536960D01*
Y643810D01*
X536960Y643460D01*
Y642540D01*
X536960Y642190D01*
Y627810D01*
X536960Y627460D01*
Y626540D01*
X536960Y626190D01*
Y611460D01*
X557040D01*
Y626190D01*
X557040Y626540D01*
Y627460D01*
X557040Y627810D01*
Y631115D01*
X558391D01*
X566415Y623091D01*
Y613013D01*
X565817Y612765D01*
X563960Y611340D01*
X562535Y609483D01*
X561639Y607321D01*
X561333Y605000D01*
X561639Y602679D01*
X562535Y600517D01*
X563960Y598660D01*
X565817Y597235D01*
X567979Y596339D01*
X570300Y596033D01*
X572621Y596339D01*
X574783Y597235D01*
X576640Y598660D01*
X578065Y600517D01*
X578961Y602679D01*
X579267Y605000D01*
X578961Y607321D01*
X578065Y609483D01*
X576640Y611340D01*
X574783Y612765D01*
X574185Y613013D01*
Y624700D01*
X573889Y626187D01*
X573047Y627447D01*
X562747Y637747D01*
X561487Y638589D01*
X560000Y638885D01*
X557040D01*
Y642190D01*
X557040Y642540D01*
Y643460D01*
X557040Y643810D01*
Y647115D01*
X563500D01*
X564987Y647411D01*
X566247Y648253D01*
X569580Y651587D01*
X570179Y651339D01*
X572500Y651033D01*
X574821Y651339D01*
X576983Y652235D01*
X578840Y653660D01*
X580265Y655517D01*
X581161Y657679D01*
X581467Y660000D01*
X581161Y662321D01*
X580265Y664483D01*
X578840Y666340D01*
X576983Y667765D01*
X574821Y668661D01*
X572500Y668967D01*
D02*
G37*
G36*
X428800Y658730D02*
X421270D01*
Y651200D01*
X422321Y651339D01*
X424483Y652235D01*
X426340Y653660D01*
X427765Y655517D01*
X428661Y657679D01*
X428800Y658730D01*
D02*
G37*
G36*
X418730D02*
X411200D01*
X411339Y657679D01*
X412235Y655517D01*
X413660Y653660D01*
X415517Y652235D01*
X417679Y651339D01*
X418730Y651200D01*
Y658730D01*
D02*
G37*
G36*
X296299D02*
X288770D01*
Y651200D01*
X289821Y651339D01*
X291983Y652235D01*
X293840Y653660D01*
X295265Y655517D01*
X296161Y657679D01*
X296299Y658730D01*
D02*
G37*
G36*
X286230D02*
X278701D01*
X278839Y657679D01*
X279735Y655517D01*
X281160Y653660D01*
X283017Y652235D01*
X285179Y651339D01*
X286230Y651200D01*
Y658730D01*
D02*
G37*
G36*
X442440Y639490D02*
X436270D01*
Y633920D01*
X442440D01*
Y639490D01*
D02*
G37*
G36*
X433730D02*
X427560D01*
Y633920D01*
X433730D01*
Y639490D01*
D02*
G37*
G36*
X330730Y640958D02*
X327710D01*
Y633688D01*
X330730D01*
Y640958D01*
D02*
G37*
G36*
X442440Y631380D02*
X436270D01*
Y625810D01*
X442440D01*
Y631380D01*
D02*
G37*
G36*
X433730D02*
X427560D01*
Y625810D01*
X433730D01*
Y631380D01*
D02*
G37*
G36*
X338730Y640958D02*
X333270D01*
Y632418D01*
Y623878D01*
X338730D01*
Y632418D01*
Y640958D01*
D02*
G37*
G36*
X330730Y631148D02*
X327710D01*
Y623878D01*
X330730D01*
Y631148D01*
D02*
G37*
G36*
X508040Y617730D02*
X499270D01*
Y611460D01*
X508040D01*
Y617730D01*
D02*
G37*
G36*
X505540Y751040D02*
X485460D01*
Y736310D01*
X485460Y735960D01*
X485460D01*
Y735040D01*
X485460D01*
Y725454D01*
X477253Y717247D01*
X476411Y715987D01*
X476115Y714500D01*
Y624109D01*
X449891Y597885D01*
X410958D01*
Y605710D01*
Y614115D01*
X427560D01*
Y610510D01*
X442440D01*
Y613615D01*
X446987D01*
X447235Y613017D01*
X448660Y611160D01*
X450517Y609735D01*
X452679Y608839D01*
X455000Y608533D01*
X457321Y608839D01*
X459483Y609735D01*
X461340Y611160D01*
X462765Y613017D01*
X463661Y615179D01*
X463967Y617500D01*
X463661Y619821D01*
X462765Y621983D01*
X461340Y623840D01*
X459483Y625265D01*
X457321Y626161D01*
X455000Y626467D01*
X452679Y626161D01*
X450517Y625265D01*
X448660Y623840D01*
X447235Y621983D01*
X446987Y621385D01*
X442440D01*
Y624190D01*
X427560D01*
Y621885D01*
X410958D01*
Y622290D01*
X393878D01*
Y613710D01*
Y605710D01*
Y597710D01*
Y589710D01*
Y581710D01*
Y573710D01*
Y565710D01*
Y557710D01*
X410958D01*
Y563423D01*
X412228Y563949D01*
X416115Y560062D01*
Y546609D01*
X397253Y527747D01*
X396411Y526487D01*
X396115Y525000D01*
Y518013D01*
X395517Y517765D01*
X393660Y516340D01*
X392235Y514483D01*
X391339Y512321D01*
X391033Y510000D01*
X391339Y507679D01*
X392235Y505517D01*
X393660Y503660D01*
X395517Y502235D01*
X397679Y501339D01*
X400000Y501033D01*
X402321Y501339D01*
X404483Y502235D01*
X406340Y503660D01*
X407765Y505517D01*
X408661Y507679D01*
X408967Y510000D01*
X408661Y512321D01*
X407765Y514483D01*
X406340Y516340D01*
X404483Y517765D01*
X403885Y518013D01*
Y523391D01*
X422747Y542253D01*
X423589Y543513D01*
X423885Y545000D01*
Y561671D01*
X423589Y563157D01*
X422747Y564417D01*
X415734Y571431D01*
X415586Y571529D01*
X415971Y572799D01*
X419207D01*
X426035Y565971D01*
Y529109D01*
X422862Y525936D01*
X422320Y526160D01*
X419999Y526466D01*
X417678Y526160D01*
X415516Y525264D01*
X413659Y523839D01*
X412234Y521982D01*
X411338Y519820D01*
X411032Y517499D01*
X411338Y515178D01*
X412234Y513016D01*
X413659Y511158D01*
X415516Y509734D01*
X416233Y509437D01*
Y508062D01*
X415517Y507765D01*
X413660Y506340D01*
X412235Y504483D01*
X411339Y502321D01*
X411033Y500000D01*
X411339Y497679D01*
X412235Y495517D01*
X413660Y493660D01*
X414969Y492655D01*
X414538Y491385D01*
X409717D01*
X409333Y492311D01*
X407804Y494304D01*
X405811Y495833D01*
X403490Y496794D01*
X401000Y497122D01*
X399000D01*
X396510Y496794D01*
X394189Y495833D01*
X392196Y494304D01*
X390667Y492311D01*
X389706Y489990D01*
X389378Y487500D01*
X389706Y485009D01*
X390667Y482689D01*
X392196Y480696D01*
X394189Y479167D01*
X396437Y478235D01*
Y466765D01*
X394189Y465833D01*
X392196Y464304D01*
X390667Y462311D01*
X389706Y459990D01*
X389378Y457500D01*
X389706Y455010D01*
X390667Y452689D01*
X392196Y450696D01*
X394189Y449167D01*
X396510Y448206D01*
X399000Y447878D01*
X401000D01*
X403490Y448206D01*
X405811Y449167D01*
X407804Y450696D01*
X409333Y452689D01*
X410294Y455010D01*
X410622Y457500D01*
X410294Y459990D01*
X409333Y462311D01*
X407804Y464304D01*
X405811Y465833D01*
X404207Y466498D01*
Y478502D01*
X405811Y479167D01*
X407804Y480696D01*
X409333Y482689D01*
X409717Y483615D01*
X462500D01*
X463987Y483911D01*
X465247Y484753D01*
X472667Y492173D01*
X473509Y493433D01*
X473805Y494920D01*
Y550080D01*
X473509Y551567D01*
X472667Y552827D01*
X461288Y564206D01*
X460028Y565048D01*
X458759Y565300D01*
Y570098D01*
X455521D01*
X454995Y571368D01*
X462034Y578407D01*
X462519Y578206D01*
X464840Y577900D01*
X467161Y578206D01*
X469323Y579102D01*
X471180Y580527D01*
X472605Y582384D01*
X473501Y584546D01*
X473807Y586867D01*
X473501Y589188D01*
X472605Y591350D01*
X471180Y593207D01*
X469323Y594632D01*
X467161Y595528D01*
X464840Y595834D01*
X462519Y595528D01*
X460357Y594632D01*
X458500Y593207D01*
X457075Y591350D01*
X456179Y589188D01*
X455873Y586867D01*
X456179Y584546D01*
X456474Y583834D01*
X447253Y574614D01*
X446411Y573354D01*
X446115Y571867D01*
Y570098D01*
X441241D01*
Y565954D01*
X441166Y565579D01*
Y565051D01*
X441241Y564676D01*
Y553636D01*
X458759D01*
Y554088D01*
X459932Y554574D01*
X466035Y548471D01*
Y496529D01*
X460891Y491385D01*
X425462D01*
X425031Y492655D01*
X426340Y493660D01*
X427765Y495517D01*
X428661Y497679D01*
X428967Y500000D01*
X428661Y502321D01*
X428413Y502919D01*
X437747Y512253D01*
X438589Y513513D01*
X438885Y515000D01*
Y573512D01*
X438589Y574999D01*
X437747Y576259D01*
X425259Y588747D01*
X425112Y588845D01*
X425497Y590115D01*
X451500D01*
X452987Y590411D01*
X454247Y591253D01*
X474942Y611948D01*
X476115Y611462D01*
Y476609D01*
X463391Y463885D01*
X448701D01*
X448320Y464804D01*
X446793Y466793D01*
X444804Y468320D01*
X442486Y469280D01*
X440000Y469607D01*
X437514Y469280D01*
X435196Y468320D01*
X433207Y466793D01*
X431680Y464804D01*
X430720Y462486D01*
X430393Y460000D01*
X430720Y457514D01*
X431680Y455196D01*
X433207Y453207D01*
X435196Y451680D01*
X437514Y450720D01*
X440000Y450393D01*
X442486Y450720D01*
X444804Y451680D01*
X446793Y453207D01*
X448320Y455196D01*
X448701Y456115D01*
X465000D01*
X466487Y456411D01*
X467747Y457253D01*
X482747Y472253D01*
X483589Y473513D01*
X483885Y475000D01*
Y504674D01*
X485024Y505236D01*
X485677Y504735D01*
X487839Y503839D01*
X488890Y503700D01*
Y512500D01*
X490160D01*
Y513770D01*
X498960D01*
X498821Y514821D01*
X497925Y516983D01*
X496500Y518840D01*
X494742Y520190D01*
X494739Y520330D01*
X495549Y521460D01*
X496730D01*
Y529000D01*
X498000D01*
Y530270D01*
X508040D01*
Y536540D01*
X508040D01*
Y537460D01*
X508040D01*
Y546307D01*
X509213Y546793D01*
X513615Y542391D01*
Y470609D01*
X512213Y469207D01*
X511040Y469693D01*
Y478540D01*
X490960D01*
Y468954D01*
X474753Y452747D01*
X473911Y451487D01*
X473615Y450000D01*
Y381000D01*
X473911Y379513D01*
X474753Y378253D01*
X490960Y362046D01*
Y352810D01*
X490960Y352460D01*
Y351540D01*
X490960Y351190D01*
Y345270D01*
X511040D01*
Y351190D01*
X511040Y351540D01*
Y352460D01*
X511040Y352810D01*
Y361307D01*
X512213Y361793D01*
X513615Y360391D01*
Y283609D01*
X511713Y281707D01*
X510540Y282193D01*
Y291040D01*
X490460D01*
Y281454D01*
X477253Y268247D01*
X476411Y266987D01*
X476115Y265500D01*
Y185500D01*
X476411Y184013D01*
X477253Y182753D01*
X490460Y169546D01*
Y160310D01*
X490460Y159960D01*
Y159040D01*
X490460Y158690D01*
Y152770D01*
X500500D01*
Y151500D01*
X501770D01*
Y143960D01*
X509845D01*
X510540Y143960D01*
X511115Y142928D01*
Y97072D01*
X510540Y96040D01*
X490460D01*
Y80960D01*
X490460Y80960D01*
Y80040D01*
X490460D01*
X490460Y79690D01*
Y65310D01*
X490460Y64960D01*
Y64040D01*
X490460Y63690D01*
Y57770D01*
X510540D01*
Y63690D01*
X510540Y64040D01*
Y64960D01*
X510540Y65310D01*
Y74546D01*
X517747Y81753D01*
X518589Y83014D01*
X518885Y84500D01*
Y171500D01*
X518589Y172987D01*
X517747Y174247D01*
X510540Y181454D01*
Y191040D01*
X490460D01*
Y182193D01*
X489287Y181707D01*
X483885Y187109D01*
Y232038D01*
X485155Y232469D01*
X486160Y231159D01*
X488017Y229735D01*
X490179Y228839D01*
X491230Y228701D01*
Y237500D01*
X492500D01*
Y238770D01*
X501300D01*
X501161Y239821D01*
X500265Y241983D01*
X499723Y242690D01*
X500349Y243960D01*
X510540D01*
Y250230D01*
X500500D01*
Y252770D01*
X510540D01*
Y259040D01*
X510540D01*
Y259960D01*
X510540D01*
Y269546D01*
X520247Y279253D01*
X521089Y280514D01*
X521385Y282000D01*
Y362000D01*
X521089Y363487D01*
X520247Y364747D01*
X511040Y373954D01*
Y383540D01*
X490960D01*
Y374693D01*
X489787Y374207D01*
X481385Y382609D01*
Y417038D01*
X482655Y417469D01*
X483660Y416160D01*
X485517Y414735D01*
X487679Y413839D01*
X488730Y413700D01*
Y422500D01*
X490000D01*
Y423770D01*
X498800D01*
X498661Y424821D01*
X497765Y426983D01*
X496340Y428840D01*
X494582Y430190D01*
X494579Y430330D01*
X495388Y431460D01*
X499730D01*
Y437730D01*
X490960D01*
Y432621D01*
X490000Y431467D01*
X489703Y431428D01*
X487679Y431161D01*
X485517Y430265D01*
X483660Y428840D01*
X482655Y427531D01*
X481385Y427962D01*
Y448391D01*
X489787Y456793D01*
X490960Y456307D01*
Y447810D01*
X490960Y447460D01*
Y446540D01*
X490960Y446190D01*
Y440270D01*
X511040D01*
Y446190D01*
X511040Y446540D01*
Y447460D01*
X511040Y447810D01*
Y457046D01*
X520247Y466253D01*
X521089Y467514D01*
X521385Y469000D01*
Y544000D01*
X521089Y545486D01*
X520247Y546747D01*
X508040Y558954D01*
Y568540D01*
X488965D01*
Y611460D01*
X496730D01*
Y619000D01*
X498000D01*
Y620270D01*
X508040D01*
Y626540D01*
X508040D01*
Y627460D01*
X508040D01*
Y637046D01*
X515247Y644253D01*
X516089Y645514D01*
X516385Y647000D01*
Y729000D01*
X516089Y730487D01*
X515247Y731747D01*
X505540Y741454D01*
Y751040D01*
D02*
G37*
G36*
X176830Y628781D02*
X151684D01*
Y602619D01*
X176830D01*
Y628781D01*
D02*
G37*
G36*
X64816D02*
X39670D01*
Y602619D01*
X64816D01*
Y628781D01*
D02*
G37*
G36*
X523770Y608800D02*
Y601270D01*
X531300D01*
X531161Y602321D01*
X530265Y604483D01*
X528840Y606340D01*
X526983Y607765D01*
X524821Y608661D01*
X523770Y608800D01*
D02*
G37*
G36*
X521230D02*
X520179Y608661D01*
X518017Y607765D01*
X516160Y606340D01*
X514735Y604483D01*
X513839Y602321D01*
X513700Y601270D01*
X521230D01*
Y608800D01*
D02*
G37*
G36*
X216790Y627540D02*
X203210D01*
Y614460D01*
Y610885D01*
X199500D01*
X198013Y610589D01*
X196753Y609747D01*
X188147Y601141D01*
X187305Y599881D01*
X187010Y598394D01*
Y598384D01*
X185517Y597765D01*
X183660Y596340D01*
X182235Y594483D01*
X181339Y592321D01*
X181033Y590000D01*
X181339Y587679D01*
X182235Y585517D01*
X183660Y583660D01*
X185517Y582235D01*
X187010Y581616D01*
Y581094D01*
X187305Y579607D01*
X188147Y578347D01*
X199241Y567253D01*
X200501Y566411D01*
X201988Y566115D01*
X203210D01*
Y552460D01*
X216790D01*
Y556115D01*
X249400D01*
X250887Y556411D01*
X252147Y557253D01*
X252922Y558029D01*
X252966Y558010D01*
X255000Y557743D01*
X257034Y558010D01*
X258929Y558796D01*
X260556Y560044D01*
X261805Y561671D01*
X262589Y563566D01*
X262857Y565600D01*
X262589Y567634D01*
X261805Y569529D01*
X260556Y571156D01*
X258929Y572405D01*
X258885Y572423D01*
Y588391D01*
X276609Y606115D01*
X309042D01*
Y597710D01*
Y595270D01*
X317582D01*
X326122D01*
Y598115D01*
X329500D01*
X330987Y598411D01*
X332247Y599253D01*
X334581Y601587D01*
X335179Y601339D01*
X337500Y601033D01*
X339821Y601339D01*
X341983Y602235D01*
X343840Y603660D01*
X345265Y605517D01*
X346161Y607679D01*
X346467Y610000D01*
X346161Y612321D01*
X345265Y614483D01*
X343840Y616340D01*
X341983Y617765D01*
X339821Y618661D01*
X337500Y618967D01*
X335179Y618661D01*
X333017Y617765D01*
X331160Y616340D01*
X329735Y614483D01*
X328839Y612321D01*
X328533Y610000D01*
X328839Y607679D01*
X329087Y607080D01*
X327891Y605885D01*
X326122D01*
Y613710D01*
Y622290D01*
X309042D01*
Y621885D01*
X260468D01*
X258981Y621589D01*
X258606Y621338D01*
X257034Y621990D01*
X255000Y622257D01*
X252966Y621990D01*
X252922Y621971D01*
X249147Y625747D01*
X247887Y626589D01*
X246400Y626885D01*
X216790D01*
Y627540D01*
D02*
G37*
G36*
X531300Y598730D02*
X523770D01*
Y591200D01*
X524821Y591339D01*
X526983Y592235D01*
X528840Y593660D01*
X530265Y595517D01*
X531161Y597679D01*
X531300Y598730D01*
D02*
G37*
G36*
X521230D02*
X513700D01*
X513839Y597679D01*
X514735Y595517D01*
X516160Y593660D01*
X518017Y592235D01*
X520179Y591339D01*
X521230Y591200D01*
Y598730D01*
D02*
G37*
G36*
X572500Y578967D02*
X570179Y578661D01*
X568017Y577765D01*
X566160Y576340D01*
X564735Y574483D01*
X563839Y572321D01*
X563533Y570000D01*
X563839Y567679D01*
X564087Y567081D01*
X561891Y564885D01*
X557040D01*
Y568540D01*
X536960D01*
Y553810D01*
X536960Y553460D01*
Y552540D01*
X536960Y552190D01*
Y537810D01*
X536960Y537460D01*
Y536540D01*
X536960Y536190D01*
Y521460D01*
X557040D01*
Y536190D01*
X557040Y536540D01*
Y537460D01*
X557040Y537810D01*
Y538307D01*
X558213Y538793D01*
X561415Y535591D01*
Y523013D01*
X560817Y522765D01*
X558960Y521340D01*
X557535Y519483D01*
X556639Y517321D01*
X556333Y515000D01*
X556639Y512679D01*
X557535Y510517D01*
X558960Y508660D01*
X560817Y507235D01*
X562979Y506339D01*
X565300Y506033D01*
X567621Y506339D01*
X569783Y507235D01*
X571640Y508660D01*
X573065Y510517D01*
X573961Y512679D01*
X574267Y515000D01*
X573961Y517321D01*
X573065Y519483D01*
X571640Y521340D01*
X569783Y522765D01*
X569185Y523013D01*
Y537200D01*
X568889Y538687D01*
X568047Y539947D01*
X560247Y547747D01*
X558987Y548589D01*
X557500Y548885D01*
X557040D01*
Y552190D01*
X557040Y552540D01*
Y553460D01*
X557040Y553810D01*
Y557115D01*
X563500D01*
X564987Y557411D01*
X566247Y558253D01*
X569580Y561587D01*
X570179Y561339D01*
X572500Y561033D01*
X574821Y561339D01*
X576983Y562235D01*
X578840Y563660D01*
X580265Y565517D01*
X581161Y567679D01*
X581467Y570000D01*
X581161Y572321D01*
X580265Y574483D01*
X578840Y576340D01*
X576983Y577765D01*
X574821Y578661D01*
X572500Y578967D01*
D02*
G37*
G36*
X326122Y592730D02*
X317582D01*
X309042D01*
Y589710D01*
Y581710D01*
Y573710D01*
Y565710D01*
Y557710D01*
X326122D01*
Y565710D01*
Y573710D01*
Y581710D01*
Y589710D01*
Y592730D01*
D02*
G37*
G36*
X84520Y563082D02*
Y554400D01*
X93202D01*
X93025Y555749D01*
X92014Y558190D01*
X90406Y560286D01*
X88310Y561894D01*
X85869Y562905D01*
X84520Y563082D01*
D02*
G37*
G36*
X81980D02*
X80631Y562905D01*
X78190Y561894D01*
X76094Y560286D01*
X74486Y558190D01*
X73475Y555749D01*
X73298Y554400D01*
X81980D01*
Y563082D01*
D02*
G37*
G36*
X93202Y551860D02*
X84520D01*
Y543178D01*
X85869Y543355D01*
X88310Y544366D01*
X90406Y545974D01*
X92014Y548070D01*
X93025Y550511D01*
X93202Y551860D01*
D02*
G37*
G36*
X81980D02*
X73298D01*
X73475Y550511D01*
X74486Y548070D01*
X76094Y545974D01*
X78190Y544366D01*
X80631Y543355D01*
X81980Y543178D01*
Y551860D01*
D02*
G37*
G36*
X288770Y541300D02*
Y533770D01*
X296299D01*
X296161Y534821D01*
X295265Y536983D01*
X293840Y538840D01*
X291983Y540265D01*
X289821Y541161D01*
X288770Y541300D01*
D02*
G37*
G36*
X286230D02*
X285179Y541161D01*
X283017Y540265D01*
X281160Y538840D01*
X279735Y536983D01*
X278839Y534821D01*
X278701Y533770D01*
X286230D01*
Y541300D01*
D02*
G37*
G36*
X458759Y536364D02*
X451270D01*
Y529403D01*
X458759D01*
Y536364D01*
D02*
G37*
G36*
X448730D02*
X441241D01*
Y529403D01*
X448730D01*
Y536364D01*
D02*
G37*
G36*
X296299Y531230D02*
X288770D01*
Y523700D01*
X289821Y523839D01*
X291983Y524735D01*
X293840Y526160D01*
X295265Y528017D01*
X296161Y530179D01*
X296299Y531230D01*
D02*
G37*
G36*
X286230D02*
X278701D01*
X278839Y530179D01*
X279735Y528017D01*
X281160Y526160D01*
X283017Y524735D01*
X285179Y523839D01*
X286230Y523700D01*
Y531230D01*
D02*
G37*
G36*
X508040Y527730D02*
X499270D01*
Y521460D01*
X508040D01*
Y527730D01*
D02*
G37*
G36*
X458759Y526863D02*
X450000D01*
X441241D01*
Y519902D01*
X446115D01*
Y510000D01*
X446411Y508513D01*
X446671Y508124D01*
X446339Y507321D01*
X446200Y506270D01*
X463800D01*
X463661Y507321D01*
X462765Y509483D01*
X461340Y511340D01*
X459483Y512765D01*
X457321Y513661D01*
X455000Y513967D01*
X454840Y513946D01*
X453885Y514783D01*
Y519902D01*
X458759D01*
Y526863D01*
D02*
G37*
G36*
X498960Y511230D02*
X491430D01*
Y503700D01*
X492481Y503839D01*
X494643Y504735D01*
X496500Y506160D01*
X497925Y508017D01*
X498821Y510179D01*
X498960Y511230D01*
D02*
G37*
G36*
X463800Y503730D02*
X456270D01*
Y496200D01*
X457321Y496339D01*
X459483Y497235D01*
X461340Y498660D01*
X462765Y500517D01*
X463661Y502679D01*
X463800Y503730D01*
D02*
G37*
G36*
X453730D02*
X446200D01*
X446339Y502679D01*
X447235Y500517D01*
X448660Y498660D01*
X450517Y497235D01*
X452679Y496339D01*
X453730Y496200D01*
Y503730D01*
D02*
G37*
G36*
X83250Y700750D02*
X80631Y700405D01*
X78190Y699394D01*
X76094Y697786D01*
X74486Y695690D01*
X73475Y693249D01*
X73130Y690630D01*
X73475Y688011D01*
X74486Y685570D01*
X76094Y683474D01*
X78190Y681866D01*
X80631Y680855D01*
X83250Y680510D01*
X85869Y680855D01*
X87044Y681342D01*
X96115Y672271D01*
Y487687D01*
X95079Y486854D01*
X94845Y486798D01*
X92500Y487107D01*
X90014Y486780D01*
X87696Y485820D01*
X85707Y484293D01*
X84180Y482304D01*
X83220Y479986D01*
X82893Y477500D01*
X83220Y475014D01*
X84180Y472696D01*
X85707Y470707D01*
X87696Y469180D01*
X90014Y468220D01*
X92500Y467893D01*
X94986Y468220D01*
X97304Y469180D01*
X99293Y470707D01*
X100820Y472696D01*
X101780Y475014D01*
X102107Y477500D01*
X101780Y479986D01*
X101399Y480905D01*
X102747Y482253D01*
X103589Y483513D01*
X103885Y485000D01*
Y673880D01*
X103589Y675367D01*
X102747Y676627D01*
X92538Y686836D01*
X93025Y688011D01*
X93370Y690630D01*
X93025Y693249D01*
X92014Y695690D01*
X90406Y697786D01*
X88310Y699394D01*
X85869Y700405D01*
X83250Y700750D01*
D02*
G37*
G36*
X47500Y516467D02*
X45179Y516161D01*
X43017Y515265D01*
X41160Y513840D01*
X39735Y511983D01*
X38839Y509821D01*
X38533Y507500D01*
X38839Y505179D01*
X39735Y503017D01*
X41160Y501160D01*
X43017Y499735D01*
X45179Y498839D01*
X47500Y498533D01*
X49821Y498839D01*
X50420Y499087D01*
X53615Y495891D01*
Y491990D01*
X50060D01*
Y478310D01*
X64940D01*
Y491990D01*
X61385D01*
Y497500D01*
X61089Y498987D01*
X60247Y500247D01*
X55913Y504581D01*
X56161Y505179D01*
X56467Y507500D01*
X56161Y509821D01*
X55265Y511983D01*
X53840Y513840D01*
X51983Y515265D01*
X49821Y516161D01*
X47500Y516467D01*
D02*
G37*
G36*
X575500Y488967D02*
X573179Y488661D01*
X571017Y487765D01*
X569160Y486340D01*
X567735Y484483D01*
X566839Y482321D01*
X566533Y480000D01*
X566839Y477679D01*
X567087Y477080D01*
X564891Y474885D01*
X560040D01*
Y478540D01*
X539960D01*
Y463810D01*
X539960Y463460D01*
Y462540D01*
X539960Y462190D01*
Y447810D01*
X539960Y447460D01*
Y446540D01*
X539960Y446190D01*
Y431460D01*
X560040D01*
Y445170D01*
X561310Y445696D01*
X566115Y440891D01*
Y430513D01*
X565517Y430265D01*
X563660Y428840D01*
X562235Y426983D01*
X561339Y424821D01*
X561033Y422500D01*
X561339Y420179D01*
X562235Y418017D01*
X563660Y416160D01*
X565517Y414735D01*
X567679Y413839D01*
X570000Y413533D01*
X572321Y413839D01*
X574483Y414735D01*
X576340Y416160D01*
X577765Y418017D01*
X578661Y420179D01*
X578967Y422500D01*
X578661Y424821D01*
X577765Y426983D01*
X576340Y428840D01*
X574483Y430265D01*
X573885Y430513D01*
Y442500D01*
X573589Y443987D01*
X572747Y445247D01*
X562569Y455425D01*
X561309Y456267D01*
X560040Y456519D01*
Y462190D01*
X560040Y462540D01*
Y463460D01*
X560040Y463810D01*
Y467115D01*
X566500D01*
X567987Y467411D01*
X569247Y468253D01*
X572581Y471587D01*
X573179Y471339D01*
X575500Y471033D01*
X577821Y471339D01*
X579983Y472235D01*
X581840Y473660D01*
X583265Y475517D01*
X584161Y477679D01*
X584467Y480000D01*
X584161Y482321D01*
X583265Y484483D01*
X581840Y486340D01*
X579983Y487765D01*
X577821Y488661D01*
X575500Y488967D01*
D02*
G37*
G36*
X267500Y487107D02*
X265014Y486780D01*
X262696Y485820D01*
X260707Y484293D01*
X259180Y482304D01*
X258220Y479986D01*
X257893Y477500D01*
X258220Y475014D01*
X259180Y472696D01*
X260707Y470707D01*
X262696Y469180D01*
X265014Y468220D01*
X267500Y467893D01*
X269986Y468220D01*
X272304Y469180D01*
X274293Y470707D01*
X275820Y472696D01*
X276780Y475014D01*
X277107Y477500D01*
X276780Y479986D01*
X275820Y482304D01*
X274293Y484293D01*
X272304Y485820D01*
X269986Y486780D01*
X267500Y487107D01*
D02*
G37*
G36*
X133250Y700750D02*
X130631Y700405D01*
X128190Y699394D01*
X126094Y697786D01*
X124486Y695690D01*
X123475Y693249D01*
X123130Y690630D01*
X123475Y688011D01*
X124486Y685570D01*
X126094Y683474D01*
X128190Y681866D01*
X128615Y681690D01*
Y577500D01*
X128911Y576013D01*
X129753Y574753D01*
X193615Y510891D01*
Y486201D01*
X192696Y485820D01*
X190707Y484293D01*
X189180Y482304D01*
X188220Y479986D01*
X187893Y477500D01*
X188220Y475014D01*
X189180Y472696D01*
X190707Y470707D01*
X192696Y469180D01*
X195014Y468220D01*
X197500Y467893D01*
X199986Y468220D01*
X202304Y469180D01*
X204293Y470707D01*
X205820Y472696D01*
X206780Y475014D01*
X207107Y477500D01*
X206780Y479986D01*
X205820Y482304D01*
X204293Y484293D01*
X202304Y485820D01*
X201385Y486201D01*
Y512500D01*
X201089Y513987D01*
X200247Y515247D01*
X136385Y579109D01*
Y681069D01*
X138310Y681866D01*
X140406Y683474D01*
X142014Y685570D01*
X143025Y688011D01*
X143370Y690630D01*
X143025Y693249D01*
X142014Y695690D01*
X140406Y697786D01*
X138310Y699394D01*
X135869Y700405D01*
X133250Y700750D01*
D02*
G37*
G36*
Y563250D02*
X130631Y562905D01*
X128190Y561894D01*
X126094Y560286D01*
X124486Y558190D01*
X123475Y555749D01*
X123130Y553130D01*
X123475Y550511D01*
X124486Y548070D01*
X126094Y545974D01*
X128190Y544366D01*
X130631Y543355D01*
X133250Y543010D01*
X135869Y543355D01*
X137044Y543842D01*
X158615Y522271D01*
Y486201D01*
X157696Y485820D01*
X155707Y484293D01*
X154180Y482304D01*
X153220Y479986D01*
X152893Y477500D01*
X153220Y475014D01*
X154180Y472696D01*
X155707Y470707D01*
X157696Y469180D01*
X160014Y468220D01*
X162500Y467893D01*
X164986Y468220D01*
X167304Y469180D01*
X169293Y470707D01*
X170820Y472696D01*
X171780Y475014D01*
X172107Y477500D01*
X171780Y479986D01*
X170820Y482304D01*
X169293Y484293D01*
X167304Y485820D01*
X166385Y486201D01*
Y523880D01*
X166089Y525367D01*
X165247Y526627D01*
X142538Y549336D01*
X143025Y550511D01*
X143370Y553130D01*
X143025Y555749D01*
X142014Y558190D01*
X140406Y560286D01*
X138310Y561894D01*
X135869Y562905D01*
X133250Y563250D01*
D02*
G37*
G36*
X64940Y476690D02*
X50060D01*
Y463010D01*
X50857D01*
X51343Y461837D01*
X50420Y460913D01*
X49821Y461161D01*
X47500Y461467D01*
X45179Y461161D01*
X43017Y460265D01*
X41160Y458840D01*
X39735Y456983D01*
X38839Y454821D01*
X38533Y452500D01*
X38839Y450179D01*
X39735Y448017D01*
X41160Y446160D01*
X43017Y444735D01*
X45179Y443839D01*
X47500Y443533D01*
X49821Y443839D01*
X51983Y444735D01*
X53840Y446160D01*
X55265Y448017D01*
X56161Y450179D01*
X56467Y452500D01*
X56161Y454821D01*
X55913Y455420D01*
X60247Y459753D01*
X61089Y461013D01*
X61385Y462500D01*
Y463010D01*
X64940D01*
Y476690D01*
D02*
G37*
G36*
X511040Y437730D02*
X502270D01*
Y431460D01*
X511040D01*
Y437730D01*
D02*
G37*
G36*
X392290Y556122D02*
X327710D01*
Y539042D01*
X347591D01*
X348077Y537869D01*
X339673Y529465D01*
X338831Y528204D01*
X338535Y526718D01*
Y497040D01*
X317460D01*
Y491385D01*
X307500D01*
X306013Y491089D01*
X304753Y490247D01*
X297253Y482747D01*
X296411Y481487D01*
X296227Y480560D01*
X295517Y480265D01*
X293660Y478840D01*
X292235Y476983D01*
X291339Y474821D01*
X291033Y472500D01*
X291339Y470179D01*
X292235Y468017D01*
X293660Y466160D01*
X295517Y464735D01*
X296227Y464440D01*
X296411Y463513D01*
X297253Y462253D01*
X304753Y454753D01*
X306013Y453911D01*
X307500Y453615D01*
X318283D01*
X318667Y452689D01*
X320196Y450696D01*
X322189Y449167D01*
X324510Y448206D01*
X327000Y447878D01*
X329000D01*
X331490Y448206D01*
X333811Y449167D01*
X335804Y450696D01*
X337265Y452601D01*
X337403Y452605D01*
X338535Y451870D01*
Y411529D01*
X332453Y405447D01*
X331611Y404187D01*
X331315Y402700D01*
Y380947D01*
X328372Y379727D01*
X325543Y377557D01*
X323373Y374728D01*
X322009Y371435D01*
X321543Y367900D01*
X322009Y364365D01*
X323373Y361072D01*
X325543Y358243D01*
X328372Y356073D01*
X331665Y354709D01*
X335200Y354243D01*
X338735Y354709D01*
X340990Y355643D01*
X341832Y354617D01*
X341411Y353987D01*
X341115Y352500D01*
Y334109D01*
X311524Y304518D01*
X288759D01*
Y308864D01*
X271241D01*
Y292402D01*
X288759D01*
Y296748D01*
X313133D01*
X314620Y297044D01*
X315880Y297886D01*
X347747Y329753D01*
X348589Y331013D01*
X348885Y332500D01*
Y350891D01*
X352972Y354978D01*
X354003Y354213D01*
X352375Y351167D01*
X351086Y346919D01*
X350651Y342500D01*
X351086Y338081D01*
X352375Y333833D01*
X354468Y329917D01*
X357285Y326485D01*
X360717Y323668D01*
X364633Y321575D01*
X368881Y320286D01*
X373300Y319851D01*
X377719Y320286D01*
X381967Y321575D01*
X385883Y323668D01*
X389315Y326485D01*
X392132Y329917D01*
X394225Y333833D01*
X395514Y338081D01*
X395949Y342500D01*
X395514Y346919D01*
X394225Y351167D01*
X392132Y355083D01*
X389315Y358515D01*
X385883Y361332D01*
X381967Y363425D01*
X377719Y364714D01*
X373300Y365149D01*
X368881Y364714D01*
X364633Y363425D01*
X361587Y361797D01*
X360822Y362828D01*
X385359Y387366D01*
X386605Y387118D01*
X386873Y386472D01*
X389043Y383643D01*
X391872Y381473D01*
X395165Y380108D01*
X398700Y379643D01*
X402235Y380108D01*
X405528Y381473D01*
X408357Y383643D01*
X410527Y386472D01*
X411892Y389765D01*
X412357Y393300D01*
X411892Y396835D01*
X410527Y400128D01*
X408357Y402957D01*
X405896Y404845D01*
X406327Y406115D01*
X408391D01*
X441115Y373391D01*
Y306609D01*
X421828Y287322D01*
X420752Y288042D01*
X421182Y289079D01*
X421527Y291700D01*
X421182Y294321D01*
X420170Y296763D01*
X418561Y298861D01*
X416463Y300470D01*
X414021Y301482D01*
X411400Y301827D01*
X408779Y301482D01*
X406337Y300470D01*
X404239Y298861D01*
X402630Y296763D01*
X401618Y294321D01*
X401273Y291700D01*
X401618Y289079D01*
X402630Y286637D01*
X404239Y284539D01*
X406337Y282930D01*
X408779Y281918D01*
X411400Y281573D01*
X414021Y281918D01*
X415058Y282348D01*
X415778Y281271D01*
X403391Y268885D01*
X372500D01*
X371013Y268589D01*
X369753Y267747D01*
X332253Y230247D01*
X331411Y228987D01*
X331115Y227500D01*
Y155547D01*
X328172Y154327D01*
X325343Y152157D01*
X323173Y149328D01*
X321809Y146035D01*
X321343Y142500D01*
X321809Y138965D01*
X323173Y135672D01*
X325343Y132843D01*
X328172Y130673D01*
X331465Y129309D01*
X335000Y128843D01*
X338535Y129309D01*
X341828Y130673D01*
X344657Y132843D01*
X346827Y135672D01*
X348191Y138965D01*
X348657Y142500D01*
X348191Y146035D01*
X346827Y149328D01*
X344657Y152157D01*
X341828Y154327D01*
X338885Y155547D01*
Y225891D01*
X374109Y261115D01*
X405000D01*
X406487Y261411D01*
X407747Y262253D01*
X447747Y302253D01*
X448589Y303513D01*
X448885Y305000D01*
Y375000D01*
X448589Y376487D01*
X447747Y377747D01*
X412747Y412747D01*
X411487Y413589D01*
X410000Y413885D01*
X359109D01*
X351385Y421609D01*
Y522189D01*
X365143Y535947D01*
X365985Y537207D01*
X366281Y538694D01*
Y538894D01*
X366310Y539042D01*
X368115D01*
Y447006D01*
X367500Y446467D01*
X365179Y446161D01*
X363017Y445265D01*
X361160Y443840D01*
X359735Y441983D01*
X358839Y439821D01*
X358533Y437500D01*
X358839Y435179D01*
X359735Y433017D01*
X361160Y431160D01*
X363017Y429735D01*
X365179Y428839D01*
X367500Y428533D01*
X369821Y428839D01*
X371983Y429735D01*
X373840Y431160D01*
X375265Y433017D01*
X376161Y435179D01*
X376467Y437500D01*
X376161Y439821D01*
X375681Y440979D01*
X375885Y442000D01*
Y452185D01*
X376892Y452583D01*
X377155Y452601D01*
X383087Y446669D01*
X383034Y445622D01*
X382892Y445170D01*
X381160Y443840D01*
X379735Y441983D01*
X378839Y439821D01*
X378533Y437500D01*
X378839Y435179D01*
X379735Y433017D01*
X381160Y431160D01*
X383017Y429735D01*
X385179Y428839D01*
X387500Y428533D01*
X389821Y428839D01*
X391983Y429735D01*
X393840Y431160D01*
X395265Y433017D01*
X396161Y435179D01*
X396467Y437500D01*
X396161Y439821D01*
X395265Y441983D01*
X393840Y443840D01*
X391983Y445265D01*
X391385Y445513D01*
Y447749D01*
X391089Y449236D01*
X390247Y450496D01*
X383725Y457018D01*
Y539042D01*
X392290D01*
Y556122D01*
D02*
G37*
G36*
X498800Y421230D02*
X491270D01*
Y413700D01*
X492321Y413839D01*
X494483Y414735D01*
X496340Y416160D01*
X497765Y418017D01*
X498661Y420179D01*
X498800Y421230D01*
D02*
G37*
G36*
X37500Y438967D02*
X35179Y438661D01*
X33017Y437765D01*
X31160Y436340D01*
X29735Y434483D01*
X28839Y432321D01*
X28533Y430000D01*
X28839Y427679D01*
X29735Y425517D01*
X31160Y423660D01*
X33017Y422235D01*
X35179Y421339D01*
X37500Y421033D01*
X39821Y421339D01*
X41983Y422235D01*
X43840Y423660D01*
X45265Y425517D01*
X45513Y426115D01*
X48391D01*
X56115Y418391D01*
Y402190D01*
X52560D01*
Y388410D01*
X67440D01*
Y402190D01*
X63885D01*
Y420000D01*
X63589Y421487D01*
X62747Y422747D01*
X52747Y432747D01*
X51487Y433589D01*
X50000Y433885D01*
X45513D01*
X45265Y434483D01*
X43840Y436340D01*
X41983Y437765D01*
X39821Y438661D01*
X37500Y438967D01*
D02*
G37*
G36*
X232500Y487107D02*
X230014Y486780D01*
X227696Y485820D01*
X225707Y484293D01*
X224180Y482304D01*
X223220Y479986D01*
X222893Y477500D01*
X223220Y475014D01*
X224180Y472696D01*
X225707Y470707D01*
X227696Y469180D01*
X228615Y468799D01*
Y427500D01*
X228911Y426013D01*
X229753Y424753D01*
X239087Y415419D01*
X238839Y414821D01*
X238533Y412500D01*
X238839Y410179D01*
X239735Y408017D01*
X241160Y406160D01*
X243017Y404735D01*
X245179Y403839D01*
X247500Y403533D01*
X249821Y403839D01*
X251983Y404735D01*
X253840Y406160D01*
X255265Y408017D01*
X255513Y408615D01*
X272237D01*
X276115Y404737D01*
Y402190D01*
X272560D01*
Y388410D01*
X287440D01*
Y402190D01*
X283885D01*
Y406346D01*
X283589Y407833D01*
X282747Y409093D01*
X276593Y415247D01*
X275333Y416089D01*
X273846Y416385D01*
X255513D01*
X255265Y416983D01*
X253840Y418840D01*
X251983Y420265D01*
X249821Y421161D01*
X247500Y421467D01*
X245179Y421161D01*
X244580Y420913D01*
X236385Y429109D01*
Y468799D01*
X237304Y469180D01*
X239293Y470707D01*
X240820Y472696D01*
X241780Y475014D01*
X242107Y477500D01*
X241780Y479986D01*
X240820Y482304D01*
X239293Y484293D01*
X237304Y485820D01*
X234986Y486780D01*
X232500Y487107D01*
D02*
G37*
G36*
X127500D02*
X125014Y486780D01*
X122696Y485820D01*
X120707Y484293D01*
X119180Y482304D01*
X118220Y479986D01*
X117893Y477500D01*
X118220Y475014D01*
X119180Y472696D01*
X120707Y470707D01*
X122696Y469180D01*
X123615Y468799D01*
Y381149D01*
X122345Y380300D01*
X120435Y381091D01*
X116900Y381557D01*
X113365Y381091D01*
X110072Y379727D01*
X107243Y377557D01*
X105073Y374728D01*
X103708Y371435D01*
X103243Y367900D01*
X103708Y364365D01*
X105073Y361072D01*
X107243Y358243D01*
X110072Y356073D01*
X113365Y354709D01*
X116900Y354243D01*
X120435Y354709D01*
X123728Y356073D01*
X126557Y358243D01*
X128727Y361072D01*
X130091Y364365D01*
X130557Y367900D01*
X130091Y371435D01*
X128872Y374378D01*
X130247Y375753D01*
X131089Y377013D01*
X131385Y378500D01*
Y468799D01*
X132304Y469180D01*
X134293Y470707D01*
X135820Y472696D01*
X136780Y475014D01*
X137107Y477500D01*
X136780Y479986D01*
X135820Y482304D01*
X134293Y484293D01*
X132304Y485820D01*
X129986Y486780D01*
X127500Y487107D01*
D02*
G37*
G36*
X575500Y393967D02*
X573179Y393661D01*
X571017Y392765D01*
X569160Y391340D01*
X567735Y389483D01*
X566839Y387321D01*
X566533Y385000D01*
X566839Y382679D01*
X567087Y382081D01*
X564891Y379885D01*
X560040D01*
Y383540D01*
X539960D01*
Y368810D01*
X539960Y368460D01*
Y367540D01*
X539960Y367190D01*
Y352810D01*
X539960Y352460D01*
Y351540D01*
X539960Y351190D01*
Y336460D01*
X560040D01*
Y351190D01*
X560040Y351540D01*
Y352460D01*
X560040Y352810D01*
Y355170D01*
X561310Y355696D01*
X566115Y350891D01*
Y338013D01*
X565517Y337765D01*
X563660Y336340D01*
X562235Y334483D01*
X561339Y332321D01*
X561033Y330000D01*
X561339Y327679D01*
X562235Y325517D01*
X563660Y323660D01*
X565517Y322235D01*
X567679Y321339D01*
X570000Y321033D01*
X572321Y321339D01*
X574483Y322235D01*
X576340Y323660D01*
X577765Y325517D01*
X578661Y327679D01*
X578967Y330000D01*
X578661Y332321D01*
X577765Y334483D01*
X576340Y336340D01*
X574483Y337765D01*
X573885Y338013D01*
Y352500D01*
X573589Y353987D01*
X572747Y355247D01*
X565247Y362747D01*
X563987Y363589D01*
X562500Y363885D01*
X560040D01*
Y367190D01*
X560040Y367540D01*
Y368460D01*
X560040Y368810D01*
Y372115D01*
X566500D01*
X567987Y372411D01*
X569247Y373253D01*
X572581Y376587D01*
X573179Y376339D01*
X575500Y376033D01*
X577821Y376339D01*
X579983Y377235D01*
X581840Y378660D01*
X583265Y380517D01*
X584161Y382679D01*
X584467Y385000D01*
X584161Y387321D01*
X583265Y389483D01*
X581840Y391340D01*
X579983Y392765D01*
X577821Y393661D01*
X575500Y393967D01*
D02*
G37*
G36*
X180400Y406957D02*
X176865Y406492D01*
X173572Y405127D01*
X170743Y402957D01*
X168573Y400128D01*
X167208Y396835D01*
X166760Y393426D01*
X122253Y348919D01*
X121411Y347659D01*
X121115Y346172D01*
Y334109D01*
X89657Y302651D01*
X68759D01*
Y306997D01*
X51241D01*
Y290535D01*
X68759D01*
Y294881D01*
X91266D01*
X92753Y295177D01*
X94013Y296019D01*
X127747Y329753D01*
X128589Y331013D01*
X128885Y332500D01*
Y344563D01*
X131704Y347382D01*
X132759Y346642D01*
X132351Y342500D01*
X132786Y338081D01*
X134075Y333833D01*
X136168Y329917D01*
X138985Y326485D01*
X142417Y323668D01*
X146333Y321575D01*
X150581Y320286D01*
X155000Y319851D01*
X159419Y320286D01*
X163667Y321575D01*
X167583Y323668D01*
X171015Y326485D01*
X173832Y329917D01*
X175925Y333833D01*
X177214Y338081D01*
X177649Y342500D01*
X177214Y346919D01*
X175925Y351167D01*
X173832Y355083D01*
X171015Y358515D01*
X167583Y361332D01*
X163667Y363425D01*
X159419Y364714D01*
X155000Y365149D01*
X150858Y364741D01*
X150118Y365796D01*
X168856Y384534D01*
X170123Y384451D01*
X170743Y383643D01*
X173572Y381473D01*
X176865Y380108D01*
X180400Y379643D01*
X183935Y380108D01*
X187228Y381473D01*
X190057Y383643D01*
X192227Y386472D01*
X193591Y389765D01*
X194057Y393300D01*
X193591Y396835D01*
X192227Y400128D01*
X190057Y402957D01*
X187228Y405127D01*
X183935Y406492D01*
X180400Y406957D01*
D02*
G37*
G36*
X511040Y342730D02*
X502270D01*
Y336460D01*
X511040D01*
Y342730D01*
D02*
G37*
G36*
X424100Y353635D02*
X421218Y353256D01*
X418532Y352143D01*
X416226Y350374D01*
X414457Y348068D01*
X413344Y345382D01*
X412965Y342500D01*
X413344Y339618D01*
X414457Y336932D01*
X416226Y334626D01*
X418532Y332857D01*
X421218Y331744D01*
X424100Y331365D01*
X426982Y331744D01*
X429668Y332857D01*
X431974Y334626D01*
X433743Y336932D01*
X434856Y339618D01*
X435235Y342500D01*
X434856Y345382D01*
X433743Y348068D01*
X431974Y350374D01*
X429668Y352143D01*
X426982Y353256D01*
X424100Y353635D01*
D02*
G37*
G36*
X322500D02*
X319618Y353256D01*
X316932Y352143D01*
X314626Y350374D01*
X312857Y348068D01*
X311744Y345382D01*
X311365Y342500D01*
X311744Y339618D01*
X312857Y336932D01*
X314626Y334626D01*
X316932Y332857D01*
X319618Y331744D01*
X322500Y331365D01*
X325382Y331744D01*
X328068Y332857D01*
X330374Y334626D01*
X332143Y336932D01*
X333256Y339618D01*
X333635Y342500D01*
X333256Y345382D01*
X332143Y348068D01*
X330374Y350374D01*
X328068Y352143D01*
X325382Y353256D01*
X322500Y353635D01*
D02*
G37*
G36*
X205800D02*
X202918Y353256D01*
X200232Y352143D01*
X197926Y350374D01*
X196157Y348068D01*
X195044Y345382D01*
X194665Y342500D01*
X195044Y339618D01*
X196157Y336932D01*
X197926Y334626D01*
X200232Y332857D01*
X202918Y331744D01*
X205800Y331365D01*
X208682Y331744D01*
X211368Y332857D01*
X213674Y334626D01*
X215443Y336932D01*
X216556Y339618D01*
X216935Y342500D01*
X216556Y345382D01*
X215443Y348068D01*
X213674Y350374D01*
X211368Y352143D01*
X208682Y353256D01*
X205800Y353635D01*
D02*
G37*
G36*
X104200D02*
X101318Y353256D01*
X98632Y352143D01*
X96326Y350374D01*
X94557Y348068D01*
X93444Y345382D01*
X93065Y342500D01*
X93444Y339618D01*
X94557Y336932D01*
X96326Y334626D01*
X98632Y332857D01*
X101318Y331744D01*
X104200Y331365D01*
X107082Y331744D01*
X109768Y332857D01*
X112074Y334626D01*
X113843Y336932D01*
X114956Y339618D01*
X115335Y342500D01*
X114956Y345382D01*
X113843Y348068D01*
X112074Y350374D01*
X109768Y352143D01*
X107082Y353256D01*
X104200Y353635D01*
D02*
G37*
G36*
X499730Y342730D02*
X490960D01*
X490960Y337073D01*
X490134Y336226D01*
X489879Y336161D01*
X488793Y335711D01*
X487717Y335265D01*
X485860Y333840D01*
X484435Y331983D01*
X483539Y329821D01*
X483400Y328770D01*
X500999D01*
X500861Y329821D01*
X499965Y331983D01*
X498540Y333840D01*
X496782Y335190D01*
X496779Y335330D01*
X497588Y336460D01*
X499730D01*
Y342730D01*
D02*
G37*
G36*
X500999Y326230D02*
X493470D01*
Y318701D01*
X494521Y318839D01*
X496683Y319735D01*
X498540Y321160D01*
X499965Y323017D01*
X500861Y325179D01*
X500999Y326230D01*
D02*
G37*
G36*
X490930D02*
X483400D01*
X483539Y325179D01*
X484435Y323017D01*
X485860Y321160D01*
X487717Y319735D01*
X489879Y318839D01*
X490930Y318701D01*
Y326230D01*
D02*
G37*
G36*
X575000Y301467D02*
X572679Y301161D01*
X570517Y300265D01*
X568660Y298840D01*
X567235Y296983D01*
X566339Y294821D01*
X566033Y292500D01*
X566339Y290179D01*
X566587Y289581D01*
X564391Y287385D01*
X559540D01*
Y291040D01*
X539460D01*
Y276310D01*
X539460Y275960D01*
Y275040D01*
X539460Y274690D01*
Y260310D01*
X539460Y259960D01*
Y259040D01*
X539460Y258690D01*
Y243960D01*
X559540D01*
Y258690D01*
X559540Y259040D01*
Y259960D01*
X559540Y260310D01*
Y260807D01*
X560713Y261293D01*
X563915Y258091D01*
Y243013D01*
X563317Y242765D01*
X561460Y241340D01*
X560035Y239483D01*
X559139Y237321D01*
X558833Y235000D01*
X559139Y232679D01*
X560035Y230517D01*
X561460Y228660D01*
X563317Y227235D01*
X565479Y226339D01*
X567800Y226033D01*
X570121Y226339D01*
X572283Y227235D01*
X574140Y228660D01*
X575565Y230517D01*
X576461Y232679D01*
X576767Y235000D01*
X576461Y237321D01*
X575565Y239483D01*
X574140Y241340D01*
X572283Y242765D01*
X571685Y243013D01*
Y259700D01*
X571389Y261187D01*
X570547Y262447D01*
X562747Y270247D01*
X561487Y271089D01*
X560000Y271385D01*
X559540D01*
Y274690D01*
X559540Y275040D01*
Y275960D01*
X559540Y276310D01*
Y279615D01*
X566000D01*
X567487Y279911D01*
X568747Y280753D01*
X572080Y284087D01*
X572679Y283839D01*
X575000Y283533D01*
X577321Y283839D01*
X579483Y284735D01*
X581340Y286160D01*
X582765Y288017D01*
X583661Y290179D01*
X583967Y292500D01*
X583661Y294821D01*
X582765Y296983D01*
X581340Y298840D01*
X579483Y300265D01*
X577321Y301161D01*
X575000Y301467D01*
D02*
G37*
G36*
X386000Y301827D02*
X383379Y301482D01*
X380937Y300470D01*
X378839Y298861D01*
X377230Y296763D01*
X376218Y294321D01*
X375873Y291700D01*
X376218Y289079D01*
X377230Y286637D01*
X378839Y284539D01*
X380937Y282930D01*
X383379Y281918D01*
X386000Y281573D01*
X388621Y281918D01*
X391063Y282930D01*
X393161Y284539D01*
X394770Y286637D01*
X395782Y289079D01*
X396127Y291700D01*
X395782Y294321D01*
X394770Y296763D01*
X393161Y298861D01*
X391063Y300470D01*
X388621Y301482D01*
X386000Y301827D01*
D02*
G37*
G36*
X360600D02*
X357979Y301482D01*
X355537Y300470D01*
X353439Y298861D01*
X351830Y296763D01*
X350818Y294321D01*
X350473Y291700D01*
X350818Y289079D01*
X351830Y286637D01*
X353439Y284539D01*
X355537Y282930D01*
X357979Y281918D01*
X360600Y281573D01*
X363221Y281918D01*
X365663Y282930D01*
X367761Y284539D01*
X369370Y286637D01*
X370382Y289079D01*
X370727Y291700D01*
X370382Y294321D01*
X369370Y296763D01*
X367761Y298861D01*
X365663Y300470D01*
X363221Y301482D01*
X360600Y301827D01*
D02*
G37*
G36*
X335200D02*
X332579Y301482D01*
X330137Y300470D01*
X328039Y298861D01*
X326430Y296763D01*
X325418Y294321D01*
X325073Y291700D01*
X325418Y289079D01*
X326430Y286637D01*
X328039Y284539D01*
X330137Y282930D01*
X332579Y281918D01*
X335200Y281573D01*
X337821Y281918D01*
X340263Y282930D01*
X342361Y284539D01*
X343970Y286637D01*
X344982Y289079D01*
X345327Y291700D01*
X344982Y294321D01*
X343970Y296763D01*
X342361Y298861D01*
X340263Y300470D01*
X337821Y301482D01*
X335200Y301827D01*
D02*
G37*
G36*
X193100D02*
X190479Y301482D01*
X188037Y300470D01*
X185939Y298861D01*
X184330Y296763D01*
X183318Y294321D01*
X182973Y291700D01*
X183318Y289079D01*
X184330Y286637D01*
X185939Y284539D01*
X188037Y282930D01*
X190479Y281918D01*
X193100Y281573D01*
X195721Y281918D01*
X198163Y282930D01*
X200261Y284539D01*
X201870Y286637D01*
X202882Y289079D01*
X203227Y291700D01*
X202882Y294321D01*
X201870Y296763D01*
X200261Y298861D01*
X198163Y300470D01*
X195721Y301482D01*
X193100Y301827D01*
D02*
G37*
G36*
X167700D02*
X165079Y301482D01*
X162637Y300470D01*
X160539Y298861D01*
X158930Y296763D01*
X157918Y294321D01*
X157573Y291700D01*
X157918Y289079D01*
X158930Y286637D01*
X160539Y284539D01*
X162637Y282930D01*
X165079Y281918D01*
X167700Y281573D01*
X170321Y281918D01*
X172763Y282930D01*
X174861Y284539D01*
X176470Y286637D01*
X177481Y289079D01*
X177827Y291700D01*
X177481Y294321D01*
X176470Y296763D01*
X174861Y298861D01*
X172763Y300470D01*
X170321Y301482D01*
X167700Y301827D01*
D02*
G37*
G36*
X142300D02*
X139679Y301482D01*
X137237Y300470D01*
X135139Y298861D01*
X133530Y296763D01*
X132518Y294321D01*
X132173Y291700D01*
X132518Y289079D01*
X133530Y286637D01*
X135139Y284539D01*
X137237Y282930D01*
X139679Y281918D01*
X142300Y281573D01*
X144921Y281918D01*
X147363Y282930D01*
X149461Y284539D01*
X151070Y286637D01*
X152081Y289079D01*
X152427Y291700D01*
X152081Y294321D01*
X151070Y296763D01*
X149461Y298861D01*
X147363Y300470D01*
X144921Y301482D01*
X142300Y301827D01*
D02*
G37*
G36*
X116900D02*
X114279Y301482D01*
X111837Y300470D01*
X109739Y298861D01*
X108130Y296763D01*
X107118Y294321D01*
X106773Y291700D01*
X107118Y289079D01*
X108130Y286637D01*
X109739Y284539D01*
X111837Y282930D01*
X114279Y281918D01*
X116900Y281573D01*
X119521Y281918D01*
X121963Y282930D01*
X124061Y284539D01*
X125670Y286637D01*
X126681Y289079D01*
X127027Y291700D01*
X126681Y294321D01*
X125670Y296763D01*
X124061Y298861D01*
X121963Y300470D01*
X119521Y301482D01*
X116900Y301827D01*
D02*
G37*
G36*
X501300Y236230D02*
X493770D01*
Y228701D01*
X494821Y228839D01*
X496983Y229735D01*
X498840Y231159D01*
X500265Y233017D01*
X501161Y235179D01*
X501300Y236230D01*
D02*
G37*
G36*
X117500Y239607D02*
X115014Y239280D01*
X112696Y238320D01*
X110707Y236793D01*
X109180Y234804D01*
X108220Y232486D01*
X107893Y230000D01*
X108220Y227514D01*
X109180Y225196D01*
X110707Y223207D01*
X112696Y221680D01*
X115014Y220720D01*
X117500Y220393D01*
X119986Y220720D01*
X122304Y221680D01*
X124293Y223207D01*
X125820Y225196D01*
X126780Y227514D01*
X127107Y230000D01*
X126780Y232486D01*
X125820Y234804D01*
X124293Y236793D01*
X122304Y238320D01*
X119986Y239280D01*
X117500Y239607D01*
D02*
G37*
G36*
X450000Y252649D02*
X445581Y252214D01*
X441333Y250925D01*
X437417Y248832D01*
X433985Y246015D01*
X431168Y242583D01*
X429075Y238667D01*
X427786Y234419D01*
X427351Y230000D01*
X427786Y225581D01*
X429075Y221333D01*
X431168Y217417D01*
X433985Y213985D01*
X437417Y211168D01*
X441333Y209075D01*
X445581Y207786D01*
X450000Y207351D01*
X454419Y207786D01*
X458667Y209075D01*
X462583Y211168D01*
X466015Y213985D01*
X468832Y217417D01*
X470925Y221333D01*
X472214Y225581D01*
X472649Y230000D01*
X472214Y234419D01*
X470925Y238667D01*
X468832Y242583D01*
X466015Y246015D01*
X462583Y248832D01*
X458667Y250925D01*
X454419Y252214D01*
X450000Y252649D01*
D02*
G37*
G36*
X575000Y201467D02*
X572679Y201161D01*
X570517Y200265D01*
X568660Y198840D01*
X567235Y196983D01*
X566339Y194821D01*
X566033Y192500D01*
X566339Y190179D01*
X566587Y189581D01*
X564391Y187385D01*
X559540D01*
Y191040D01*
X539460D01*
Y176310D01*
X539460Y175960D01*
Y175040D01*
X539460Y174690D01*
Y160310D01*
X539460Y159960D01*
Y159040D01*
X539460Y158690D01*
Y143960D01*
X559540D01*
Y158690D01*
X559540Y159040D01*
Y159960D01*
X559540Y160310D01*
Y163615D01*
X560891D01*
X563915Y160591D01*
Y145513D01*
X563317Y145265D01*
X561460Y143841D01*
X560035Y141983D01*
X559139Y139821D01*
X558833Y137500D01*
X559139Y135179D01*
X560035Y133017D01*
X561460Y131160D01*
X563317Y129735D01*
X565479Y128839D01*
X567800Y128533D01*
X570121Y128839D01*
X572283Y129735D01*
X574140Y131160D01*
X575565Y133017D01*
X576461Y135179D01*
X576767Y137500D01*
X576461Y139821D01*
X575565Y141983D01*
X574140Y143841D01*
X572283Y145265D01*
X571685Y145513D01*
Y162200D01*
X571389Y163687D01*
X570547Y164947D01*
X565247Y170247D01*
X563987Y171089D01*
X562500Y171385D01*
X559540D01*
Y174690D01*
X559540Y175040D01*
Y175960D01*
X559540Y176310D01*
Y179615D01*
X566000D01*
X567487Y179911D01*
X568747Y180753D01*
X572081Y184087D01*
X572679Y183839D01*
X575000Y183533D01*
X577321Y183839D01*
X579483Y184735D01*
X581340Y186160D01*
X582765Y188017D01*
X583661Y190179D01*
X583967Y192500D01*
X583661Y194821D01*
X582765Y196983D01*
X581340Y198840D01*
X579483Y200265D01*
X577321Y201161D01*
X575000Y201467D01*
D02*
G37*
G36*
X398500Y181557D02*
X394965Y181091D01*
X391672Y179727D01*
X388843Y177557D01*
X386673Y174728D01*
X385308Y171435D01*
X384843Y167900D01*
X384874Y167669D01*
X383757Y166923D01*
X334625Y117791D01*
X333284Y118247D01*
X333056Y119982D01*
X331943Y122668D01*
X330174Y124974D01*
X327868Y126743D01*
X325182Y127856D01*
X322300Y128235D01*
X319418Y127856D01*
X316732Y126743D01*
X314426Y124974D01*
X312657Y122668D01*
X311544Y119982D01*
X311165Y117100D01*
X311544Y114218D01*
X312657Y111532D01*
X314426Y109226D01*
X316732Y107457D01*
X319418Y106344D01*
X321402Y106083D01*
X321857Y104742D01*
X299766Y82651D01*
X283759D01*
Y86997D01*
X266241D01*
Y70535D01*
X283759D01*
Y74881D01*
X301375D01*
X302861Y75177D01*
X304122Y76019D01*
X337357Y109254D01*
X337924Y110102D01*
X349804Y121982D01*
X350859Y121242D01*
X350451Y117100D01*
X350886Y112681D01*
X352175Y108433D01*
X354268Y104517D01*
X357085Y101085D01*
X360517Y98268D01*
X364433Y96175D01*
X368681Y94886D01*
X373100Y94451D01*
X377519Y94886D01*
X381767Y96175D01*
X385683Y98268D01*
X389115Y101085D01*
X391932Y104517D01*
X394025Y108433D01*
X395314Y112681D01*
X395749Y117100D01*
X395314Y121519D01*
X394025Y125767D01*
X391932Y129683D01*
X389115Y133115D01*
X385683Y135932D01*
X381767Y138025D01*
X377519Y139314D01*
X373100Y139749D01*
X368959Y139341D01*
X368218Y140396D01*
X386956Y159134D01*
X388223Y159051D01*
X388843Y158243D01*
X391672Y156073D01*
X394965Y154708D01*
X398500Y154243D01*
X402035Y154708D01*
X405328Y156073D01*
X408157Y158243D01*
X410327Y161072D01*
X411692Y164365D01*
X412157Y167900D01*
X411692Y171435D01*
X410327Y174728D01*
X408157Y177557D01*
X405328Y179727D01*
X402035Y181091D01*
X398500Y181557D01*
D02*
G37*
G36*
X180000Y181157D02*
X176465Y180692D01*
X173172Y179327D01*
X170343Y177157D01*
X168173Y174328D01*
X166808Y171035D01*
X166343Y167500D01*
X166374Y167269D01*
X165257Y166523D01*
X116125Y117391D01*
X114784Y117847D01*
X114556Y119582D01*
X113443Y122268D01*
X111674Y124574D01*
X109368Y126343D01*
X106682Y127456D01*
X103800Y127835D01*
X100918Y127456D01*
X98232Y126343D01*
X95926Y124574D01*
X94157Y122268D01*
X93044Y119582D01*
X92665Y116700D01*
X93044Y113818D01*
X94157Y111132D01*
X95926Y108826D01*
X98232Y107057D01*
X100918Y105944D01*
X102902Y105683D01*
X103357Y104342D01*
X97900Y98885D01*
X72242D01*
X66259Y104868D01*
Y116364D01*
X48741D01*
Y99902D01*
X60237D01*
X67886Y92253D01*
X69146Y91411D01*
X70633Y91115D01*
X99509D01*
X100996Y91411D01*
X102256Y92253D01*
X118857Y108854D01*
X119423Y109702D01*
X131304Y121582D01*
X132359Y120842D01*
X131951Y116700D01*
X132386Y112281D01*
X133675Y108033D01*
X135768Y104117D01*
X138585Y100685D01*
X142017Y97868D01*
X145933Y95775D01*
X150181Y94486D01*
X154600Y94051D01*
X159019Y94486D01*
X163267Y95775D01*
X167183Y97868D01*
X170615Y100685D01*
X173432Y104117D01*
X175525Y108033D01*
X176814Y112281D01*
X177249Y116700D01*
X176814Y121119D01*
X175525Y125367D01*
X173432Y129283D01*
X170615Y132715D01*
X167183Y135532D01*
X163267Y137625D01*
X159019Y138914D01*
X154600Y139349D01*
X150458Y138941D01*
X149718Y139997D01*
X168456Y158734D01*
X169723Y158651D01*
X170343Y157843D01*
X173172Y155673D01*
X176465Y154309D01*
X180000Y153843D01*
X183535Y154309D01*
X186828Y155673D01*
X189657Y157843D01*
X191827Y160672D01*
X193192Y163965D01*
X193657Y167500D01*
X193192Y171035D01*
X191827Y174328D01*
X189657Y177157D01*
X186828Y179327D01*
X183535Y180692D01*
X180000Y181157D01*
D02*
G37*
G36*
X499230Y150230D02*
X490460D01*
Y145187D01*
X490000Y143967D01*
X489229Y143865D01*
X487679Y143661D01*
X485517Y142765D01*
X483660Y141340D01*
X482235Y139483D01*
X481339Y137321D01*
X481200Y136270D01*
X498800D01*
X498661Y137321D01*
X497765Y139483D01*
X496340Y141340D01*
X494582Y142690D01*
X494579Y142830D01*
X495388Y143960D01*
X499230D01*
Y150230D01*
D02*
G37*
G36*
X67440Y386590D02*
X52560D01*
Y372810D01*
X56115D01*
Y340731D01*
X51241D01*
Y329235D01*
X22253Y300247D01*
X21411Y298987D01*
X21115Y297500D01*
Y174367D01*
X21411Y172880D01*
X22253Y171620D01*
X48741Y145132D01*
Y133636D01*
X66259D01*
Y150098D01*
X54763D01*
X28885Y175976D01*
Y295891D01*
X57263Y324269D01*
X68759D01*
Y340731D01*
X63885D01*
Y372810D01*
X67440D01*
Y386590D01*
D02*
G37*
G36*
X116500Y155757D02*
X112965Y155292D01*
X109672Y153927D01*
X106843Y151757D01*
X104673Y148928D01*
X103308Y145635D01*
X102843Y142100D01*
X103308Y138565D01*
X104673Y135272D01*
X106843Y132443D01*
X109672Y130273D01*
X112965Y128909D01*
X116500Y128443D01*
X120035Y128909D01*
X123328Y130273D01*
X126157Y132443D01*
X128327Y135272D01*
X129691Y138565D01*
X130157Y142100D01*
X129691Y145635D01*
X128327Y148928D01*
X126157Y151757D01*
X123328Y153927D01*
X120035Y155292D01*
X116500Y155757D01*
D02*
G37*
G36*
X498800Y133730D02*
X491270D01*
Y126201D01*
X492321Y126339D01*
X494483Y127235D01*
X496340Y128660D01*
X497765Y130517D01*
X498661Y132679D01*
X498800Y133730D01*
D02*
G37*
G36*
X488730D02*
X481200D01*
X481339Y132679D01*
X482235Y130517D01*
X483660Y128660D01*
X485517Y127235D01*
X487679Y126339D01*
X488730Y126201D01*
Y133730D01*
D02*
G37*
G36*
X423900Y128235D02*
X421018Y127856D01*
X418332Y126743D01*
X416026Y124974D01*
X414257Y122668D01*
X413144Y119982D01*
X412765Y117100D01*
X413144Y114218D01*
X414257Y111532D01*
X416026Y109226D01*
X418332Y107457D01*
X421018Y106344D01*
X423900Y105965D01*
X426782Y106344D01*
X429468Y107457D01*
X431774Y109226D01*
X433543Y111532D01*
X434656Y114218D01*
X435035Y117100D01*
X434656Y119982D01*
X433543Y122668D01*
X431774Y124974D01*
X429468Y126743D01*
X426782Y127856D01*
X423900Y128235D01*
D02*
G37*
G36*
X205400Y127835D02*
X202518Y127456D01*
X199832Y126343D01*
X197526Y124574D01*
X195757Y122268D01*
X194644Y119582D01*
X194265Y116700D01*
X194644Y113818D01*
X195757Y111132D01*
X197526Y108826D01*
X199832Y107057D01*
X202518Y105944D01*
X205400Y105565D01*
X208282Y105944D01*
X210968Y107057D01*
X213274Y108826D01*
X215043Y111132D01*
X216156Y113818D01*
X216535Y116700D01*
X216156Y119582D01*
X215043Y122268D01*
X213274Y124574D01*
X210968Y126343D01*
X208282Y127456D01*
X205400Y127835D01*
D02*
G37*
G36*
X287440Y386590D02*
X272560D01*
Y372810D01*
X276115D01*
Y342598D01*
X271241D01*
Y331102D01*
X247253Y307114D01*
X246411Y305854D01*
X246115Y304367D01*
Y137500D01*
X246411Y136013D01*
X247253Y134753D01*
X266241Y115765D01*
Y104269D01*
X283759D01*
Y120731D01*
X272263D01*
X253885Y139109D01*
Y302758D01*
X277263Y326136D01*
X288759D01*
Y342598D01*
X283885D01*
Y372810D01*
X287440D01*
Y386590D01*
D02*
G37*
G36*
X575000Y106467D02*
X572679Y106161D01*
X570517Y105265D01*
X568660Y103840D01*
X567235Y101983D01*
X566339Y99821D01*
X566033Y97500D01*
X566339Y95179D01*
X566587Y94581D01*
X564391Y92385D01*
X559540D01*
Y96040D01*
X539460D01*
Y81310D01*
X539460Y80960D01*
Y80040D01*
X539460Y79690D01*
Y65310D01*
X539460Y64960D01*
Y64040D01*
X539460Y63690D01*
Y48960D01*
X559540D01*
Y63690D01*
X559540Y64040D01*
Y64960D01*
X559540Y65310D01*
Y68615D01*
X560891D01*
X563915Y65591D01*
Y50513D01*
X563317Y50265D01*
X561460Y48840D01*
X560035Y46983D01*
X559139Y44821D01*
X558833Y42500D01*
X559139Y40179D01*
X560035Y38017D01*
X561460Y36160D01*
X563317Y34735D01*
X565479Y33839D01*
X567800Y33533D01*
X570121Y33839D01*
X572283Y34735D01*
X574140Y36160D01*
X575565Y38017D01*
X576461Y40179D01*
X576767Y42500D01*
X576461Y44821D01*
X575565Y46983D01*
X574140Y48840D01*
X572283Y50265D01*
X571685Y50513D01*
Y67200D01*
X571389Y68687D01*
X570547Y69947D01*
X565247Y75247D01*
X563987Y76089D01*
X562500Y76385D01*
X559540D01*
Y79690D01*
X559540Y80040D01*
Y80960D01*
X559540Y81310D01*
Y84615D01*
X566000D01*
X567487Y84911D01*
X568747Y85753D01*
X572080Y89087D01*
X572679Y88839D01*
X575000Y88533D01*
X577321Y88839D01*
X579483Y89735D01*
X581340Y91160D01*
X582765Y93017D01*
X583661Y95179D01*
X583967Y97500D01*
X583661Y99821D01*
X582765Y101983D01*
X581340Y103840D01*
X579483Y105265D01*
X577321Y106161D01*
X575000Y106467D01*
D02*
G37*
G36*
X411200Y76427D02*
X408579Y76082D01*
X406137Y75070D01*
X404039Y73461D01*
X402430Y71363D01*
X401418Y68921D01*
X401073Y66300D01*
X401418Y63679D01*
X402430Y61237D01*
X404039Y59139D01*
X406137Y57530D01*
X408579Y56519D01*
X411200Y56173D01*
X413821Y56519D01*
X416263Y57530D01*
X418361Y59139D01*
X419970Y61237D01*
X420982Y63679D01*
X421327Y66300D01*
X420982Y68921D01*
X419970Y71363D01*
X418361Y73461D01*
X416263Y75070D01*
X413821Y76082D01*
X411200Y76427D01*
D02*
G37*
G36*
X385800D02*
X383179Y76082D01*
X380737Y75070D01*
X378639Y73461D01*
X377030Y71363D01*
X376018Y68921D01*
X375673Y66300D01*
X376018Y63679D01*
X377030Y61237D01*
X378639Y59139D01*
X380737Y57530D01*
X383179Y56519D01*
X385800Y56173D01*
X388421Y56519D01*
X390863Y57530D01*
X392961Y59139D01*
X394570Y61237D01*
X395582Y63679D01*
X395927Y66300D01*
X395582Y68921D01*
X394570Y71363D01*
X392961Y73461D01*
X390863Y75070D01*
X388421Y76082D01*
X385800Y76427D01*
D02*
G37*
G36*
X360400D02*
X357779Y76082D01*
X355337Y75070D01*
X353239Y73461D01*
X351630Y71363D01*
X350618Y68921D01*
X350273Y66300D01*
X350618Y63679D01*
X351630Y61237D01*
X353239Y59139D01*
X355337Y57530D01*
X357779Y56519D01*
X360400Y56173D01*
X363021Y56519D01*
X365463Y57530D01*
X367561Y59139D01*
X369170Y61237D01*
X370182Y63679D01*
X370527Y66300D01*
X370182Y68921D01*
X369170Y71363D01*
X367561Y73461D01*
X365463Y75070D01*
X363021Y76082D01*
X360400Y76427D01*
D02*
G37*
G36*
X335000D02*
X332379Y76082D01*
X329937Y75070D01*
X327839Y73461D01*
X326230Y71363D01*
X325218Y68921D01*
X324873Y66300D01*
X325218Y63679D01*
X326230Y61237D01*
X327839Y59139D01*
X329937Y57530D01*
X332379Y56519D01*
X335000Y56173D01*
X337621Y56519D01*
X340063Y57530D01*
X342161Y59139D01*
X343770Y61237D01*
X344782Y63679D01*
X345127Y66300D01*
X344782Y68921D01*
X343770Y71363D01*
X342161Y73461D01*
X340063Y75070D01*
X337621Y76082D01*
X335000Y76427D01*
D02*
G37*
G36*
X192700Y76027D02*
X190079Y75682D01*
X187637Y74670D01*
X185539Y73061D01*
X183930Y70963D01*
X182918Y68521D01*
X182573Y65900D01*
X182918Y63279D01*
X183930Y60837D01*
X185539Y58739D01*
X187637Y57130D01*
X190079Y56118D01*
X192700Y55773D01*
X195321Y56118D01*
X197763Y57130D01*
X199861Y58739D01*
X201470Y60837D01*
X202481Y63279D01*
X202827Y65900D01*
X202481Y68521D01*
X201470Y70963D01*
X199861Y73061D01*
X197763Y74670D01*
X195321Y75682D01*
X192700Y76027D01*
D02*
G37*
G36*
X167300D02*
X164679Y75682D01*
X162237Y74670D01*
X160139Y73061D01*
X158530Y70963D01*
X157518Y68521D01*
X157173Y65900D01*
X157518Y63279D01*
X158530Y60837D01*
X160139Y58739D01*
X162237Y57130D01*
X164679Y56118D01*
X167300Y55773D01*
X169921Y56118D01*
X172363Y57130D01*
X174461Y58739D01*
X176070Y60837D01*
X177082Y63279D01*
X177427Y65900D01*
X177082Y68521D01*
X176070Y70963D01*
X174461Y73061D01*
X172363Y74670D01*
X169921Y75682D01*
X167300Y76027D01*
D02*
G37*
G36*
X141900D02*
X139279Y75682D01*
X136837Y74670D01*
X134739Y73061D01*
X133130Y70963D01*
X132118Y68521D01*
X131773Y65900D01*
X132118Y63279D01*
X133130Y60837D01*
X134739Y58739D01*
X136837Y57130D01*
X139279Y56118D01*
X141900Y55773D01*
X144521Y56118D01*
X146963Y57130D01*
X149061Y58739D01*
X150670Y60837D01*
X151681Y63279D01*
X152027Y65900D01*
X151681Y68521D01*
X150670Y70963D01*
X149061Y73061D01*
X146963Y74670D01*
X144521Y75682D01*
X141900Y76027D01*
D02*
G37*
G36*
X116500D02*
X113879Y75682D01*
X111437Y74670D01*
X109339Y73061D01*
X107730Y70963D01*
X106718Y68521D01*
X106373Y65900D01*
X106718Y63279D01*
X107730Y60837D01*
X109339Y58739D01*
X111437Y57130D01*
X113879Y56118D01*
X116500Y55773D01*
X119121Y56118D01*
X121563Y57130D01*
X123661Y58739D01*
X125270Y60837D01*
X126281Y63279D01*
X126627Y65900D01*
X126281Y68521D01*
X125270Y70963D01*
X123661Y73061D01*
X121563Y74670D01*
X119121Y75682D01*
X116500Y76027D01*
D02*
G37*
G36*
X510540Y55230D02*
X501770D01*
Y48960D01*
X510540D01*
Y55230D01*
D02*
G37*
G36*
X499230D02*
X490460D01*
Y50187D01*
X490000Y48967D01*
X489229Y48865D01*
X487679Y48661D01*
X485517Y47765D01*
X483660Y46340D01*
X482235Y44483D01*
X481339Y42321D01*
X481200Y41270D01*
X498800D01*
X498661Y42321D01*
X497765Y44483D01*
X496340Y46340D01*
X494582Y47690D01*
X494579Y47830D01*
X495388Y48960D01*
X499230D01*
Y55230D01*
D02*
G37*
G36*
X498800Y38730D02*
X491270D01*
Y31200D01*
X492321Y31339D01*
X494483Y32235D01*
X496340Y33660D01*
X497765Y35517D01*
X498661Y37679D01*
X498800Y38730D01*
D02*
G37*
G36*
X488730D02*
X481200D01*
X481339Y37679D01*
X482235Y35517D01*
X483660Y33660D01*
X485517Y32235D01*
X487679Y31339D01*
X488730Y31200D01*
Y38730D01*
D02*
G37*
G36*
X37500Y65149D02*
X33081Y64714D01*
X28833Y63425D01*
X24917Y61332D01*
X21485Y58515D01*
X18668Y55083D01*
X16575Y51167D01*
X15286Y46919D01*
X14851Y42500D01*
X15286Y38081D01*
X16575Y33833D01*
X18668Y29917D01*
X21485Y26485D01*
X24917Y23668D01*
X28833Y21575D01*
X33081Y20286D01*
X37500Y19851D01*
X41919Y20286D01*
X46167Y21575D01*
X50083Y23668D01*
X53515Y26485D01*
X56332Y29917D01*
X58425Y33833D01*
X59714Y38081D01*
X60149Y42500D01*
X59714Y46919D01*
X58425Y51167D01*
X56332Y55083D01*
X53515Y58515D01*
X50083Y61332D01*
X46167Y63425D01*
X41919Y64714D01*
X37500Y65149D01*
D02*
G37*
%LPD*%
G36*
X508615Y727391D02*
Y659572D01*
X508040Y658540D01*
X487960D01*
Y648954D01*
X485058Y646052D01*
X483885Y646538D01*
Y712085D01*
X484190Y712294D01*
X485460Y711626D01*
Y703960D01*
X491615D01*
Y696013D01*
X491017Y695765D01*
X489160Y694340D01*
X487734Y692483D01*
X486839Y690321D01*
X486700Y689270D01*
X504299D01*
X504161Y690321D01*
X503265Y692483D01*
X501840Y694340D01*
X499983Y695765D01*
X499385Y696013D01*
Y703960D01*
X505540D01*
Y710230D01*
X495500D01*
Y712770D01*
X505540D01*
Y719040D01*
X505540Y719040D01*
Y719960D01*
X505540D01*
X505540Y720310D01*
Y728807D01*
X506713Y729293D01*
X508615Y727391D01*
D02*
G37*
%LPC*%
G36*
X504299Y686730D02*
X496770D01*
Y679200D01*
X497821Y679339D01*
X499983Y680235D01*
X501840Y681659D01*
X503265Y683517D01*
X504161Y685679D01*
X504299Y686730D01*
D02*
G37*
G36*
X494230D02*
X486700D01*
X486839Y685679D01*
X487734Y683517D01*
X489160Y681659D01*
X491017Y680235D01*
X493179Y679339D01*
X494230Y679200D01*
Y686730D01*
D02*
G37*
%LPD*%
G36*
X247429Y616478D02*
X247411Y616434D01*
X247143Y614400D01*
X247411Y612366D01*
X248195Y610471D01*
X249444Y608844D01*
X251071Y607595D01*
X252966Y606810D01*
X255000Y606543D01*
X257034Y606810D01*
X258929Y607595D01*
X260556Y608844D01*
X261805Y610471D01*
X262589Y612366D01*
X262820Y614115D01*
X272015D01*
X272400Y612845D01*
X272253Y612747D01*
X252253Y592747D01*
X251411Y591487D01*
X251115Y590000D01*
Y572423D01*
X251071Y572405D01*
X249444Y571156D01*
X248195Y569529D01*
X247411Y567634D01*
X247143Y565600D01*
X247243Y564840D01*
X246406Y563885D01*
X216790D01*
Y577540D01*
X203210D01*
Y575931D01*
X202037Y575445D01*
X195597Y581885D01*
X195679Y583153D01*
X196341Y583660D01*
X197765Y585517D01*
X198661Y587679D01*
X198967Y590000D01*
X198661Y592321D01*
X197765Y594483D01*
X196341Y596340D01*
X195969Y596625D01*
X195886Y597892D01*
X201109Y603115D01*
X203210D01*
Y602460D01*
X216790D01*
Y614460D01*
Y619115D01*
X244791D01*
X247429Y616478D01*
D02*
G37*
G36*
X317460Y477960D02*
X338535D01*
Y463130D01*
X337403Y462395D01*
X337265Y462399D01*
X335804Y464304D01*
X333811Y465833D01*
X331490Y466794D01*
X329000Y467122D01*
X327000D01*
X324510Y466794D01*
X322189Y465833D01*
X320196Y464304D01*
X318667Y462311D01*
X318283Y461385D01*
X309109D01*
X305886Y464608D01*
X305969Y465875D01*
X306340Y466160D01*
X307765Y468017D01*
X308661Y470179D01*
X308967Y472500D01*
X308661Y474821D01*
X307765Y476983D01*
X306340Y478840D01*
X305969Y479125D01*
X305886Y480392D01*
X309109Y483615D01*
X317460D01*
Y477960D01*
D02*
G37*
G36*
X354753Y407253D02*
X356013Y406411D01*
X357500Y406115D01*
X391073D01*
X391504Y404845D01*
X389043Y402957D01*
X386873Y400128D01*
X385508Y396835D01*
X385449Y396385D01*
X385000D01*
X383513Y396089D01*
X382253Y395247D01*
X348631Y361625D01*
X347554Y362344D01*
X348391Y364365D01*
X348857Y367900D01*
X348391Y371435D01*
X347027Y374728D01*
X344857Y377557D01*
X342028Y379727D01*
X339085Y380947D01*
Y401091D01*
X345167Y407173D01*
X346009Y408433D01*
X346305Y409920D01*
Y414042D01*
X347478Y414528D01*
X354753Y407253D01*
D02*
G37*
D12*
X210000Y559000D02*
X211000Y560000D01*
X249400D02*
X255000Y565600D01*
X211000Y560000D02*
X249400D01*
X190894Y581094D02*
X201988Y570000D01*
X209000D02*
X210000Y571000D01*
X201988Y570000D02*
X209000D01*
X100000Y485000D02*
Y673880D01*
X83250Y690630D02*
X100000Y673880D01*
X92500Y477500D02*
X100000Y485000D01*
X273846Y412500D02*
X280000Y406346D01*
X247500Y412500D02*
X273846D01*
X495500Y688000D02*
Y711500D01*
X565600Y697500D02*
Y716900D01*
X465000Y460000D02*
X480000Y475000D01*
Y714500D02*
X493000Y727500D01*
X480000Y475000D02*
Y714500D01*
X485080Y555420D02*
X495500Y545000D01*
X485080Y640580D02*
X495500Y651000D01*
X485080Y555420D02*
Y640580D01*
X451500Y594000D02*
X479688Y622188D01*
X329500Y602000D02*
X337500Y610000D01*
X317582Y602000D02*
X329500D01*
X281593Y754810D02*
X299407D01*
X278190Y721810D02*
Y751407D01*
X281593Y754810D01*
X299407D02*
X302810Y751407D01*
Y750722D02*
Y751407D01*
X303221Y744529D02*
Y750312D01*
X302810Y750722D02*
X303221Y750312D01*
X190894Y581094D02*
Y589106D01*
X190000Y590000D02*
X190894Y589106D01*
X190000Y590000D02*
X190894Y590894D01*
Y598394D01*
X199500Y607000D01*
X450000Y510000D02*
X455000Y505000D01*
X450000Y510000D02*
Y528133D01*
X462500Y487500D02*
X469920Y494920D01*
X400000Y487500D02*
X462500D01*
X469920Y494920D02*
Y550080D01*
X440000Y460000D02*
X465000D01*
X464840Y586707D02*
Y586867D01*
X458541Y561459D02*
X469920Y550080D01*
X400000Y487500D02*
X400322Y487178D01*
X450000Y571867D02*
X464840Y586707D01*
X400322Y457822D02*
Y487178D01*
X477500Y381000D02*
Y450000D01*
Y381000D02*
X498500Y360000D01*
X477500Y450000D02*
X499500Y472000D01*
X480000Y265500D02*
X498000Y283500D01*
X480000Y185500D02*
X498000Y167500D01*
X480000Y185500D02*
Y265500D01*
X566000Y88500D02*
X575000Y97500D01*
X549500Y88500D02*
X566000D01*
X566000Y183500D02*
X575000Y192500D01*
X549500Y183500D02*
X566000D01*
X566000Y283500D02*
X575000Y292500D01*
X549500Y283500D02*
X566000D01*
X566500Y376000D02*
X575500Y385000D01*
X550000Y376000D02*
X566500D01*
Y471000D02*
X575500Y480000D01*
X550000Y471000D02*
X566500D01*
X547000Y561000D02*
X563500D01*
X572500Y570000D01*
X544500Y743500D02*
X561000D01*
X570000Y752500D01*
X547000Y651000D02*
X563500D01*
X572500Y660000D01*
X57500Y108133D02*
X70633Y95000D01*
X99509D02*
X116110Y111601D01*
X70633Y95000D02*
X99509D01*
X25000Y174367D02*
X57500Y141867D01*
X25000Y174367D02*
Y297500D01*
X57500Y462500D02*
Y469850D01*
X47500Y452500D02*
X57500Y462500D01*
Y485150D02*
Y497500D01*
X47500Y507500D02*
X57500Y497500D01*
X232500Y427500D02*
Y477500D01*
X197500D02*
Y512500D01*
X127500Y378500D02*
Y477500D01*
X162500D02*
Y523880D01*
X300000Y465000D02*
Y480000D01*
X307500Y487500D02*
X328000D01*
X300000Y480000D02*
X307500Y487500D01*
X307500Y457500D02*
X328000D01*
X300000Y465000D02*
X307500Y457500D01*
X345000Y332500D02*
Y352500D01*
X385000Y392500D02*
X397900D01*
X345000Y352500D02*
X385000Y392500D01*
X397900D02*
X398700Y393300D01*
X335200Y402700D02*
X342420Y409920D01*
X335200Y367900D02*
Y402700D01*
X342420Y409920D02*
Y526718D01*
X357500Y410000D02*
X410000D01*
X445000Y375000D01*
X347500Y420000D02*
X357500Y410000D01*
X367500Y437500D02*
X372000Y442000D01*
X379840Y455409D02*
X387500Y447749D01*
Y437500D02*
Y447749D01*
X379840Y455409D02*
Y547422D01*
X367500Y437500D02*
Y437500D01*
X362684Y546266D02*
X364000Y547582D01*
X347500Y523798D02*
X362396Y538694D01*
X354684Y546266D02*
X356000Y547582D01*
X362396Y540054D02*
X362684Y540342D01*
X354684Y540342D02*
Y546266D01*
X372000Y442000D02*
Y547582D01*
X342420Y526718D02*
X354396Y538694D01*
X362684Y540342D02*
Y546266D01*
X347500Y420000D02*
Y523798D01*
X354396Y540054D02*
X354684Y540342D01*
X354396Y538694D02*
Y540054D01*
X362396Y538694D02*
Y540054D01*
X232500Y427500D02*
X247500Y412500D01*
X116900Y367900D02*
X127500Y378500D01*
X132500Y689880D02*
X133250Y690630D01*
X132500Y577500D02*
Y689880D01*
Y577500D02*
X197500Y512500D01*
X133250Y553130D02*
X162500Y523880D01*
X445051Y565051D02*
Y565579D01*
X450000Y562395D02*
Y571867D01*
X37500Y430000D02*
X50000D01*
X60000Y395300D02*
Y420000D01*
X50000Y430000D02*
X60000Y420000D01*
X280000Y395300D02*
Y406346D01*
X199500Y607000D02*
X210000D01*
X238500Y746500D02*
X265000D01*
X232500Y752500D02*
X238500Y746500D01*
X284500Y771000D02*
X285000D01*
X273000Y782500D02*
X284500Y771000D01*
X235000Y782500D02*
X273000D01*
X329000Y746500D02*
X349000D01*
X357500Y755000D01*
X321000Y782500D02*
X357500D01*
X309000Y771000D02*
X309500D01*
X321000Y782500D01*
X275000Y610000D02*
X317582D01*
X255000Y590000D02*
X275000Y610000D01*
X400000Y698250D02*
Y699250D01*
X396270Y702980D02*
X400000Y699250D01*
X395270Y702980D02*
X396270D01*
X390750Y707500D02*
X395270Y702980D01*
X372500Y707500D02*
X390750D01*
X400000Y671081D02*
Y681750D01*
X372457Y643538D02*
X400000Y671081D01*
X372457Y632875D02*
Y643538D01*
X372000Y632418D02*
X372457Y632875D01*
X329950Y719550D02*
X450000D01*
X310000Y739500D02*
X329950Y719550D01*
X310000Y739500D02*
Y744250D01*
X498000Y743500D02*
X512500Y729000D01*
Y647000D02*
Y729000D01*
X500500Y635000D02*
X512500Y647000D01*
X434350Y618000D02*
X435000Y617350D01*
X402418Y618000D02*
X434350D01*
X435000Y617350D02*
X435150Y617500D01*
X455000D01*
X402418Y594000D02*
X451500D01*
X400000Y525000D02*
X420000Y545000D01*
X412987Y568684D02*
X420000Y561671D01*
Y545000D02*
Y561671D01*
X403734Y568684D02*
X412987D01*
X420816Y576684D02*
X429920Y567580D01*
X400000Y510000D02*
Y525000D01*
X402418Y570000D02*
X403734Y568684D01*
X364000Y654000D02*
X372500Y662500D01*
X420000Y500000D02*
X435000Y515000D01*
X402418Y578000D02*
X403734Y576684D01*
X364000Y632418D02*
Y654000D01*
X435000Y515000D02*
Y573512D01*
X403734Y576684D02*
X420816D01*
X402418Y586000D02*
X422512D01*
X419999Y517579D02*
X429920Y527500D01*
Y567580D01*
X422512Y586000D02*
X435000Y573512D01*
X419999Y517499D02*
Y517579D01*
X450000Y561867D02*
X450408Y561459D01*
X458541D01*
X280000Y334367D02*
Y379700D01*
X379840Y547422D02*
X380000Y547582D01*
X493000Y727500D02*
X495500D01*
Y743500D02*
X498000D01*
Y635000D02*
X500500D01*
X495500Y651000D02*
X498000D01*
X495500Y545000D02*
X498000D01*
Y561000D02*
X500500D01*
X517500Y544000D01*
Y469000D02*
Y544000D01*
X501000Y455000D02*
X503500D01*
X517500Y469000D01*
X499500Y472000D02*
Y472500D01*
X498500Y360000D02*
X501000D01*
Y376000D02*
X503500D01*
X517500Y362000D01*
Y282000D02*
Y362000D01*
X500500Y267500D02*
X503000D01*
X517500Y282000D01*
X498000Y283500D02*
X500500D01*
X498000Y167500D02*
X500500D01*
Y183500D02*
X503000D01*
X515000Y171500D01*
Y84500D02*
Y171500D01*
X500500Y72500D02*
X503000D01*
X515000Y84500D01*
X499500Y472500D02*
X501000Y471000D01*
X550000Y360000D02*
X550000Y360000D01*
X562500D02*
X570000Y352500D01*
Y330000D02*
Y352500D01*
X550000Y360000D02*
X562500D01*
X400000Y457500D02*
X400322Y457822D01*
X335000Y142500D02*
Y227500D01*
X372500Y265000D02*
X405000D01*
X335000Y227500D02*
X372500Y265000D01*
X405000D02*
X445000Y305000D01*
Y375000D01*
X313133Y300633D02*
X345000Y332500D01*
X280000Y300633D02*
X313133D01*
X549500Y72500D02*
X562500D01*
X567800Y42500D02*
Y67200D01*
X562500Y72500D02*
X567800Y67200D01*
X549500Y167500D02*
X549500Y167500D01*
X562500D01*
X567800Y137500D02*
Y162200D01*
X562500Y167500D02*
X567800Y162200D01*
X549500Y267500D02*
X549500Y267500D01*
X560000D01*
X567800Y235000D02*
Y259700D01*
X560000Y267500D02*
X567800Y259700D01*
X547000Y545000D02*
X547000Y545000D01*
X557500D01*
X565300Y515000D02*
Y537200D01*
X557500Y545000D02*
X565300Y537200D01*
X547000Y635000D02*
X560000D01*
X570300Y605000D02*
Y624700D01*
X560000Y635000D02*
X570300Y624700D01*
X544500Y727500D02*
X555000D01*
X565600Y716900D01*
X570000Y422500D02*
Y442500D01*
X550000Y455000D02*
X552322Y452678D01*
X559822D01*
X570000Y442500D01*
X125000Y332500D02*
Y346172D01*
X91266Y298766D02*
X125000Y332500D01*
Y346172D02*
X172127Y393300D01*
X180400D01*
X284000Y731000D02*
Y744250D01*
Y731000D02*
X300000Y715000D01*
X307200Y692800D02*
X315000D01*
X297279Y737504D02*
Y743971D01*
Y737504D02*
X336103Y698680D01*
X278190Y721810D02*
X307200Y692800D01*
X336920Y698680D02*
X340000Y695600D01*
X336103Y698680D02*
X336920D01*
X279472Y334367D02*
X280000D01*
X275051Y329946D02*
X279472Y334367D01*
X275051Y329418D02*
Y329946D01*
X250000Y304367D02*
X275051Y329418D01*
X250000Y137500D02*
Y304367D01*
X274472Y112500D02*
X275000D01*
X270051Y116921D02*
X274472Y112500D01*
X270051Y116921D02*
Y117449D01*
X250000Y137500D02*
X270051Y117449D01*
X60000Y298766D02*
X91266D01*
X60000Y332500D02*
Y379700D01*
X60000Y379700D01*
X59472Y332500D02*
X60000D01*
X55051Y328079D02*
X59472Y332500D01*
X55051Y327551D02*
Y328079D01*
X25000Y297500D02*
X55051Y327551D01*
X116110Y111601D02*
Y111882D01*
X168004Y163776D01*
X176276D01*
X180000Y167500D01*
X275000Y78766D02*
X301375D01*
X334610Y112001D01*
Y112282D01*
X386504Y164177D01*
X394776D01*
X398500Y167900D01*
X210000Y623000D02*
X246400D01*
X255000Y614400D01*
Y565600D02*
Y590000D01*
Y614400D02*
X256868D01*
X260468Y618000D01*
X317582D01*
X356000Y632418D02*
Y649031D01*
X340000Y665031D02*
X356000Y649031D01*
X340000Y665031D02*
Y680000D01*
X315000Y677200D02*
X315300D01*
X348000Y644500D01*
Y632418D02*
Y644500D01*
X297000Y744250D02*
X297279Y743971D01*
X303221Y744529D02*
X303500Y744250D01*
D15*
X210000Y621000D02*
D03*
Y609000D02*
D03*
Y559000D02*
D03*
Y571000D02*
D03*
D16*
X52243Y615700D02*
D03*
X164257D02*
D03*
D17*
X332000Y632418D02*
D03*
X340000D02*
D03*
X348000D02*
D03*
X356000D02*
D03*
X364000D02*
D03*
X372000D02*
D03*
X380000D02*
D03*
X388000D02*
D03*
Y547582D02*
D03*
X380000D02*
D03*
X372000D02*
D03*
X364000D02*
D03*
X356000D02*
D03*
X348000D02*
D03*
X340000D02*
D03*
X332000D02*
D03*
D18*
X402418Y618000D02*
D03*
Y610000D02*
D03*
Y602000D02*
D03*
Y594000D02*
D03*
Y586000D02*
D03*
Y578000D02*
D03*
Y570000D02*
D03*
Y562000D02*
D03*
X317582D02*
D03*
Y570000D02*
D03*
Y578000D02*
D03*
Y586000D02*
D03*
Y594000D02*
D03*
Y602000D02*
D03*
Y610000D02*
D03*
Y618000D02*
D03*
D19*
X328000Y487500D02*
D03*
D20*
X400000Y457500D02*
D03*
Y487500D02*
D03*
X328000Y457500D02*
D03*
D21*
X500500Y88500D02*
D03*
Y72500D02*
D03*
Y56500D02*
D03*
X549500D02*
D03*
Y72500D02*
D03*
Y88500D02*
D03*
X500500Y183500D02*
D03*
Y167500D02*
D03*
Y151500D02*
D03*
X549500D02*
D03*
Y167500D02*
D03*
Y183500D02*
D03*
X500500Y283500D02*
D03*
Y267500D02*
D03*
Y251500D02*
D03*
X549500D02*
D03*
Y267500D02*
D03*
Y283500D02*
D03*
X501000Y376000D02*
D03*
Y360000D02*
D03*
Y344000D02*
D03*
X550000D02*
D03*
Y360000D02*
D03*
Y376000D02*
D03*
X501000Y471000D02*
D03*
Y455000D02*
D03*
Y439000D02*
D03*
X550000D02*
D03*
Y455000D02*
D03*
Y471000D02*
D03*
X498000Y561000D02*
D03*
Y545000D02*
D03*
Y529000D02*
D03*
X547000D02*
D03*
Y545000D02*
D03*
Y561000D02*
D03*
X498000Y651000D02*
D03*
Y635000D02*
D03*
Y619000D02*
D03*
X547000D02*
D03*
Y635000D02*
D03*
Y651000D02*
D03*
X495500Y743500D02*
D03*
Y727500D02*
D03*
Y711500D02*
D03*
X544500D02*
D03*
Y727500D02*
D03*
Y743500D02*
D03*
D22*
X57500Y485150D02*
D03*
Y469850D02*
D03*
X435000Y632650D02*
D03*
Y617350D02*
D03*
D23*
X280000Y379700D02*
D03*
Y395300D02*
D03*
X60000Y379700D02*
D03*
Y395300D02*
D03*
D24*
X340000Y695600D02*
D03*
Y680000D02*
D03*
X315000Y692800D02*
D03*
Y677200D02*
D03*
D25*
X284000Y744250D02*
D03*
X297000D02*
D03*
X303500D02*
D03*
X310000D02*
D03*
X290500D02*
D03*
D26*
X285000Y771000D02*
D03*
X309000D02*
D03*
D27*
X265000Y746500D02*
D03*
X329000D02*
D03*
D28*
X450000Y719550D02*
D03*
Y670450D02*
D03*
D29*
X275000Y112500D02*
D03*
Y78766D02*
D03*
X280000Y334367D02*
D03*
Y300633D02*
D03*
X57500Y141867D02*
D03*
Y108133D02*
D03*
X60000Y332500D02*
D03*
Y298766D02*
D03*
X450000Y528133D02*
D03*
Y561867D02*
D03*
D30*
X400000Y681750D02*
D03*
Y698250D02*
D03*
D48*
X83250Y690630D02*
D03*
X108250D02*
D03*
X133250D02*
D03*
X83250Y553130D02*
D03*
X133250D02*
D03*
D50*
X92500Y477500D02*
D03*
X232500D02*
D03*
X197500D02*
D03*
X267500D02*
D03*
X162500D02*
D03*
X117500Y230000D02*
D03*
X440000Y460000D02*
D03*
X127500Y477500D02*
D03*
D52*
X255000Y614400D02*
D03*
Y565600D02*
D03*
D53*
X411200Y66300D02*
D03*
X335000D02*
D03*
X360400D02*
D03*
X385800D02*
D03*
X411400Y291700D02*
D03*
X335200D02*
D03*
X360600D02*
D03*
X386000D02*
D03*
X192700Y65900D02*
D03*
X116500D02*
D03*
X141900D02*
D03*
X167300D02*
D03*
X193100Y291700D02*
D03*
X116900D02*
D03*
X142300D02*
D03*
X167700D02*
D03*
D54*
X398500Y167900D02*
D03*
X335000Y142500D02*
D03*
X398700Y393300D02*
D03*
X335200Y367900D02*
D03*
X180000Y167500D02*
D03*
X116500Y142100D02*
D03*
X180400Y393300D02*
D03*
X116900Y367900D02*
D03*
D55*
X264000Y771000D02*
D03*
X330000D02*
D03*
D56*
X450000Y230000D02*
D03*
X37500Y42500D02*
D03*
X410000Y762500D02*
D03*
X37500Y760000D02*
D03*
D57*
X495500Y688000D02*
D03*
X567500Y680000D02*
D03*
X565600Y697500D02*
D03*
X420000Y660000D02*
D03*
X490160Y512500D02*
D03*
X287500Y532500D02*
D03*
Y660000D02*
D03*
X337500Y610000D02*
D03*
X190000Y590000D02*
D03*
X455000Y505000D02*
D03*
X464840Y586867D02*
D03*
X490000Y422500D02*
D03*
X492200Y327500D02*
D03*
X492500Y237500D02*
D03*
X490000Y40000D02*
D03*
X490000Y135000D02*
D03*
X575000Y97500D02*
D03*
X575000Y192500D02*
D03*
X575000Y292500D02*
D03*
X575500Y385000D02*
D03*
Y480000D02*
D03*
X572500Y570000D02*
D03*
X570000Y752500D02*
D03*
X522500Y600000D02*
D03*
X572500Y660000D02*
D03*
X47500Y452500D02*
D03*
Y507500D02*
D03*
X300000Y472500D02*
D03*
X367500Y437500D02*
D03*
X387500D02*
D03*
X37500Y430000D02*
D03*
X247500Y412500D02*
D03*
X232500Y752500D02*
D03*
X235000Y782500D02*
D03*
X357500Y755000D02*
D03*
Y782500D02*
D03*
X372500Y707500D02*
D03*
X455000Y617500D02*
D03*
X372500Y662500D02*
D03*
X419999Y517499D02*
D03*
X420000Y500000D02*
D03*
X400000Y510000D02*
D03*
X570000Y330000D02*
D03*
X567800Y235000D02*
D03*
X570300Y605000D02*
D03*
X565300Y515000D02*
D03*
X567800Y42500D02*
D03*
X567800Y137500D02*
D03*
X570000Y422500D02*
D03*
X300000Y715000D02*
D03*
M02*
